<?xml version="1.0" encoding="utf-8"?>
<!-- Generator: Adobe Illustrator 19.0.0, SVG Export Plug-In . SVG Version: 6.00 Build 0)  -->
<svg version="1.1" id="图层_1" xmlns="http://www.w3.org/2000/svg" xmlns:xlink="http://www.w3.org/1999/xlink" x="0px" y="0px"
	 viewBox="0 0 147.452 212.213" style="enable-background:new 0 0 147.452 212.213;" xml:space="preserve">
<style type="text/css">
	.st0{fill:#FEFEFE;}
	.st1{fill:#244F4D;}
	.st2{fill:#3A6C66;}
	.st3{fill:#34635F;}
	.st4{fill:#306059;}
	.st5{fill:#3C6769;}
	.st6{fill:#447370;}
	.st7{fill:#43706D;}
	.st8{fill:#427171;}
	.st9{fill:#2B5752;}
	.st10{fill:#2D5B58;}
	.st11{fill:#2E4F57;}
	.st12{fill:#1E3A41;}
	.st13{fill:#3E7A6F;}
	.st14{fill:#215456;}
	.st15{fill:#74AC9D;}
	.st16{fill:#244F4A;}
	.st17{fill:#548480;}
	.st18{fill:#3E696C;}
	.st19{fill:#68928E;}
	.st20{fill:#699290;}
	.st21{fill:#1D2A2E;}
	.st22{fill:#598582;}
	.st23{fill:#2F5C57;}
	.st24{fill:#5E8985;}
	.st25{fill:#375D5C;}
	.st26{fill:#192329;}
	.st27{fill:#203239;}
	.st28{fill:#2B7D68;}
	.st29{fill:#4A7A77;}
	.st30{fill:#181D26;}
	.st31{fill:#294643;}
	.st32{fill:#497774;}
	.st33{fill:#477C74;}
	.st34{fill:#4C7D77;}
	.st35{fill:#24534D;}
	.st36{fill:#4B8176;}
	.st37{fill:#578883;}
	.st38{fill:#264C4D;}
	.st39{fill:#558383;}
	.st40{fill:#5D8A85;}
</style>
<g id="XMLID_1_">
	<path id="XMLID_356_" class="st0" d="M143.481,0.019c1.176,0,2.353,0.019,3.528-0.011c0.36-0.009,0.488,0.063,0.421,0.427
		c-0.031,0.167-0.005,0.345-0.005,0.518c0,70.091-0.002,140.182,0.026,210.272c0,0.886-0.234,0.986-1.032,0.985
		c-48.468-0.022-96.937-0.023-145.405,0.003c-0.841,0-1.01-0.166-1.009-1.009C0.029,141.148,0.03,71.092,0,1.035
		C0,0.1,0.264,0,1.086,0c47.119,0.021,94.238,0.019,141.357,0.019c-0.091,0.649-0.723,0.426-1.068,0.666
		c-1.945,0.736-3.33,2.211-4.669,3.689c-2.224,2.455-4.322,5.02-6.185,7.768c-3.409,4.562-6.502,9.338-9.547,14.146
		c-0.627,0.99-1.264,1.976-1.825,3.007c-0.075,0.13-0.16,0.255-0.244,0.379c-3.378,5.634-6.563,11.373-9.587,17.206
		c-2.004,3.865-4.035,7.717-6.166,11.514c-1.487,2.522-3.011,5.022-4.576,7.497c-2.919,4.404-6.019,8.684-8.941,13.087
		c-2.308,3.14-4.446,6.398-6.675,9.593c-2.723,3.902-5.368,7.857-8.053,11.786c-1.631,2.511-3.381,4.942-4.984,7.471
		c-1.364,2.131-2.81,4.209-4.121,6.374c-0.225,0.297-0.437,0.604-0.638,0.918c-0.3,0.456-0.542,0.948-0.851,1.399
		c-0.158,0.223-0.313,0.449-0.436,0.695c-0.395,0.698-0.903,1.328-1.246,2.058c-1.053,1.704-2.098,3.413-3.088,5.154
		c-1.035,1.706-2.033,3.434-3.067,5.142c-0.094,0.169-0.188,0.338-0.288,0.504c-0.74,1.071-1.279,2.265-2.019,3.336
		c-0.754,1.247-1.478,2.511-2.23,3.759c-1.057,1.783-2.08,3.587-3.155,5.36c-0.862,1.37-1.651,2.784-2.462,4.185
		c-1.101,1.754-2.107,3.565-3.163,5.345c-1.525,2.724-3.211,5.354-4.735,8.079c-0.398,0.602-0.691,1.266-1.082,1.873
		c-0.684,1.109-1.29,2.274-2.267,3.173c-1.351,1.655-2.78,3.248-4.256,4.782c-1.911,1.986-3.697,4.093-5.714,5.976
		c-0.314,0.294-0.618,0.599-0.913,0.912c-3.46,3.825-7.245,7.331-10.808,11.053c-1.026,1.072-2.025,2.175-3.061,3.241
		c-2.877,2.584-5.57,5.358-8.306,8.087c-0.318,0.317-0.636,0.634-0.908,0.994c-0.656,1.472-0.608,3.032-0.587,4.588
		c0.12,1.14,0.36,2.248,0.907,3.269c1.072,1.824,2.749,2.727,4.757,3.13c0.932,0.089,1.851,0.307,2.795,0.268
		c3.186-0.045,6.264-0.749,9.331-1.512c2.047-0.594,4.047-1.329,6.051-2.056c1.447-0.526,2.531-1.525,3.473-2.67
		c0.658-0.801,1.393-1.517,2.102-2.263c1.069-1.11,2.015-2.325,2.978-3.525c1.338-1.585,2.645-3.195,3.924-4.828
		c1.382-1.795,2.816-3.55,4.153-5.38c1.399-1.844,2.804-3.683,4.16-5.559c1.23-1.528,2.328-3.154,3.501-4.725
		c0.197-0.263,0.433-0.496,0.605-0.78c0.462-0.726,1.009-1.391,1.507-2.092c0.548-0.837,1.148-1.636,1.761-2.424
		c1.905-2.446,3.074-5.292,4.376-8.061c1.172-2.493,2.535-4.895,3.577-7.451c3.665-7.187,7.124-14.478,10.992-21.561
		c1.424-2.352,2.697-4.791,4.141-7.132c3.38-5.23,7.141-10.188,10.852-15.182c6.705-9.017,13.461-17.997,19.918-27.197
		c5.564-7.927,10.981-15.948,15.863-24.319c3.413-5.853,6.7-11.777,9.888-17.756c2.765-5.186,5.463-10.406,8.125-15.646
		c0.313-0.616,0.645-1.224,0.884-1.876c1.069-2.346,2.471-4.529,3.385-6.952c1.955-2.97,2.042-6.378,2.285-9.749
		c0.204-1.194,0.17-2.39,0.023-3.585c-0.034-0.107-0.055-0.218-0.07-0.329c-0.093-1.132-0.218-2.26-0.533-3.357
		c-0.401-1.516-1.234-2.665-2.756-3.226C143.413,0.198,143.418,0.108,143.481,0.019z"/>
	<path id="XMLID_355_" class="st1" d="M141.206,0.486c0.412-0.156,0.825-0.312,1.237-0.467c0.346,0,0.692,0,1.038,0
		c-0.002,0.063,0.009,0.123,0.031,0.182c0.018,0.257,0.496,0.502,0.018,0.772c-0.434,0.04-0.858-0.103-1.292-0.066
		c-0.257-0.003-0.513-0.007-0.762-0.082C141.325,0.761,141.199,0.676,141.206,0.486z"/>
	<path id="XMLID_354_" class="st2" d="M141.407,0.646c0.275,0,0.551,0,0.826-0.001c0.429,0.239,0.851,0.483,0.794,1.08
		c-0.936,2.665-2.199,5.191-3.461,7.704c-0.787,1.568-1.578,3.13-2.283,4.736c-0.237,0.539-0.486,1.064-0.863,1.52
		c-0.524,0.753-1.258,1.39-1.318,2.399c-1.456,3.246-3.402,6.233-5.182,9.291c-1.335,2.295-2.245,4.792-3.747,7.011
		c-1.107,1.636-2.165,3.365-2.97,5.205c-0.083,0.19-0.229,0.375-0.185,0.581c0.129,0.605-0.127,0.88-0.701,1.021
		c-0.402,0.099-0.439,0.598-0.721,0.86c0.384-0.39,0.789-0.689,1.356-0.36c0.281,0.802-0.585,1.182-0.673,2.026
		c1.72-3.308,3.615-6.338,5.323-9.477c1.827-3.359,3.704-6.691,5.598-10.014c0.699-1.227,1.228-2.547,2.02-3.724
		c0.161-0.24,0.185-0.627,0.614-0.59c0.525,0.314,0.662-0.106,0.821-0.447c0.685-1.47,1.325-2.962,2.125-4.377
		c0.228-0.403,0.336-1.065,0.984-0.75c0.584,0.284,0.3,0.857,0.117,1.287c-0.733,1.717-1.135,3.552-1.884,5.262
		c-0.095,0.217-0.206,0.439-0.112,0.91c0.718-1.6,1.731-2.849,2.154-4.407c0.063-0.233,0.093-0.477,0.213-0.691
		c0.168-0.297,0.41-0.485,0.764-0.376c0.346,0.107,0.31,0.41,0.29,0.689c-0.062,0.851-0.432,1.604-0.83,2.326
		c-0.734,1.331-1.254,2.75-1.824,4.15c-0.15,0.367-0.216,0.715,0.031,1.08c0.426,0.631,0.293,1.235-0.118,1.828
		c-0.495,0.714-0.889,1.479-1.113,2.396c0.36-0.733,0.664-1.435,1.105-2.033c1.065-1.444,1.554-3.152,2.239-4.762
		c0.594-1.396,1.279-2.75,1.834-4.165c0.227-0.579,0.441-1.155,0.623-1.749c0.141-0.46,0.299-1.066,0.892-0.958
		c0.562,0.103,0.396,0.71,0.4,1.143c0.001,0.103-0.031,0.204-0.058,0.304c-0.67,1.353-1.166,2.774-1.662,4.196
		c-0.07,0.2-0.147,0.395-0.064,0.6c0.588,1.443-0.016,2.686-0.886,3.699c-0.718,0.836-0.577,1.656-0.515,2.55
		c-3.113,6.414-6.485,12.695-9.775,19.018c-10.677,20.516-23.729,39.485-37.577,57.941c-2.464,3.284-4.931,6.565-7.396,9.847
		c-0.134-0.034,0.001-0.033-0.099,0.008c-0.438,0.178-0.725-0.738-1.048-0.244c-0.353,0.539-1.067,0.957-0.868,1.781
		c0.095,0.392-0.009,0.738-0.434,0.787c-1.379,0.159-1.826,1.351-2.547,2.235c-0.835,1.024-1.55,2.139-2.375,3.173
		c-0.58,0.727-0.972,1.581-1.362,2.421c-0.293,0.632-0.59,1.216-1.203,1.631c-0.48,0.325-0.898,0.798-1.099,1.347
		c-0.298,0.818-0.847,1.405-1.476,1.951c-0.501,0.365-0.907,1.029-1.687,0.477c-0.199-0.141-0.384,0.052-0.489,0.25
		c-0.096,0.183-0.161,0.382-0.283,0.552c-0.568,0.796-1.033,1.774-2.382,1.293c0.317,0.143,0.684-0.072,0.843,0.3
		c0.134,0.315,0.052,0.607-0.096,0.892c-0.348,0.672-0.633,1.384-1.201,1.915c-0.228,0.537,0.16,0.578,0.518,0.644
		c0.281,0.077,0.409,0.267,0.406,0.553c-0.045,0.332-0.247,0.558-0.503,0.748c-1.036-0.081-1.455,0.596-1.83,1.411
		c-0.529,1.151-1.23,2.212-1.852,3.315c-0.522,0.632-0.473,1.489-0.871,2.178c-0.327,0.565-0.636,1.133-1.129,1.574
		c-0.614,0.523-0.637,1.373-1.093,1.984c-0.062,0.077-0.137,0.14-0.221,0.191c-0.816,0.041-1.049-0.199-0.84-0.874
		c0.094-0.302,0.302-0.542,0.465-0.806c0.36-0.584,0.696-1.102,0.312-1.892c-0.286-0.588,0.029-1.313,0.401-1.86
		c0.423-0.623,0.525-1.24,0.357-1.96c-0.245-1.048,0.351-1.937,0.625-2.883c0.066-0.226,0.284-0.468,0.507-0.489
		c1.208-0.115,1.501-1.203,1.919-1.978c0.935-1.733,2.019-3.372,3-5.074c0.218-0.378,0.378-0.641-0.113-0.921
		c-0.323-0.184-0.341-0.511-0.151-0.814c0.204-0.326,0.492-0.513,0.869-0.27c0.71,0.457,0.851-0.21,1.032-0.578
		c0.204-0.416,0.953-0.835,0.198-1.385c-0.374-0.272-0.344-0.559-0.145-0.893c0.235-0.395,0.507-0.772,1.019-0.784
		c0.431-0.01,0.394,0.403,0.543,0.757c1.183-1.847,2.64-3.43,3.787-5.221c1.316-2.055,3.075-3.73,4.526-5.662
		c0.807-1.075,1.536-2.21,2.437-3.213c0.479-0.534,0.893-1.179,1.795-0.947c0.348,0.089,0.569-0.203,0.774-0.426
		c0.509-0.553,0.945-1.165,1.369-1.784c-0.437,0.52-0.928,0.992-1.304,1.563c-0.21,0.319-0.515,0.676-0.925,0.372
		c-0.421-0.312-0.267-0.767,0.011-1.105c0.459-0.559,0.981-1.06,1.389-1.669c0.806-1.206,1.616-2.41,2.412-3.623
		c0.29-0.442,0.436-0.912,0.458-1.456c0.037-0.899,0.156-1.797,0.785-2.638c-0.635,0.333-0.629,0.337-0.889,0.796
		c-2.033,3.586-4.413,6.921-7.187,9.972c-0.468,0.515-0.846,1.09-1.21,1.68c-0.162,0.262-0.397,0.55-0.755,0.367
		c-0.404-0.207-0.318-0.579-0.151-0.903c0.221-0.428,0.375-0.913,0.759-1.226c0.593-0.483,0.956-1.081,1.081-1.83
		c0.093-0.556,0.524-0.911,0.884-1.25c1.49-1.405,2.508-3.086,3.203-4.998c0.381-1.047,1.231-1.815,1.806-2.758
		c0.834-1.366,1.369-2.969,2.781-3.95c0.247-0.172,0.494-0.486,0.337-1.025c-0.645,0.809-1.192,1.586-1.823,2.283
		c-1.087,1.2-1.541,2.756-2.43,4.057c-1.304,1.909-2.599,3.827-4.189,5.521c-0.475,0.506-0.876,1.068-1.261,1.643
		c-0.246,0.367-0.504,0.89-1.036,0.491c-0.519-0.388-0.117-0.82,0.155-1.159c1.361-1.699,2.632-3.463,3.874-5.249
		c1.007-1.449,1.888-2.964,2.615-4.573c0.151-0.334,0.135-0.498-0.187-0.638c-0.133-0.302,0.024-0.532,0.193-0.753
		c1.294-1.691,2.434-3.482,3.475-5.338c1.173-1.713,2.061-3.608,3.256-5.294c1.014-1.431,1.821-2.988,2.882-4.393
		c0.667-0.883,0.966-2.042,1.449-3.069c0.886-1.885,2.407-3.392,3.086-5.388c0.097-0.285,0.33-0.583,0.711-0.433
		c0.364,0.143,0.489,0.477,0.439,0.853c-0.046,0.343-0.206,0.659-0.26,1.002c-0.167,0.582-0.376,1.148-0.684,1.672
		c-0.268,0.358-0.543,0.712-0.668,1.161c0.25-0.374,0.492-0.753,0.731-1.135c0.575-1.214,1.282-2.348,2.047-3.448
		c0.219-0.315,0.439-0.619,0.853-0.688c0.676,0.061,0.71,0.54,0.503,0.974c-0.79,1.656-1.234,3.5-2.169,5.036
		c-1.212,1.991-2.139,4.178-3.716,5.944c-0.088,0.099-0.137,0.238-0.034,0.685c2.109-3.237,3.724-6.518,5.615-9.629
		c0.985-1.496,2.044-2.98,2.793-4.584c1.596-3.417,3.813-6.467,5.509-9.816c0.584-1.153,1.574-2.069,2.064-3.462
		c-0.7,0.673-0.884,1.494-1.394,2.099c-0.212,0.251-0.389,0.678-0.803,0.464c-0.38-0.196-0.199-0.584-0.161-0.928
		c0.134-1.22,1.07-2.059,1.453-3.156c0.091-0.259,0.246-0.499,0.25-0.784c0.004-0.248-0.029-0.513-0.242-0.653
		c-0.23-0.152-0.348,0.121-0.513,0.22c-0.701,0.418-0.859,0.33-0.994-0.544c0.701-0.94,0.994-2.015,1.121-3.168
		c0.158-1.436,1.128-2.145,2.606-1.968c0.306,0.037,0.601,0.158,0.92,0.084c0.656-0.153,1.112-0.456,0.862-1.223
		c-0.51-1.563,0.26-2.991,0.49-4.467c0.145-0.93,0.799-0.978,1.814-0.238c-0.68-0.681-0.446-1.31,0.022-1.934
		c0.147-0.195,0.287-0.426,0.238-0.669c-0.184-0.913,0.147-1.529,0.977-1.94c0.366-0.181,0.332-0.48,0.035-0.751
		c-0.237-0.216-0.386-0.487-0.426-0.809c-0.05-0.406,0.03-0.765,0.418-0.98c0.373-0.207,0.736-0.204,1.03,0.14
		c0.182,0.214,0.329,0.46,0.79,0.31c-0.55-0.34-0.539-0.834-0.561-1.362c-0.027-0.63,0.201-0.992,0.705-1.361
		c0.588-0.431,0.503-1.123,0.205-1.705c-0.411-0.805-0.4-1.586-0.091-2.402c0.294-0.78,0.274-1.636,0.582-2.415
		c0.086-0.218,0.24-0.465-0.046-0.645c-0.223-0.14-0.497-0.111-0.696,0.017c-0.743,0.477-1.377,1.054-1.468,2.009
		c-0.089,0.927-0.593,1.524-1.437,1.857c-0.381,0.15-0.748,0.195-0.971-0.264c2.816-4.861,5.949-9.517,9.14-14.135
		c0.723-1.046,1.497-2.058,2.248-3.085c0.652-0.366,1.019-1.018,1.532-1.524c0.192-0.19,0.37-0.465,0.693-0.287
		c0.296,0.163,0.273,0.472,0.206,0.741c-0.131,0.53-0.271,1.039,0.483,1.208c0.063,0.014,0.142,0.077,0.149,0.135
		c0.104,0.818,0.104,1.633,1.202,1.906c0.291,0.072-0.045,0.669-0.233,0.995c-1.486,2.569-3.15,5.033-4.602,7.617
		c-1.403,2.495-2.532,5.14-3.876,7.672c-0.167,0.315-0.288,0.675-0.077,1.087c0.488-1.218,1.146-2.331,1.771-3.465
		c1.496-2.713,2.99-5.42,4.682-8.023c0.639-0.983,0.946-2.177,1.617-3.202c1.412-2.156,2.556-4.48,3.966-6.64
		c1.332-2.041,2.052-4.362,3.079-6.542c0.176-0.375,0.319-0.766,0.513-1.133c0.226-0.427,0.344-0.814-0.111-1.199
		C140.99,1.128,141.031,0.84,141.407,0.646z"/>
	<path id="XMLID_353_" class="st3" d="M24.935,175.85c2.965-3.198,5.931-6.394,8.892-9.595c0.369-0.399,0.713-0.82,1.069-1.231
		c0.128,0.103,0.171,0.242,0.173,0.399c-0.412,1.045-1.202,1.816-1.907,2.649c-0.076,0.047-0.039,0.023,0.045,0.054
		c1.056,0.389,1.47-0.255,2.048-1.012c0.936-1.223,1.884-2.444,2.843-3.653c1.174-1.337,1.629-3.091,2.581-4.489
		c-0.299,0.185-0.377,0.955-0.88,0.713c-0.556-0.268-0.074-0.818,0.056-1.185c0.478-1.357,1.373-2.484,2.33-3.51
		c0.872-0.935,1.446-2.099,2.415-2.942c0.427-0.229,0.572-0.677,0.813-1.049c0.159-0.246,0.357-0.441,0.675-0.382
		c0.336,0.063,0.454,0.338,0.414,0.625c-0.114,0.824,0.471,0.938,1.074,1.129c-0.931-1.28-0.932-1.281,0.237-2.417
		c0.175-0.17,0.345-0.348,0.443-0.57c0.702-1.592,1.81-2.899,2.93-4.199c0.316-0.366,0.632-0.742,0.825-1.189
		c0.182-0.42,0.415-0.7,0.922-0.661c0.465,0.036,0.612-0.367,0.854-0.654c0.581-0.689,1.145-1.43,2.234-1.17
		c0.361,0.086,0.586-0.131,0.763-0.411c0.392-0.621,0.572-1.331,0.841-2.004c0.202-0.504-0.252-0.646-0.535-0.871
		c-0.927-0.738-0.92-0.836-0.46-1.903c0.639-1.481,1.376-2.863,2.809-3.75c0.439-0.272,0.346-0.698,0.192-1.115
		c-0.223-0.603-0.063-1.187,0.483-1.436c1.56-0.712,2.154-2.186,2.845-3.538c0.597-1.168,1.249-2.301,1.875-3.451
		c1.346-2.174,2.551-4.433,3.942-6.58c0.056-0.087,0.103-0.181,0.166-0.263c0.25-0.323,0.491-0.786,0.976-0.549
		c0.42,0.206,0.284,0.67,0.166,1.027c-0.258,0.781-0.206,1.645-0.761,2.335c0.433,0.201,0.922-0.192,1.129,0.279
		c0.197,0.448-0.154,0.771-0.39,1.11c-0.906,1.301-1.853,2.572-2.727,3.894c-2.076,3.143-3.988,6.381-5.693,9.742
		c-0.937,1.847-1.754,3.752-2.792,5.552c-0.273,0.474-0.61,1.102-0.128,1.707c0.079,0.064,0.121,0.147,0.129,0.247
		c-0.268,1.13-0.901,2.088-1.481,3.066c-0.232,0.391-0.427,1.03-1.039,0.763c-0.634-0.277-0.163-0.837-0.121-1.398
		c-0.805,1.133-0.89,2.496-1.67,3.52c0.38-0.338,0.588-0.768,0.723-1.251c0.1-0.356,0.318-0.67,0.741-0.538
		c0.423,0.133,0.382,0.521,0.325,0.875c-0.061,0.381-0.197,0.738-0.398,1.063c-0.35,0.565-0.65,1.141-0.667,1.827
		c-0.004,0.173-0.05,0.357-0.164,0.486c-0.697,0.784-1.187,1.693-1.652,2.623c-0.136,0.272-0.344,0.585-0.72,0.43
		c-0.351-0.145-0.328-0.487-0.272-0.809c0.121-0.693,0.531-1.272,0.817-2.089c-0.557,0.963-0.846,1.94-2.032,2.08
		c-0.433,0.051-0.437,0.476-0.188,0.821c0.368,0.511,0.309,1.049,0.084,1.579c-0.225,0.532-0.495,1.038-1.232,0.7
		c-0.394-0.181-0.581,0.079-0.723,0.373c-0.155,0.32-0.298,0.665,0.153,0.88c0.709,0.339,0.461,0.816,0.189,1.289
		c-0.652,1.135-1.317,2.263-1.99,3.386c-1.187,1.981-2.296,4.008-3.546,5.951c-1.755,2.727-3.502,5.461-5.477,8.038
		c-0.622,0.813-1.172,1.707-2.117,2.218c-0.753-0.372-0.329-0.852-0.083-1.267c0.743-1.254,1.774-2.287,2.696-3.402
		c0.968-1.171,1.485-2.607,2.453-3.798c-0.426-0.21-0.554-0.009-0.654,0.153c-1.823,2.937-4.129,5.505-6.244,8.22
		c-1.736,2.23-3.553,4.394-5.274,6.634c-0.529,0.689-1.21,1.229-1.74,1.915c-0.225,0.291-0.578,0.416-0.898,0.087
		c-0.276-0.283-0.183-0.601,0.059-0.83c2.295-2.165,3.755-4.994,5.883-7.314c1.641-1.79,3.163-3.744,4.506-5.802
		c0.181-0.277,0.359-0.558,0.424-0.827c-4.694,4.635-7.736,10.598-12.195,15.465c0.356-0.169,0.638-0.553,1.03-0.222
		c0.376,0.317,0.101,0.694-0.036,1.042c-0.152,0.388-0.455,0.691-0.612,1.083c0.241,0.232,0.395,0.027,0.502-0.117
		c1.214-1.631,2.729-3.002,4.001-4.57c1.366-1.685,2.832-3.299,4.035-5.113c0.269-0.406,0.542-0.805,0.897-1.136
		c0.322-0.3,0.662-0.386,0.942,0.075c0.199,0.961-0.775,1.355-1.015,2.105c-0.255,0.368-0.594,0.659-0.894,0.986
		c-1.202,1.674-2.559,3.221-3.893,4.788c-0.308,0.362-0.437,0.719,0.219,0.902c0.406,0.113,0.776,0.321,0.704,0.858
		c-0.583,0.408-1.342,0.501-1.853,1.045c-0.089,0.095-0.311,0.146-0.388,0.07c-0.838-0.82-1.158,0.116-1.449,0.521
		c-0.505,0.704-1.031,1.352-1.716,1.887c-0.311,0.243-0.631,0.507-0.096,0.976c0.429,0.376,0.154,0.948-0.466,0.993
		c-1.167,0.084-1.972,0.694-2.617,1.597c-0.223,0.312-0.526,0.546-0.786,0.822c-0.979,1.041-2.268,1.839-2.643,3.364
		c-0.075,0.304-0.361,0.498-0.594,0.705c-0.258,0.229-0.638,0.434-0.711,0.736c-0.328,1.354-1.623,1.415-2.531,1.987
		c-0.24,0.151-0.53,0.229-0.773,0.012c-0.295-0.264-0.182-0.574,0.004-0.84c0.535-0.761,0.372-1.421-0.258-2.028
		c-0.087-0.791,0.695-1.108,0.828-1.483c-0.011,0.592-1.667,0.391-1.149,1.646c-0.107,0.695-0.713,1.282-0.439,2.062
		c0.035,0.099-0.023,0.244-0.103,0.274c-0.973,0.366-0.88,1.577-1.686,2.098c-0.416,0.269-0.449,0.717-0.169,1.183
		c0.517,0.862,0.452,1.009-0.525,1.486c-0.508-0.443-0.775-0.084-1.031,0.312c-1.073,0.864-2.117,1.761-3.113,2.712
		c-0.225,0.214-0.467,0.411-0.728,0.577c-0.389,0.249-0.843,0.746-1.245,0.2c-0.373-0.507,0.141-0.867,0.521-1.169
		c0.188-0.15,0.393-0.279,0.593-0.413c0.575-0.355,0.937-0.902,1.315-1.44c0.477-0.68,0.988-1.337,1.791-1.668
		c0.272-0.112,0.485-0.263,0.546-0.567c0.155-0.781,0.776-1.292,1.131-1.957c0.151-0.282,0.305-0.588,0.1-0.875
		c-0.247-0.345-0.555-0.115-0.832,0.006c-0.313,0.137-0.682,0.389-0.934,0.031c-0.211-0.3,0.136-0.561,0.316-0.799
		c0.229-0.302,0.44-0.621,0.743-0.859c0.198-0.155,0.39-0.332,0.254-0.607c-0.313-0.631-0.15-1.167,0.376-1.553
		c0.55-0.404,1.04,0.021,1.53,0.24c0.098,0.098,0.173,0.218,0.284,0.305c-0.062-0.11-0.178-0.17-0.249-0.275
		c-0.069-0.28,0.108-0.549,0.042-0.822c-0.13-0.538,0.053-0.715,0.618-0.757c0.98-0.073,1.363-0.536,1.357-1.573
		c-0.005-0.704,0.146-1.17,0.976-1.069c0.138,0.017,0.315,0.026,0.402-0.062c0.742-0.752,1.477-1.512,2.042-2.415
		c0.038-0.061,0.066-0.155,0.023-0.192c-0.294-0.254-0.77-0.393-0.551-0.949c0.15-0.382,0.426-0.715,0.467-1.401
		c-0.985,1.133-2.108,1.892-2.412,3.289c-0.096,0.443-0.385,0.717-0.723,0.971c-1.06,0.797-1.954,1.742-2.568,2.931
		c-0.096,0.186-0.208,0.368-0.375,0.491c-1.066,0.79-1.913,1.782-2.691,2.844c-0.293,0.4-0.676,0.83-1.198,0.432
		c-0.585-0.447-0.236-1.006,0.144-1.33c1.222-1.04,2.174-2.294,3.169-3.65c-0.308-0.171-0.749,0.028-0.875-0.374
		c-0.104-0.334,0.069-0.601,0.179-0.889c0.506-1.32,1.584-2.165,2.598-3.038c0.557-0.479,0.832-0.27,1.186,0.749
		c0.034-0.001,0.088,0.011,0.098-0.005c0.886-1.412,2.156-2.558,2.879-4.072c0.302-0.632,0.884-0.952,1.285-1.467
		c0.911-1.171,1.776-2.385,2.866-3.406c0.202-0.189,0.388-0.396,0.617-0.552c0.239-0.163,0.5-0.271,0.772-0.102
		c0.309,0.192,0.191,0.474,0.12,0.742c-0.099,0.37-0.273,0.708-0.435,1.052c-0.088,0.187-0.298,0.405-0.226,0.563
		c0.469,1.028-0.232,1.829-0.526,2.801c0.484-0.309,0.658-0.739,0.883-1.136c0.238-0.418,0.471-0.861,1.045-0.895
		c0.167,0.205,0.315,0.486,0.604,0.125c0.508-0.635,1.119-1.179,1.731-1.893c-0.498,0.161-0.574,0.55-0.808,0.787
		c-0.243,0.246-0.393,0.704-0.891,0.43c-0.148-0.159,0.182-0.788-0.456-0.465c-0.612,0.31-0.768-0.115-0.784-0.555
		c-0.041-1.088-0.429-2.237,0.561-3.17c0.36-0.339,0.445-0.849,0.396-1.353c-0.078-0.804,0.095-1.483,0.814-1.983
		C25.386,176.882,25.399,176.368,24.935,175.85z"/>
	<path id="XMLID_352_" class="st4" d="M11.033,206.378c0.464-0.417,1.409-0.76,0.129-1.383c-0.293-0.142,0.117-1.374,0.518-1.509
		c0.376-0.127,0.642-0.243,0.472-0.709c-0.031-0.084-0.018-0.265,0.025-0.284c1.397-0.612,0.828-2.309,1.759-3.172
		c0.079-0.186,0.188-0.311,0.413-0.211c0.93,0.437,1.154,1.314,0.518,2.122c-0.153,0.195-0.395,0.373-0.223,0.611
		c0.233,0.322,0.478,0.067,0.706-0.082c0.458-0.298,0.886-0.668,1.499-0.591c0.183,0.023,0.369-0.088,0.371-0.282
		c0.01-0.984,0.842-1.36,1.398-1.94c0.117-0.122,0.308-0.231,0.337-0.372c0.369-1.805,1.926-2.65,3.062-3.836
		c0.646-0.674,1.065-1.527,2.03-1.943c0.351-0.151,0.583-0.329,0.959-0.199c0.352,0.122,0.647,0.027,0.712-0.357
		c0.069-0.407-0.222-0.301-0.47-0.273c-0.307,0.035-0.312-0.216-0.29-0.42c0.013-0.129,0.066-0.289,0.158-0.37
		c1.309-1.155,2.328-2.581,3.482-3.873c0.426,0.303-0.181,0.781,0.276,0.941c0.459,0.161,0.72-0.26,0.904-0.544
		c0.369-0.57,0.986-0.106,1.387-0.425c0.064,0.025,0.129,0.048,0.192,0.075c0.445,0.191,0.817-0.674,1.189-0.175
		c0.374,0.502,0.72,1.088,0.673,1.784c-0.069,0.344-0.247,0.642-0.404,0.949c-0.123,0.241-0.328,0.497-0.024,0.736
		c0.296,0.233,0.602,0.139,0.842-0.097c0.763-0.748,1.621-1.419,2.192-2.333c0.611-0.978,1.614-1.603,2.219-2.582
		c0.159-0.257,0.483-0.478,0.793-0.211c0.286,0.246,0.162,0.583-0.013,0.851c-0.567,0.868-1.334,1.575-1.962,2.397
		c-0.401,0.525-0.823,1.028-0.95,1.695c-0.064,0.339-0.217,0.585-0.553,0.676c-0.887,0.24-1.239,1.028-1.847,1.676
		c0.823,0.402,1.315,0.044,1.753-0.483c0.355-0.427,0.669-0.915,1.362-0.587c0.272,0.129,0.49-0.051,0.579-0.288
		c0.229-0.61,0.788-1.099,0.955-1.62c0.249-0.779,0.777-0.875,1.383-1.117c-0.061-0.416-0.667-0.695-0.323-1.183
		c0.36-0.51,0.896-0.604,1.463-0.615c0.31-0.006,0.622-0.021,0.921,0.092c0.088,0.044,0.155,0.111,0.203,0.197
		c-0.242,0.743-0.659,1.434-0.669,2.247c-1.28,1.88-2.683,3.665-4.156,5.395c-0.267,0.019-0.436,0.202-0.598,0.377
		c-1.551,1.673-3.429,2.966-5.178,4.403c-1.805,1.484-3.459,3.163-5.472,4.389c-0.425,0.259-0.745,0.575-0.659,1.174
		c0.059,0.413-0.121,0.801-0.661,0.623c-1.089-0.359-1.9,0.284-2.72,0.773c-0.385,0.23-0.708,0.496-1.181,0.561
		c-1.459,0.198-1.793,0.57-1.949,2.06c-0.036,0.341,0.005,0.697-0.216,0.997c-0.513,0.115-0.429-0.316-0.5-0.573
		c-0.119-0.429-0.09-0.883-0.209-1.383c-0.206,0.731-0.753,0.953-1.392,1.117c-1.114,0.286-1.849,1.319-2.992,1.576
		c-0.198,0.045-0.376,0.172-0.58,0.216c-0.208,0.044-0.423,0.057-0.581-0.11c-0.213-0.225-0.082-0.44,0.053-0.651
		c0.418-0.657,0.585-1.439,1.15-2.082c-0.536-0.077-0.775,0.277-1.098,0.433c-0.745,0.36-1.453,0.75-2.355,0.531
		c-0.718-0.174-1.118,0.6-1.744,0.766c-0.093,0.043-0.19,0.069-0.291,0.079c-0.314-0.025-0.452-0.194-0.416-0.506
		c0.446-0.75,1.075-1.32,1.81-1.767c0.388-0.236,0.69-0.554,1.004-0.866C10.473,206.706,10.688,206.437,11.033,206.378z"/>
	<path id="XMLID_351_" class="st2" d="M58.777,141.395c-0.543,0.094-0.943,0.286-0.569-0.649c1.359-3.395,3.189-6.546,4.804-9.808
		c1.291-2.607,3.032-4.906,4.521-7.373c0.733-1.214,1.493-2.452,2.488-3.503c0.184-0.194,0.428-0.492,0.265-0.727
		c-0.218-0.314-0.481-0.017-0.704,0.126c-0.189,0.12-0.396,0.184-0.546-0.031c-0.126-0.181-0.136-0.448,0.016-0.581
		c0.733-0.644,0.421-1.639,0.836-2.385c0.12-0.215,0.197-0.537-0.024-0.667c-0.315-0.184-0.498,0.146-0.633,0.368
		c-0.696,1.146-1.32,2.341-2.072,3.448c-0.775,1.14-1.249,2.459-2.154,3.514c-0.24-0.087-0.415-0.245-0.522-0.478
		c-0.094-0.417,0.191-0.709,0.332-1.055c0.972-2.384,2.639-4.347,3.945-6.527c0.192-0.32,0.465-0.6,0.536-1.133
		c-0.827,0.645-1.139,1.533-1.664,2.253c-0.284,0.389-0.487,0.839-0.825,1.188c-0.207,0.213-0.45,0.534-0.776,0.288
		c-0.285-0.215-0.194-0.574-0.046-0.858c0.384-0.735,0.82-1.44,1.269-2.136c0.128-0.198,0.341-0.351,0.348-0.852
		c-0.541,0.862-1.005,1.536-1.371,2.282c-0.394,0.805-0.746,1.631-1.264,2.373c-0.298,0.427-0.601,0.905-0.465,1.44
		c0.342,1.34-0.564,2.223-1.143,3.206c-0.373,0.632-0.9,0.21-1.354-0.012c-0.267-0.456-0.504-0.923-0.533-1.465
		c0.197-0.895,0.72-1.659,1.015-2.514c0.255-0.784,0.806-1.384,1.263-2.042c0.954,0.315,0.291-0.388,0.386-0.614
		c0.204-0.527,0.511-0.989,0.881-1.413c0.426-0.142,0.532-0.485,0.554-0.881c1.326-2.197,2.685-4.372,4.2-6.446
		c0.264,0.961-0.476,1.574-0.832,2.31c-0.234,0.483-0.643,0.879-0.88,1.616c1.696-2.028,3.452-3.731,4.871-5.727
		c0.756-1.063,1.587-2.067,2.468-3.031c0.689-0.052,0.736,0.351,0.599,0.865c-0.337,1.264-1.099,2.31-1.934,3.25
		c-0.828,0.933-1.548,1.927-2.374,3.003c0.715-0.372,0.755-0.359,0.952-1.003c0.171-0.559,0.539-0.865,1.04-1.066
		c0.328-0.132,0.684-0.255,0.937,0.106c0.227,0.325,0.102,0.653-0.089,0.967c-0.265,0.435-0.855,0.601-0.997,1.243
		c1.111-0.653,1.377-1.848,2.112-2.722c-0.326-0.186-0.885,0.177-0.946-0.363c-0.062-0.558,0.434-0.91,0.709-1.337
		c0.163-0.253,0.489-0.42,0.712-0.206c0.889,0.852,1.225-0.045,1.557-0.529c0.879-1.28,1.683-2.614,2.581-3.88
		c1.138-1.604,2.026-3.366,3.208-4.937c0.27-0.359,0.451-1.01,1.139-0.613c0.185,0.107,0.075-0.009,0.08-0.067
		c0.14-1.592,0.763-2.866,2.318-3.532c0.27-0.115,0.445-0.355,0.533-0.612c0.346-1.02,1.071-1.849,1.398-2.881
		c0.257-0.811,0.919-1.367,1.406-2.033c0.98-1.338,1.949-2.683,2.757-4.136c0.136-0.244,0.292-0.472,0.584-0.557
		c0.209-0.046,0.408-0.03,0.591,0.093c0.301,0.405,0.026,0.731-0.185,1.023c-1.124,1.56-2.025,3.266-3.182,4.805
		c-0.6,0.798-0.779,1.83-1.351,2.653c-1.228,2.36-2.983,4.381-4.308,6.68c-0.206,0.357-0.52,0.672-0.194,1.112
		c0.028,1.225-0.854,2.067-1.335,3.069c-0.676,1.407-1.824,2.509-2.739,3.764c-2.44,3.348-5.01,6.595-7.737,9.719
		c-0.814,0.932-1.496,1.982-2.085,3.091c0.618-0.776,1.125-1.632,1.808-2.364c1.342-1.438,2.495-3.042,3.806-4.51
		c0.347-0.388,0.733-1.132,1.283-0.695c0.553,0.44-0.072,1.002-0.389,1.412c-1.113,1.439-2.332,2.793-3.578,4.366
		c0.725-0.325,0.693-1.318,1.531-1.139c0.387,0.083,0.255,0.419,0.232,0.762c0.671-0.764,1.227-1.541,1.926-2.188
		c0.271-0.25,0.557-0.675,0.943-0.303c0.345,0.333,0.049,0.708-0.198,1.004c-0.864,1.034-1.72,2.075-2.574,3.118
		c-0.6,0.733-0.855,0.682-1.248-0.177c-0.555,0.469-0.897,1-0.773,1.793c0.068,0.434-0.104,0.891-0.32,1.292
		c-0.134,0.249-0.46,0.571-0.635,0.381c-0.648-0.703-0.74,0.001-0.975,0.326c-0.265,0.367-0.512,0.853-1.049,0.592
		c-0.528-0.257,0.023-0.696-0.034-1.124c-2.836,4.131-5.583,8.234-7.878,12.621c-1.359,2.597-2.649,5.227-3.878,7.888
		C59.066,141.107,58.977,141.294,58.777,141.395z"/>
	<path id="XMLID_350_" class="st5" d="M118.909,29.258c1.13,0.303,2.054-0.401,2.151-1.64c0.082-1.049,1.233-2.371,2.148-2.388
		c0.568-0.01,0.989,0.105,0.697,0.925c-0.412,1.156-0.669,2.368-0.96,3.564c-0.081,0.334,0.045,0.652,0.216,0.979
		c0.661,1.266,0.515,1.65-0.624,2.601c-0.456,0.381,0.124,1.016-0.178,1.533c-0.12,0.204,0.165,0.395,0.473,0.337
		c0.234-0.044,0.42,0.083,0.438,0.323c0.02,0.267-0.158,0.323-0.407,0.311c-0.418-0.021-1.127,0.759-1.1-0.442
		c0.004-0.185-0.298-0.278-0.517-0.211c-0.264,0.081-0.535,0.179-0.583,0.511c-0.052,0.361,0.02,0.701,0.274,0.963
		c0.799,0.824,0.808,0.853-0.27,1.402c-0.553,0.282-0.779,0.657-0.529,1.253c0.168,0.401,0.032,0.702-0.222,1.039
		c-0.343,0.455-1.016,0.937-0.019,1.491c0.292,0.162,0.08,0.629-0.163,0.806c-0.324,0.237-0.586-0.015-0.711-0.317
		c-0.102-0.248-0.078-0.609-0.486-0.493c-0.312,0.089-0.558,0.336-0.565,0.673c-0.033,1.61-1.023,3.141-0.305,4.829
		c0.256,0.601-0.937,1.304-1.772,1.088c-1.686-0.436-2.529,0.137-2.732,1.817c-0.132,1.093-0.29,2.19-1.231,2.952
		c-1.847,0.877-3.096,2.359-4.068,4.094c-1.125,2.009-2.554,3.834-3.551,5.921c-0.251,0.525-0.623,1.002-0.445,1.642
		c0.083,0.3-0.008,0.599-0.299,0.691c-1.031,0.326-1.283,1.271-1.717,2.075c-0.595,1.131-1.206,2.251-1.918,3.316
		c-0.386,0.578-0.597,1.234-0.649,1.948c-0.037,0.513-0.138,1.039-0.638,1.355c-0.435,0.07-0.85,0.014-1.242-0.193
		c-0.255-0.273-0.214-0.587-0.045-0.86c0.563-0.906,0.921-1.935,1.631-2.748c0.382-0.438,0.465-0.925,0.559-1.491
		c0.28-1.693,0.659-3.391,2.305-4.387c0.256-0.155,0.434-0.355,0.443-0.653c0.043-1.433,0.731-2.616,1.523-3.853
		c-0.95,0.752-1.337,1.731-1.739,2.724c-0.567,1.4-1.692,2.416-2.631,3.555c-0.242,0.293-0.481,0.824-0.965,0.565
		c-0.476-0.254-0.191-0.728-0.084-1.115c1.516-2.491,3.032-4.981,4.548-7.472c0.914-0.138,1.208-0.842,1.407-1.595
		c0.234-0.882,0.657-1.576,1.541-1.946c0.444-0.186,0.852-0.273,0.967,0.307c0.137,0.692,0.438,0.071,0.645,0.124
		c0.602,0.09,0.815-0.381,1.117-0.751c1.052-1.289,1.509-2.919,2.632-4.413c-0.367,0.326-0.507,0.666-0.864,0.396
		c-0.254-2.353,0.888-4.226,2.141-6.033c0.73-1.053,1.19-2.244,1.892-3.314c0.7-1.067,1.435-2.133,1.825-3.402
		c0.193-0.63,0.423-1.125-0.036-1.716c-0.476-0.613-0.362-1.106,0.355-1.509c1.487-0.836,2.006-2.361,2.591-3.823
		c0.191-0.477-0.352-0.716-0.407-1.119C118.805,29.411,118.857,29.335,118.909,29.258z"/>
	<path id="XMLID_349_" class="st6" d="M98.401,65.755c0.086,0.322-0.084,0.689,0.262,1.102c1.29-1.774,3.086-3.095,3.601-5.402
		c0.153-0.687,0.946-1.234,1.459-1.835c0.107-0.125,0.299-0.254,0.432-0.052c0.175,0.266,0.078,0.535-0.126,0.753
		c-0.699,0.745-1.079,1.655-1.338,2.619c-0.088,0.327-0.085,0.68-0.105,1.022c-0.017,0.28,0.004,0.596-0.294,0.724
		c-1.343,0.574-1.852,1.607-2.074,3.03c-0.312,1.993-1.489,3.662-2.529,5.355c-0.169,0.275-0.325,0.524-0.294,0.854
		c-0.082,0.653-0.324,1.259-0.191,1.976c0.096,0.515-0.484,0.945-0.861,1.343c-0.355,0.375-0.766,0.69-1.157,1.023
		c0.384,1.617-0.816,2.587-1.53,3.755c-1.243,2.014-2.593,3.948-4.012,5.848c-0.861,1.153-1.342,2.589-2.002,3.894
		c-0.12,0.238-0.186,0.572-0.508,0.606c-1.643,0.174-1.517,1.868-2.351,2.737c-0.21,0.218,0.281,0.484,0.217,0.735
		c-0.061,0.239-0.28,0.437-0.422,0.643c-0.51-0.233,0.045-0.592-0.263-0.907c-0.71,0.982-1.537,1.881-2.078,2.927
		c-1.079,2.087-2.593,3.878-3.787,5.88c-0.403,0.675-0.792,1.364-1.436,1.854c-0.282,0.214-0.604,0.514-0.777-0.066
		c-0.241-0.808-0.478-0.496-0.762-0.04c-0.145,0.233-0.314,0.45-0.473,0.674c-0.096,0.135-0.262,0.271-0.09,0.441
		c0.148,0.147,0.322,0.068,0.472-0.025c0.224-0.139,0.476-0.453,0.706-0.148c0.203,0.269-0.157,0.502-0.305,0.695
		c-0.667,0.866-0.994,1.979-1.917,2.657c-0.178,0.131-0.306,0.47-0.584,0.265c-0.275-0.202-0.142-0.487-0.021-0.751
		c0.123-0.267,0.334-0.417,0.564-0.581c0.36-0.257,0.764-0.517,0.708-1.058c-0.02-0.194-0.165-0.354-0.348-0.282
		c-0.495,0.194-1.208,0.247-1.252,0.908c-0.064,0.949-0.722,1.243-1.393,1.619c-0.149-0.343-0.181-0.685,0.05-0.911
		c0.909-0.889,1.574-1.98,2.411-2.932c0.786-0.896,1.589-1.943,1.858-3.218c0.089-0.421-0.178-0.455-0.467-0.493
		c0.023-0.632,0.214-1.175,0.807-1.5c0.325,0.515,0.628,0.609,0.894-0.046c0.198-0.487,0.451-0.936,0.886-1.255
		c0.197-0.145,0.408-0.295,0.663-0.153c0.255,0.143,0.239,0.398,0.21,0.643c-0.109,0.917-0.549,1.7-0.985,2.491
		c-0.231,0.418-0.531,0.806-0.609,1.127c1.725-1.807,2.98-4.115,4.352-6.34c1.234-2.002,2.65-3.884,3.816-5.929
		c0.216-0.378,0.498-0.704,0.131-1.216c-0.41-0.572-0.12-1.08,0.611-1.031c0.628,0.042,0.954-0.229,1.285-0.665
		c0.754-0.992,1.29-2.108,1.92-3.17c-0.728,0.961-1.382,1.971-2.179,2.875c-0.183,0.207-0.404,0.466-0.699,0.296
		c-0.396-0.229-0.113-0.528-0.003-0.805c0.555-1.392,1.34-2.657,2.218-3.855c0.608-0.831,0.771-1.67,0.464-2.627
		c-0.01-0.78,0.534-1.296,0.912-1.889c0.238-0.373,0.492-0.734,0.691-1.213c-0.444,0.167-0.588,0.803-1.141,0.618
		c-0.178-0.141-0.255-0.312-0.161-0.534c2.598-3.821,5.194-7.643,7.794-11.462C97.635,66.811,98.023,66.286,98.401,65.755z"/>
	<path id="XMLID_348_" class="st7" d="M24.935,175.85c1.157,0.205,1.222,0.266,0.385,1.158c-0.774,0.824-1.296,1.64-1.023,2.817
		c0.085,0.367-0.237,0.677-0.454,0.887c-1.118,1.081-0.561,2.319-0.49,3.567c0.468-0.085,0.667-0.85,1.182-0.369
		c0.402,0.375-0.148,0.58-0.217,0.875c-0.082,0.333-0.289,0.541-0.622,0.623c-1.058,0.57-1.065,1.978-2.135,2.615
		c-0.234-0.293-0.171-0.614-0.045-0.935c0.292-0.746,0.818-1.37,0.399-2.344c-0.17-0.395,0.463-1.148,0.755-1.725
		c0.112-0.222,0.298-0.444,0.04-0.635c-0.239-0.177-0.448,0.02-0.633,0.185c-1.271,1.13-2.166,2.597-3.351,3.79
		c-1.126,1.134-1.619,2.709-2.881,3.752c-0.483,0.399-0.632,1.2-1.034,1.776c-0.229,0.328-0.437,0.412-0.751,0.345
		c-0.415-0.088-0.299-0.382-0.199-0.651c0.063-0.17,0.095-0.357-0.065-0.473c-0.201-0.144-0.415-0.055-0.556,0.108
		c-0.847,0.98-2.089,1.631-2.476,2.995c-0.078,0.276-0.523,0.499-0.238,0.812c0.34,0.373,0.587-0.18,0.975-0.218
		c-0.016,0.594-0.248,1.042-0.624,1.461c-0.836,0.932-1.448,2.066-2.547,2.764c-0.19,0.12-0.305,0.367-0.436,0.568
		c-0.144,0.22-0.201,0.455,0.056,0.638c0.231,0.164,0.528,0.156,0.641-0.081c0.841-1.767,2.815-2.577,3.645-4.365
		c0.222-0.478,0.647-0.935,1.093-1.225c1.897-1.23,2.235-3.695,4.027-4.99c0.26-0.188,0.384-0.593,0.892-0.519
		c-0.1,0.405-0.207,0.792-0.288,1.185c-0.089,0.428-1.268,1.178,0.328,1.145c0.144-0.003,0.257,0.306,0.097,0.421
		c-0.57,0.411-0.598,1.25-1.272,1.565c-0.26,0.122-0.428,0.287-0.491,0.606c-0.125,0.632-0.657,0.848-1.18,0.727
		c-0.809-0.187-0.753,0.17-0.697,0.757c0.127,1.339-0.736,2.092-2.129,1.779c0.3,0.551,0.316,1.044-0.128,1.454h0
		c-0.272-0.016-0.569,0.066-0.804-0.12c-0.36-0.285-0.652-0.195-0.855,0.162c-0.173,0.305-0.508,0.613-0.104,1.006
		c0.377,0.366,0.392,0.582-0.16,0.912c-0.527,0.316-0.878,0.926-1.322,1.425c0.487,0.29,0.664-0.162,0.954-0.271
		c0.318-0.12,0.689-0.394,0.937-0.044c0.216,0.305,0.417,0.682,0.154,1.146c-0.479,0.845-1.399,1.469-1.348,2.595
		c0.003,0.064-0.127,0.186-0.205,0.195c-1.321,0.156-1.797,1.261-2.454,2.164c-0.286,0.392-0.592,0.763-1.033,0.993
		c-0.32-0.196-0.676-0.295-1.036-0.381c-0.418-0.099-0.629-0.358-0.631-0.789c0.082-0.71,0.546-1.232,0.888-1.814
		c0.505-0.691,1.16-1.322,1.197-2.236c0.018-0.455,0.206-1.3-0.823-0.728c-0.468,0.261-0.797-0.048-0.95-0.49
		c-0.201-0.576-0.181-1.146,0.151-1.689c0.19-0.31,0.508-0.564,0.484-0.991c-1.485,0.711-1.507,0.707-1.701-0.365
		c0.117-0.394,0.363-0.707,0.634-1.003c0.457-0.459,0.959-0.868,1.124-1.561c0.096-0.405,0.452-0.7,0.79-0.928
		c1.129-0.762,1.826-1.952,2.849-2.817c0.652-0.551,0.944-1.325,1.223-2.1c0.074-0.123,0.167-0.228,0.291-0.302
		c0.564-0.255,0.934-0.711,1.26-1.215c3.051-2.798,5.943-5.758,8.844-8.709c0.894-0.91,1.984-1.605,2.748-2.666
		c0.322-0.447,0.514-0.867,0.516-1.396C24.319,176.344,24.581,176.051,24.935,175.85z"/>
	<path id="XMLID_347_" class="st2" d="M89.292,81.811c0.471,0.733,0.514,1.464-0.002,2.199c-1.09,1.552-2.076,3.163-2.741,4.969
		c1.289-1.061,2.024-2.602,3.231-3.747c-0.599,1.768-1.497,3.344-2.717,4.742c-0.292,0.335-0.508,0.168-0.793,0.01
		c-0.297-0.166-0.539,0.027-0.705,0.262c-0.234,0.329,0.055,0.404,0.279,0.496c0.62,0.254,0.233,0.645,0.075,0.919
		c-0.738,1.281-1.538,2.523-2.357,3.755c-1.427,2.147-2.764,4.355-4.126,6.544c-0.713,1.146-1.808,1.996-2.417,3.231
		c-0.194-1.111,0.486-1.899,0.956-2.726c0.335-0.589,0.449-1.218,0.66-1.83c0.056-0.162,0.107-0.353-0.095-0.446
		c-0.196-0.091-0.304,0.099-0.44,0.194c-0.485,0.338-0.624,0.884-0.863,1.378c-0.149,0.308-0.391,0.714-0.722,0.66
		c-0.437-0.072-0.258-0.559-0.296-0.883c-0.064-0.297-0.21-0.355-0.52-0.282c-1.027,0.241-1.194,0.051-0.949-0.994
		c1.004-1.514,1.99-3.04,3.016-4.538c3.759-5.489,7.532-10.969,11.303-16.45c0.115-0.168,0.269-0.309,0.405-0.462
		c0.079,0.17,0.159,0.34,0.238,0.51c-0.134,1.027-0.742,1.854-1.256,2.688c-1.247,2.02-2.499,4.039-3.79,6.033
		c1.117-1.852,2.563-3.48,3.596-5.392C88.471,82.26,88.659,81.732,89.292,81.811z"/>
	<path id="XMLID_346_" class="st8" d="M61.684,121.674c0.03,0.516,0.5,0.905,0.417,1.454c-0.704,1.175-0.756,2.378-0.307,3.674
		c0.172,0.496-0.384,0.927-0.461,1.46c0.43-0.655,0.854-1.311,1.165-2.036c0.381-0.887,0.84-1.738,1.235-2.619
		c0.164-0.365,0.279-0.883,0.858-0.895c0.269,0.007,0.409,0.144,0.414,0.414c-1.056,2.029-2.067,4.084-3.202,6.068
		c-0.248,0.434-0.924,0.632-1.419,0.912c-0.608,0.343-0.842,0.753-0.433,1.421c0.316,0.517,0.221,1.054-0.335,1.313
		c-1.817,0.844-2.289,2.666-3.046,4.236c-0.302,0.626,0.579,0.939,1.037,1.145c0.431,0.193,0.526,0.311,0.362,0.72
		c-0.27,0.67-0.436,1.395-0.79,2.015c-0.29,0.509-0.44,1.252-1.519,0.762c-0.743-0.337-1.404,0.628-1.779,1.296
		c-0.288,0.513-0.507,0.79-1.09,0.58c-0.248-0.089-0.386-0.015-0.441,0.25c-0.14,0.675-0.652,1.116-1.063,1.611
		c-1.051,1.267-2.135,2.507-2.798,4.044c-0.106,0.245-0.266,0.525-0.481,0.655c-0.936,0.568-1.455,1.116-0.188,1.906
		c0.26,0.162,0.225,0.519,0.011,0.737c-0.368,0.375-0.382-0.175-0.562-0.234c-0.728-0.24-1.403-0.442-0.97-1.448
		c0.047-0.11-0.04-0.271-0.2-0.317c-0.266-0.075-0.352,0.13-0.472,0.298c-0.283,0.398-0.281,1.051-0.965,1.095
		c-0.301-0.511-0.075-1.029,0.249-1.315c1.049-0.929,1.398-2.362,2.453-3.271c0.103-0.089,0.187-0.198,0.323-0.241
		c0.463,0.249,0.848,0.265,0.943-0.376c0.074-0.496,0.976-0.822,0.301-1.47c-0.165-0.705,0.341-1.247,0.454-1.886
		c0.151-0.441,0.323-0.867,0.801-1.061c0.628,0.056,0.857-0.422,1.012-0.865c0.789-2.25,2.371-4.126,3.045-6.421
		c0.537-1.829,1.564-3.42,2.423-5.085c0.658-1.275,1.426-2.51,2.163-3.706c-0.597,0.656-0.981,1.509-1.508,2.263
		c-0.255,0.365-0.408,0.927-1.055,0.799c0.954-1.779,1.949-3.533,3.081-5.206c0.956-0.426,1.244-1.411,1.809-2.163
		C61.305,121.988,61.288,121.618,61.684,121.674z"/>
	<path id="XMLID_345_" class="st9" d="M63.346,145.549c0.688-0.88,1.393-1.742,1.508-2.93c0.031-0.323,0.217-0.653,0.568-0.808
		c0.661-1.189,0.661-1.189,2.392-0.472c-0.648-0.859-0.455-1.494,0.224-2.057c0.333-0.276,0.407-0.704,0.485-1.113
		c0.085-0.446,0.213-0.873,0.635-1.132c0.14-0.206,0.28-0.413,0.42-0.619c0.375-0.746,0.832-0.645,1.318-0.006
		c0.023-0.27-0.06-0.381-0.136-0.496c-0.551-0.828-0.544-0.909,0.381-1.122c0.575-0.133,0.638-0.374,0.437-0.875
		c-0.545-1.356,0.541-2.693,2.067-2.571c0.095,0.042,0.156,0.115,0.19,0.212c-0.436,1.357-1.141,2.594-1.753,3.872
		c-0.189,0.394-0.51,0.735-0.38,1.224c-1.611,3.109-3.244,6.208-4.828,9.331c-2.064,4.07-4.091,8.159-6.133,12.24
		c-0.549,0.246-0.393,1.154-1.14,1.216c-0.309-0.352-0.173-0.715,0.007-1.054c0.374-0.708,0.361-1.54,0.749-2.246
		c0.133-0.241,0.049-0.496-0.259-0.552c-0.28-0.052-0.371,0.162-0.331,0.385c0.143,0.802-0.071,1.428-0.826,1.814
		c0.184,1.028-0.791,1.513-1.079,2.317c-0.167,0.465-0.364,0.82-0.944,0.678c0.016,0.393,0.431,0.961,0.059,1.138
		c-0.969,0.46-0.695,1.488-1.176,2.144c-0.223,0.304-0.384,0.655-0.703,0.882c-0.174,0.098-0.363,0.124-0.559,0.116
		c-0.332-0.055-0.642-0.052-0.824,0.304c-0.527,0.554-0.158,0.985,0.195,1.419c0.054,0.283-0.065,0.502-0.256,0.694
		c-0.503,0.39-0.788,0.092-1.036-0.328c-0.185-0.314-0.454-0.591-0.442-0.993c0.017-0.217,0.111-0.403,0.228-0.581
		c0.55-0.741,0.432-1.879,1.4-2.373c1.09-1.682,1.824-3.559,2.877-5.259c1.471-2.375,2.586-4.937,3.912-7.389
		c0.539-0.997,0.897-2.097,1.715-2.931l0-0.001C62.786,146.998,63.025,146.253,63.346,145.549z"/>
	<path id="XMLID_344_" class="st10" d="M141.407,0.646c-0.047,0.182-0.299,0.448-0.033,0.537c1.014,0.339,0.524,0.894,0.277,1.455
		c-0.952,2.163-1.762,4.401-2.87,6.481c-1.045,1.962-2.202,3.881-3.364,5.773c-0.812,1.322-1.769,2.595-2.379,4.007
		c-0.807,1.866-2.165,3.383-3.013,5.187c-1.19,2.533-3.023,4.734-3.81,7.469c-0.088,0.305-0.299,0.64-0.646,0.547
		c-0.461-0.123-0.279-0.498-0.222-0.853c0.191-1.195,0.906-2.163,1.454-3.167c1.46-2.673,2.547-5.53,4.345-8.049
		c1.176-1.647,2.172-3.467,3.184-5.248c0.218-0.383,0.222-0.69-0.338-0.644c-0.853,0.07-1.057-0.307-0.784-1.056
		c0.084-0.231,0.173-0.637-0.02-0.66c-1.679-0.194-0.546-1.248-0.626-1.925c-0.007-0.058-0.068-0.109-0.152-0.235
		c-0.734,0.563-1.031,1.665-2.113,1.77c2.79-3.83,5.528-7.705,9.303-10.677c0.484-0.381,0.997-0.719,1.607-0.874
		C141.273,0.539,141.34,0.593,141.407,0.646z"/>
	<path id="XMLID_343_" class="st11" d="M118.753,29.488c0.901,0.406,1.063,0.973,0.411,1.754c-0.15,0.18-0.274,0.42-0.313,0.648
		c-0.243,1.431-1.221,2.222-2.407,2.854c-0.552,0.294-0.377,0.692-0.046,1.006c0.7,0.664,0.603,1.307,0.063,2.004
		c-0.164,0.212-0.312,0.479-0.349,0.738c-0.103,0.724-0.321,1.256-0.946,1.799c-0.514,0.446-0.851,1.286-1.17,1.975
		c-0.872,1.882-2.161,3.512-3.086,5.355c-0.128,0.255-0.322,0.517-0.209,0.766c0.344,0.755-0.014,1.4-0.236,2.073
		c-0.838,1.671-1.647,3.36-2.903,4.777c-0.127,0.16-0.245,0.328-0.382,0.478c-0.11,0.12-0.217,0.304-0.421,0.205
		c-0.18-0.087-0.194-0.25-0.141-0.439c0.215-0.767,0.031-0.787-0.679-0.5c-1.012,0.408-1.175,1.276-1.445,2.11
		c-0.189,0.581-0.425,1.085-1.027,1.343c-0.234,0.1-0.393,0.066-0.517-0.15c4.135-7.543,7.93-15.268,12.209-22.734
		C116.326,33.511,117.45,31.446,118.753,29.488z"/>
	<path id="XMLID_342_" class="st12" d="M18.33,210.063c0.004-0.483-0.058-0.977,0.024-1.445c0.232-1.32,0.717-1.734,2.085-1.815
		c0.44-0.026,0.791-0.076,1.036-0.513c0.337-0.602,1.079-0.376,1.554-0.669c0.504-0.311,0.889-0.837,1.453-0.079
		c0.175,0.235,0.475-0.055,0.41-0.201c-0.641-1.434,0.78-1.627,1.4-2.154c0.816-0.694,1.706-1.317,2.553-1.99
		c1.844-1.465,3.496-3.164,5.514-4.432c0.758-0.476,1.21-1.433,2.028-1.947c0.204-0.128,0.363-0.361,0.597-0.06
		c-1.212,1.667-2.505,3.268-3.879,4.805c-0.834,0.707-1.663,1.433-2.425,2.204c-1.576,1.594-3.417,2.871-4.985,4.418
		c1.294-0.572,2.258-1.612,3.267-2.604c0.31-0.305,0.577-0.848,1.189-0.518c-2.799,4.135-6.938,6.063-11.64,7.063
		C18.416,210.211,18.356,210.186,18.33,210.063z"/>
	<path id="XMLID_341_" class="st3" d="M53.589,167.347c0.069-0.208,0.138-0.415,0.207-0.623c0.135-0.81,0.569-1.42,1.246-1.869
		c0.157-0.265,0.32-0.528,0.471-0.796c0.151-0.269,0.282-0.551,0.439-0.817c0.322-0.544-0.61-0.731-0.369-1.147
		c0.276-0.477,0.689,0.453,1.068,0.005c0.351-0.416,0.375-0.801-0.077-1.149c-0.178-0.137-0.339-0.288-0.196-0.504
		c0.142-0.214,0.369-0.157,0.542-0.018c0.418,0.336,0.572,0.2,0.643-0.287c0.073-0.5,0.427-0.849,0.78-1.183
		c0.41-0.389,0.771-0.783-0.26-1.16c1.233-0.325,1.816-0.849,1.346-1.986c-0.091-0.221,0.001-0.523,0.268-0.602
		c0.346-0.103,0.68,0.06,0.953,0.258c0.272,0.197,0.184,0.455,0.038,0.731c-0.543,1.023-0.822,2.137-1.076,3.258
		c-0.011,0.046-0.022,0.093-0.032,0.14c-0.659,0.456-1.166,0.984-0.885,1.883c-0.042,0.092-0.1,0.171-0.171,0.241
		c-0.847,0.748-1.79,1.416-1.893,2.7c-0.027,0.341-0.339,0.584-0.535,0.866c-0.447,0.642-0.97,1.261-0.915,2.124
		c0.011,0.176-0.024,0.357-0.152,0.48c-1.409,1.353-2.03,3.134-2.67,4.904c-0.35,0.967-1.018,1.789-1.271,2.8
		c-0.073,0.128-0.166,0.242-0.245,0.365c-0.547,0.754-1.214,1.435-1.454,2.378c-0.168,0.219-0.336,0.438-0.504,0.657
		c-1.141,0.857-1.962,1.994-2.735,3.168c-0.267,0.405-0.497,0.95-1.087,0.581c-0.611-0.383-0.361-0.917,0.025-1.304
		c0.516-0.517,0.533-1.06,0.272-1.675c0.008-0.1,0.035-0.194,0.079-0.284c0.598-0.576,1.118-1.195,1.406-2.004
		c0.148-0.417,0.488-0.745,0.844-1.035c0.613-0.498,1.131-1.017,0.734-1.937c-0.19-0.44,0.168-0.636,0.56-0.637
		c0.46-0.001,0.882-0.157,1.402-0.258c-0.39-0.392-0.286-0.786-0.058-1.185c0.326-0.57,0.617-1.161,1.004-1.695
		c0.061-0.084,0.116-0.176,0.146-0.274C51.85,169.195,52.355,168.024,53.589,167.347z"/>
	<path id="XMLID_340_" class="st1" d="M136.214,15.588c0.589-0.702,0.8-1.594,1.197-2.391c1.164-2.334,2.347-4.659,3.472-7.011
		c0.707-1.479,1.323-3.001,1.98-4.504c0.534-0.609,0.932-0.278,0.894,0.292c-0.048,0.719,0.325,1.132,0.71,1.685
		c-0.122-0.719-0.079-1.344,0.181-1.946c0.647-0.152,0.523,0.575,0.88,0.777c0.352,0.198,0.53,0.61,0.866,0.846
		c0.523,1.122,0.552,2.331,0.618,3.534c-0.03,0.823-0.246,1.544-1.06,1.938c-0.423,0.052-0.846,0.471-1.264,0.097
		c-0.279-0.25-0.218-0.637-0.132-0.981c0.062-0.248,0.216-0.425,0.454-0.531c1.26-0.566,1.313-0.669,1.121-2.117
		c-0.247-0.103-0.355,0.22-0.538,0.203c-1.17-0.107-1.039,0.816-1.37,1.514c-0.641,1.353-0.628,2.961-1.663,4.146
		c-0.222,0.254-0.365,0.642-0.801,0.502c-0.367-0.119-0.544-0.433-0.546-0.805c-0.003-0.468-0.103-0.83-0.653-0.867
		c-0.497-0.034-0.631,0.339-0.769,0.7c-0.344,0.897-1.079,1.622-1.156,2.637c-0.428,0.736-0.825,1.489-1.275,2.212
		c-0.197,0.317-0.368,0.661-0.776,0.766C136.207,16.187,136.004,15.997,136.214,15.588z"/>
	<path id="XMLID_339_" class="st13" d="M47.773,147.418c-1.019,0.99-1.404,2.451-2.524,3.375c-0.416,0.343-0.456,0.905-0.587,1.4
		c-1.223,1.938-2.924,3.508-4.166,5.443c-0.391,0.608-0.274,1.323-0.721,1.873c0.575-0.159,0.578-0.855,1.055-1.083
		c0.116-0.055,0.287-0.148,0.363-0.104c0.17,0.099,0.175,0.318,0.048,0.449c-1.267,1.314-1.606,3.17-2.696,4.584
		c-0.081,0.105-0.211,0.171-0.318,0.255c-1.098,0.144-2.032,0.552-2.639,1.548c-0.134,0.22-0.348,0.44-0.681,0.319
		c-0.004-0.151-0.008-0.302-0.012-0.453c0.955-0.88,1.483-2.071,2.245-3.092c0.596-0.476,0.814-1.176,1.088-1.843
		c1.414-2.811,3.164-5.424,4.761-8.128c1.425-1.57,2.852-3.138,3.151-5.369c0.748-1.431,1.557-2.827,2.47-4.16
		c0.485,0.018,0.516-0.797,1.099-0.6c0.227,0.385-0.011,0.69-0.169,1.012c-0.145,0.295-0.348,0.605,0.102,0.83
		c-0.207,0.624-0.414,1.249-0.621,1.873C49.071,146.482,48.554,147.039,47.773,147.418z"/>
	<path id="XMLID_338_" class="st14" d="M73.935,129.356c1.126-0.721,1.225-2.231,2.24-2.997c1.319-0.996,1.561-2.644,2.502-3.818
		c0.765-0.953,1.21-2.131,2.209-2.93c0.565-0.452,0.783-1.255,1.301-1.816c0.554-0.6,0.937-1.386,1.966-1.232
		c0.24,0.036,0.388-0.184,0.273-0.418c-0.631-1.29,0.872-1.658,1.119-2.576c0.061-0.227,0.405-0.118,0.404,0.146
		c-0.002,0.477,0.49,0.433,0.66,0.712c-2.792,3.855-5.592,7.703-8.369,11.568c-0.842,1.171-1.62,2.387-2.427,3.583
		c-0.688,0.221-0.989,0.858-1.438,1.336c-0.19,0.202-0.231,0.591-0.642,0.519l-0.011-0.006
		C73.221,130.678,73.632,130.023,73.935,129.356z"/>
	<path id="XMLID_337_" class="st15" d="M4.602,198.494c-0.209,0.275-0.419,0.55-0.628,0.825c-0.226,0.304-0.309,0.691-0.571,0.974
		c-0.334,0.359-0.443,0.627-0.062,1.128c0.426,0.56,0.096,1.263-0.218,1.835c-0.291,0.528-0.692,0.99-1.242,1.39
		c0.293,0.031,0.39-0.125,0.515-0.227c0.942-0.764,1.317-0.662,1.567,0.505c0.151,0.706,0.51,0.479,0.9,0.302
		c0.246-0.112,0.498-0.32,0.759-0.095c0.29,0.251,0.197,0.551,0.013,0.831c-0.276,0.555-0.552,1.11-0.828,1.664
		c-0.181,0.593-0.496,1.124-0.762,1.679c-0.311,0.649-0.698,0.604-1.125,0.191c-0.502-0.485-1.098-0.835-1.647-1.253
		c-0.693-1.008-0.9-2.162-1.002-3.347c0.185-1.189,0.17-2.409,0.533-3.571c0.34-0.365,0.477-0.848,0.644-1.289
		c0.375-0.996,1.23-1.474,2.033-1.986C3.934,197.763,4.489,197.688,4.602,198.494z"/>
	<path id="XMLID_336_" class="st16" d="M145.972,8.739c0.512-0.531,0.722-1.231,1.042-1.869c0.052,0.046,0.058,0.098,0.018,0.154
		c0.162,0.528,0.046,1.069,0.074,1.603c-0.244,2.978-0.767,5.915-1.288,8.852c-0.135,0.758-0.45,1.443-0.75,2.135
		c-0.164,0.378-0.35,0.739-0.364,1.16c-0.939,2.369-2.311,4.526-3.346,6.848c-0.453-0.076-0.358-0.432-0.365-0.729
		c-0.009-0.387,0.315-0.79-0.082-1.161c-0.113-0.106-0.056-0.283,0.085-0.34c1.446-0.59,1.413-2.016,1.816-3.196
		c0.021-0.061,0.027-0.147,0-0.201c-0.771-1.547,0.367-2.714,0.833-3.998c0.169-0.465,0.225-1.023,0.665-1.371
		c0.218-0.489,0.086-0.994,0.069-1.494c-0.024-0.72,0.007-1.428,0.504-2.019c0.091-0.171,0.48-0.232,0.394-0.341
		c-0.637-0.812-0.01-1.01,0.546-1.331c0.396-0.229,0.46-1.875,0.167-2.557C145.983,8.835,145.977,8.787,145.972,8.739z"/>
	<path id="XMLID_335_" class="st17" d="M74.75,100.263c0.06,0.666-0.002,1.528,1.015,0.61c0.157-0.142,0.378-0.229,0.538-0.042
		c0.203,0.238,0.158,0.496-0.084,0.707c-0.276,0.485-0.551,0.97-0.827,1.455c-1.29,1.98-2.77,3.82-4.302,5.611
		c-0.868,1.015-1.788,1.989-2.635,3.026c-0.161,0.197-0.323,0.566-0.63,0.34c-0.248-0.183-0.095-0.492,0.056-0.744
		c0.683-1.137,1.545-2.179,1.89-3.499C71.307,105.156,73.043,102.719,74.75,100.263z"/>
	<path id="XMLID_334_" class="st18" d="M18.33,210.063c0.066,0.006,0.127,0.026,0.183,0.061c-3.105,0.991-6.272,1.613-9.545,1.615
		c-0.161-0.881,0.736-1.143,1.07-1.844c-0.727-0.079-1.452,0.904-2.114,0.018c0.764-0.437,1.218-1.384,2.481-0.918
		c0.721,0.266,1.584-0.484,2.311-0.955c0.245-0.159,0.519-0.632,0.862-0.194c0.271,0.346-0.032,0.708-0.272,0.892
		c-0.695,0.534-0.333,1.614-1.26,1.994c0.061,0.076,0.122,0.153,0.182,0.229c0.735-0.287,1.632-0.405,2.158-0.91
		c0.509-0.488,1.113-0.636,1.648-0.975c0.459-0.291,1.33-0.072,1.201-1.07c-0.021-0.162,0.301-0.392,0.57-0.342
		c0.326,0.061,0.302,0.338,0.251,0.577C17.916,208.886,17.98,209.495,18.33,210.063z"/>
	<path id="XMLID_333_" class="st3" d="M56.266,129.557c0.588-0.259,0.776-0.852,1.097-1.33c0.383-0.572,0.707-1.187,1.119-1.737
		c0.225-0.299,0.549-0.891,0.938-0.54c0.364,0.328-0.324,0.542-0.469,0.85c-0.868,1.846-2.366,3.354-2.894,5.384
		c-0.042,0.16-0.133,0.319-0.238,0.449c-1.135,1.412-1.519,3.14-2.031,4.814c-0.146,0.478-0.539,0.825-0.799,1.214
		c-0.638,0.954-1.031,1.989-1.479,3.017c-0.176,0.403-0.429,0.784-0.706,1.128c-0.233,0.29-0.476,0.271-0.54-0.165
		c-0.2-0.216-0.137-0.46-0.029-0.674c1.348-2.669,2.189-5.574,3.779-8.13c0.779-1.253,1.392-2.593,2.039-3.915
		C56.074,129.771,56.102,129.624,56.266,129.557z"/>
	<path id="XMLID_332_" class="st19" d="M4.602,198.494c-0.338-0.534-0.732-0.571-1.179-0.132c-0.121,0.119-0.227,0.323-0.363,0.346
		c-1.136,0.19-1.12,1.286-1.583,1.995c-0.145,0.221-0.166,0.523-0.422,0.682c-0.402-0.502-0.176-1.005-0.003-1.508
		c2.963-3.032,5.98-6.007,9.094-8.884c0.159-0.089,0.316-0.108,0.466,0.021c-0.397,2.142-2.304,3.143-3.556,4.63
		c-0.506,0.601-1.292,0.906-1.446,1.857C5.548,197.876,4.953,198.165,4.602,198.494z"/>
	<path id="XMLID_331_" class="st20" d="M10.61,191.014c-0.155-0.007-0.31-0.014-0.466-0.02c2.964-3.043,5.926-6.087,8.891-9.129
		c1.686-1.73,3.376-3.456,5.065-5.184c0.463,0.466,0.298,0.79-0.088,1.284c-1.241,1.589-2.883,2.753-4.259,4.197
		c-2.123,2.227-4.333,4.371-6.522,6.534c-0.339,0.335-0.763,0.582-1.147,0.87c-0.369,0.466-0.766,0.902-1.261,1.239
		C10.752,190.874,10.681,190.944,10.61,191.014z"/>
	<path id="XMLID_330_" class="st21" d="M50.678,175.86c0.07-0.073,0.141-0.145,0.211-0.218c0.269-1.007,1.123-1.714,1.45-2.661
		c0.985-2.855,2.959-5.193,4.071-7.971c0.518-1.294,1.372-2.359,2.162-3.474l0.004,0c0.152-0.788,0.578-1.44,1.034-2.077
		c0,0,0.001-0.001,0.001-0.001c0.463-0.332,0.506-1.049,1.131-1.233c-2.095,4.369-4.1,8.786-6.33,13.085
		c-0.926,1.785-2.336,3.318-3.527,4.965C50.542,176.273,50.538,176.103,50.678,175.86z"/>
	<path id="XMLID_329_" class="st22" d="M1.274,208.246c0.77,0.079,1.318,0.525,1.814,1.074c0.314,0.347,0.516,0.501,0.727-0.163
		c0.177-0.558,0.65-1.023,0.993-1.529c-0.05,0.509,0.226,0.647,0.679,0.622c0.423-0.024,0.736,0.119,0.758,0.609
		c-0.03,0.017-0.071,0.026-0.088,0.051c-0.317,0.455-1.485,0.568-0.967,1.237c0.373,0.482,1.017-0.408,1.435-0.761
		c1.118-0.941,2.118-2.022,3.366-2.809c0.428-0.145,0.586-0.024,0.415,0.421c-0.965,0.835-1.929,1.671-2.894,2.506
		c-0.362,0.677-0.805,1.294-1.363,1.825c-0.043,0.022-0.086,0.043-0.129,0.064C3.987,211.022,2.26,210.192,1.274,208.246z"/>
	<path id="XMLID_328_" class="st23" d="M45.493,179.597c0.637,0.832,0.355,1.504-0.349,2.123c-0.296,0.261-0.406,0.609-0.024,0.866
		c0.449,0.302,0.583-0.126,0.746-0.415c0.626-1.109,1.412-2.086,2.367-2.929c0.191-0.169,0.389-0.277,0.648-0.246
		c-1.091,1.655-2.27,3.245-3.538,4.768c-0.542,0.422-0.965,0.943-1.347,1.514c-0.553,0.827-1.395,1.318-2.24,1.795l-0.006-0.009
		c-0.805-1.092-0.682-1.807,0.52-2.38c0.759-0.362,1.214-1.013,1.465-1.677c0.336-0.89,0.803-1.749,0.949-2.711
		C44.754,179.842,44.804,179.344,45.493,179.597z"/>
	<path id="XMLID_327_" class="st24" d="M54.208,133.922c-1.539,2.804-2.622,5.816-3.943,8.719c-0.268,0.309-0.572,0.595-0.622,1.034
		c-0.727,0.343-0.664-0.089-0.533-0.555c0.128-0.454,0.622-0.759,0.541-1.303c0.099-1.082,0.853-1.884,1.22-2.853
		c0.248-0.655,0.767-1.191,0.881-1.912c0.753-1.245,1.506-2.49,2.258-3.735C54.213,133.473,54.325,133.66,54.208,133.922z"/>
	<path id="XMLID_326_" class="st25" d="M30.152,203.06c-0.876,0.212-1.291,0.993-1.866,1.558c-0.935,0.916-1.988,1.608-3.232,2.053
		c0.385-0.926,1.272-1.371,1.948-1.978c1.795-1.613,3.709-3.093,5.347-4.879c0.189-0.206,0.462-0.298,0.758-0.253
		C32.209,200.801,31.218,201.962,30.152,203.06z"/>
	<path id="XMLID_325_" class="st26" d="M144.704,20.774c-0.3-0.267-0.032-0.526,0.044-0.755c1.163-3.513,1.599-7.163,2.067-10.808
		c0.02-0.159,0.119-0.308,0.181-0.462c0.216,0.698,0.12,1.404,0.053,2.11c0.005,2.135-0.266,4.248-0.681,6.33
		C146.109,18.488,145.259,19.577,144.704,20.774z"/>
	<path id="XMLID_324_" class="st27" d="M73.732,131.433c0.424-0.664,0.891-1.293,1.495-1.81c0.189-0.161,0.365-0.353,0.586-0.045
		c-1.37,2.359-2.74,4.717-4.11,7.076c-0.453-0.347-0.249-0.749-0.032-1.085C72.513,134.266,72.982,132.78,73.732,131.433z"/>
	<path id="XMLID_323_" class="st22" d="M7.923,209.913c0.597,0.314,1.099,0.014,1.628-0.22c0.291-0.129,0.699-0.412,0.928-0.044
		c0.199,0.318-0.244,0.51-0.442,0.72c-0.4,0.425-0.86,0.799-1.07,1.371c-1.011,0.12-1.975-0.152-2.949-0.347
		c0.026-0.028,0.052-0.057,0.079-0.085c0.613-0.458,1.131-1.04,1.823-1.395L7.923,209.913z"/>
	<path id="XMLID_322_" class="st28" d="M41.758,187.073c0.397-0.513,0.804-1.007,1.44-1.253c0.371-0.144,0.571-0.469,0.733-0.818
		c0.288-0.62,0.746-1.049,1.413-1.238c-1.325,1.922-2.708,3.801-4.202,5.596C40.667,188.415,41.279,187.762,41.758,187.073z"/>
	<path id="XMLID_321_" class="st3" d="M46.14,146.593c0.263,0.146,0.473,0.36,0.336,0.665c-0.76,1.684-1.834,3.176-2.908,4.666
		c-0.145,0.201-0.366,0.35-0.579,0.038C43.959,150.125,45.021,148.342,46.14,146.593z"/>
	<path id="XMLID_320_" class="st29" d="M61.684,121.674c-0.166,0.806-0.899,1.297-1.138,2.094c-0.12,0.401-0.652,0.684-1.2,0.582
		c0.962-1.794,1.98-3.553,3.141-5.227C62.488,120.058,61.965,120.828,61.684,121.674z"/>
	<path id="XMLID_319_" class="st30" d="M146.396,3.335c-0.892-0.216-1.3-0.917-1.669-1.659c-0.585,0.024-0.994-0.173-1.048-0.824
		c0.028-0.239-0.496-0.335-0.168-0.651C145.281,0.502,145.962,1.806,146.396,3.335z"/>
	<path id="XMLID_318_" class="st31" d="M51.752,137.051c0.242,0.567-0.234,0.934-0.409,1.371c-0.472,1.174-0.975,2.34-1.692,3.394
		c-0.369,0.169-0.356,0.982-1.041,0.616C49.657,140.639,50.704,138.845,51.752,137.051z"/>
	<path id="XMLID_317_" class="st32" d="M1.051,199.878c0.001,0.503,0.002,1.005,0.003,1.508c-0.39,1.142-0.319,2.387-0.783,3.513
		c-0.121-1.443,0.008-2.865,0.325-4.277C0.667,200.304,0.739,200.028,1.051,199.878z"/>
	<path id="XMLID_316_" class="st8" d="M54.208,133.922c-0.066-0.202-0.132-0.404-0.198-0.606c0.641-1.155,1.252-2.329,2.044-3.394
		C55.667,131.361,55.063,132.699,54.208,133.922z"/>
	<path id="XMLID_315_" class="st23" d="M50.678,175.86c0.014,0.165,0.044,0.323,0.206,0.415c-0.499,0.688-0.999,1.376-1.498,2.064
		C49.273,177.229,50.096,176.607,50.678,175.86z"/>
	<path id="XMLID_314_" class="st3" d="M64.137,116.467c0.404,0.176,0.525,0.487,0.401,0.892c-0.05,0.161-0.166,0.307-0.356,0.293
		c-0.347-0.025-0.391-0.302-0.431-0.571C63.804,116.829,63.936,116.626,64.137,116.467z"/>
	<path id="XMLID_313_" class="st10" d="M147.049,10.858c-0.018-0.703-0.035-1.406-0.053-2.11c0.012-0.575,0.024-1.15,0.036-1.724
		C147.299,8.301,147.31,9.579,147.049,10.858z"/>
	<path id="XMLID_312_" class="st33" d="M38.228,160.09c-0.076,0.783-0.272,1.496-1.088,1.843
		C37.503,161.318,37.866,160.704,38.228,160.09z"/>
	<path id="XMLID_311_" class="st3" d="M65.572,114.172c0.235,0.649,0.085,0.888-0.554,0.881
		C65.202,114.76,65.387,114.466,65.572,114.172z"/>
	<path id="XMLID_310_" class="st10" d="M143.68,0.852c0.246,0.406,0.707,0.539,1.047,0.825c0.161,0.68-0.396,1.413,0.152,2.075
		c0.042,0.051-0.039,0.295-0.123,0.342c-0.205,0.114-0.513,0.013-0.516-0.166c-0.012-0.737-1.319-0.982-0.667-2.033
		c0.219-0.353-0.377-0.378-0.709-0.213c0.012-0.481-0.473-0.659-0.631-1.036C142.736,0.573,143.206,0.726,143.68,0.852z"/>
	<path id="XMLID_309_" class="st3" d="M62.308,147.625c-0.703,1.428-1.445,2.838-2.097,4.289c-0.525,1.167-1.336,2.185-1.695,3.441
		c-0.324,1.132-1.283,1.9-1.756,2.996c-0.622,1.441-1.568,2.743-2.168,4.217c-0.125,0.307-0.388,0.557-0.588,0.834
		c-0.761-0.035-0.528-0.534-0.446-0.959c0.075-0.387,0.484-0.656,0.419-1.304c-0.698,1.136-1.06,2.249-1.739,3.181
		c-0.575,0.789-1.065,1.554-0.621,2.646c0.239,0.588-0.25,0.897-0.948,0.693c-0.231-0.068-0.449-0.177-0.657-0.3
		c-0.224-0.132-0.459-0.125-0.701-0.072c-0.138,0-0.026,0.199-0.049,0.063c-0.005-0.027,0.033-0.02,0.096-0.038
		c0.297-0.085,0.544-0.062,0.693,0.254c0.139,0.293,0.035,0.537-0.15,0.761c-0.267,0.323-0.588,0.642-0.962,0.766
		c-0.887,0.296-1.203,0.99-1.583,1.748c-0.437,0.871-1.039,1.696-2.302,1.601c0.358,0.355,0.652,0.186,0.926,0.088
		c0.703-0.25,0.986-0.007,0.893,0.719c-0.02,0.097-0.057,0.188-0.106,0.274c-0.479,0.491-0.821,1.261-1.761,0.659
		c-0.269-0.172-0.544,0.237-0.707,0.49c-0.297,0.463-0.593,0.925-0.971,1.399c0.442-0.081,0.688-0.852,1.14-0.356
		c0.379,0.416-0.025,0.859-0.297,1.193c-0.717,0.879-1.563,1.649-2.007,2.74c-0.164,0.402-0.577,0.702-0.985,0.255
		c-0.411-0.451-0.614-0.307-0.805,0.147c-0.142,0.339-0.402,0.527-0.727,0.692c-0.612,0.31-1.014,0.857-1.158,1.501
		c-0.155,0.691-0.525,1.186-1.034,1.621c-0.123,0.144-0.237,0.295-0.335,0.458c-0.186,0.351-0.374,0.701-0.814,0.79
		c-0.48-0.003-0.679-0.394-0.451-0.663c0.605-0.716,0.381-1.411,0.151-2.143c0.04-0.151,0.127-0.264,0.267-0.336
		c0.394-0.064,0.909,0.006,0.651-0.697c-0.094-0.255,0.036-0.519,0.177-0.752c0.461-0.584,1.032-1.056,0.8-1.996
		c-0.198-0.802,0.772-1.073,1.2-1.369c1.029-0.713,1.561-1.801,2.413-2.628c0.663-0.644,1.161-1.457,1.782-2.155
		c0.35-0.392,0.633-0.824,0.698-1.363c0.052-0.43,0.236-0.79,0.559-1.08c0.077-0.069,0.213-0.137,0.217-0.214
		c0.071-1.588,1.619-2.175,2.286-3.372c0.718-1.29,1.55-2.529,2.371-3.751c1.875-2.789,3.173-5.871,4.719-8.821
		c0.988-1.885,1.973-3.77,3.005-5.632c0.267-0.481,0.297-1.062,0.507-1.576c0.446-1.091,0.778-1.236,1.89-0.917
		c0.565,0.162,1.062-0.069,1.508-0.376c-0.025-0.101-0.021-0.147-0.042-0.163c-1.504-1.169-1.554-1.317-1.064-3.074
		c0.075-0.27,0.465-0.535,0.096-0.82c-0.258-0.199-0.522,0.038-0.773,0.135c-0.161,0.063-0.319,0.137-0.493,0.046
		c0,0-0.002-0.002-0.002-0.002c0.633-2.005,1.685-3.824,2.585-5.707c0.792-1.657,1.718-3.249,2.602-4.861
		c1.789-3.264,3.85-6.356,5.968-9.412c0.274-0.395,0.512-0.816,0.803-1.197c0.131-0.171,0.317-0.468,0.579-0.278
		c0.252,0.183-0.025,0.432-0.048,0.654c-0.031,0.289-0.732,0.523-0.174,0.804c0.39,0.196,0.517-0.329,0.692-0.609
		c0.11-0.175,0.205-0.362,0.334-0.521c0.166-0.204,0.211-0.604,0.536-0.565c0.44,0.053,0.095,0.561,0.388,0.801
		c0.643-0.442,0.768-1.203,0.633-1.794c-0.295-1.288,0.822-1.481,1.249-2.236c0.466,0.448-0.236,0.973,0.22,1.123
		c0.479,0.158,0.585-0.469,0.839-0.765c0.807-0.939,1.604-1.887,2.404-2.832c0.173-0.205,0.486-0.457,0.196-0.689
		c-0.295-0.236-0.44,0.174-0.63,0.342c-0.907,0.802-1.432,1.992-2.549,2.6c-0.073-0.106-0.133-0.155-0.141-0.211
		c-0.051-0.379,0.784-0.619,0.339-0.9c-0.537-0.339-0.544,0.394-0.749,0.698c-0.058,0.085-0.119,0.186-0.205,0.231
		c-0.261,0.139-0.379,0.757-0.788,0.363c-0.336-0.325,0.047-0.606,0.263-0.869c1.224-1.485,2.444-2.974,3.659-4.467
		c0.165-0.203,0.469-0.472,0.174-0.701c-0.29-0.226-0.501,0.149-0.647,0.339c-1.815,2.366-4.063,4.386-5.583,6.987
		c-0.034,0.059-0.078,0.123-0.134,0.156c-0.297,0.174-0.453,0.804-0.86,0.501c-0.306-0.228,0.08-0.62,0.252-0.9
		c1.505-2.444,3.431-4.564,5.292-6.724c1.237-1.435,2.276-3.001,3.416-4.499c1.268-1.667,2.691-3.228,3.757-5.034
		c0.565-0.958,1.227-1.896,1.485-3.016c-0.045-0.899,0.58-1.293,1.248-1.655c0.233-0.031,0.359-0.441,0.617-0.251
		c0.268,0.197,0.005,0.441-0.087,0.64c-1.148,2.498-2.65,4.774-4.253,7.002c-0.821,1.141-1.753,2.191-2.556,3.342
		c-0.173,0.247-0.525,0.483-0.117,0.758c0.331,0.223,0.481-0.102,0.61-0.348c0.829-1.577,2.295-2.646,3.26-4.126
		c0.937-1.437,2.319-2.647,2.891-4.245c0.736-2.058,2.43-3.372,3.451-5.177c0.118-0.209,0.274-0.545,0.637-0.288
		c0.316,0.223,0.324,0.503,0.119,0.808c-0.096,0.143-0.169,0.314-0.295,0.423c-1.706,1.481-2.423,3.636-3.715,5.383
		c-0.853,1.154-1.281,2.435-1.92,3.65c-0.673,1.28-1.704,2.35-2.736,3.37c-0.3,0.296-0.424,0.554-0.498,0.946
		c-0.115,0.613-0.361,1.213-0.932,1.554c-0.59,0.352-0.614,1.048-1.006,1.515c-0.127,0.151-0.072,0.348,0.091,0.45
		c0.191,0.118,0.341-0.035,0.427-0.174c1.572-2.55,3.801-4.591,5.432-7.111c1.12-1.73,2.382-3.366,3.297-5.227
		c0.072-0.146,0.207-0.313,0.349-0.36c0.269-0.089,0.457-0.574,0.776-0.284c0.245,0.223-0.019,0.535-0.164,0.742
		c-0.584,0.835-0.693,1.769-0.608,2.739c0.051,0.591-0.356,0.985-0.633,1.369c-1.216,1.689-2.109,3.616-3.672,5.055
		c-0.248,0.228-0.53,0.632-0.176,0.891c0.394,0.289,0.534-0.198,0.729-0.457c0.413-0.549,0.831-1.095,1.276-1.617
		c0.173-0.203,0.42-0.353,0.804-0.155c-0.694,0.979-1.319,1.951-2.186,2.738c-0.151,0.137-0.326,0.392-0.511,0.281
		c-0.972-0.586-1.335,0.278-1.72,0.782c-1.829,2.397-3.724,4.738-5.635,7.071c-0.945,1.154-1.767,2.44-2.64,3.663
		c-0.816,1.142-1.745,2.209-2.481,3.417c-0.093,0.152-0.226,0.281-0.423,0.216c-0.28-0.092-0.225-0.294-0.143-0.505
		c0.07-0.18,0.24-0.427-0.051-0.511c-0.154-0.044-0.529,0.122-0.53,0.195c-0.003,0.385-1.334,0.825,0.027,1.173
		c0.329,0.084,0.374,0.346,0.169,0.654c-0.306,0.458-0.597,0.929-0.86,1.413c-0.284,0.522-0.491,1.113-1.084,0.223
		c-0.241-0.362-0.49-0.071-0.64,0.161c-0.193,0.298-0.126,0.525,0.259,0.594c0.815,0.145,0.607,0.455,0.24,0.966
		c-0.654,0.911-1.227,1.883-1.792,2.854c-0.783,1.345-1.526,2.714-2.291,4.07c-0.049,0.088-0.127,0.2-0.211,0.222
		c-2.321,0.589-1.953,2.342-1.746,4.023c0.045,0.364-0.086,0.649-0.266,0.965c-0.488,0.858-1.23,1.649-0.301,2.769
		c0.292,0.352-0.492,0.94-0.683,1.471c-0.066,0.184-0.27,0.314-0.371,0.491c-0.134,0.235-0.315,0.484-0.148,0.773
		C61.764,147.891,62.059,147.591,62.308,147.625z"/>
	<path id="XMLID_308_" class="st6" d="M111.919,66.7c0.829-0.727,1.047-1.558,1.499-2.231c0.649-0.968,1.164-2.028,1.842-2.972
		c0.385-0.537-0.02-1.235,0.295-1.529c0.249-0.232,0.89,0.156,1.47-0.048c0.936-0.329,0.735-1.377,1.425-1.799
		c0.208-0.127,0.24-0.636,0.563-0.472c0.393,0.199,0.079,0.61-0.049,0.807c-0.544,0.835,0.093,1.811-0.373,2.645
		c-0.073,0.13,0.036,0.38,0.221,0.415c0.313,0.059,0.604-0.021,0.812-0.306c0.166-0.228,0.267-0.734,0.639-0.47
		c0.409,0.291,0.049,0.656-0.14,0.986c-1.416,2.468-3.044,4.801-4.418,7.306c-0.977,1.78-2.208,3.482-3.138,5.296
		c-0.801,1.563-1.681,3.075-2.533,4.605c-0.5,0.898-1.096,1.743-1.679,2.591c-0.139,0.202-0.349,0.548-0.651,0.358
		c-0.25-0.156-0.185-0.524-0.069-0.766c0.385-0.809,0.774-1.615,1.232-2.391c0.487-0.825,1.198-1.536,1.555-2.388
		c0.541-1.29,1.187-2.515,1.87-3.722c0.489-0.865,1.101-1.661,1.673-2.477c0.24-0.342,0.436-0.778,0.038-0.993
		c-0.49-0.265-0.538,0.304-0.729,0.608c-1.716,2.736-3.269,5.572-5.073,8.257c-0.627,0.933-1.396,1.785-1.787,2.891
		c-0.162,0.459-0.444,1.001-1.24,1.241c0.594-1.271,1.122-2.399,1.651-3.533c-0.102-0.039-0.205-0.096-0.217-0.081
		c-1.614,2.045-3.539,3.85-4.49,6.389c-0.571,1.524-1.407,2.95-2.141,4.411c-0.111,0.221-0.222,0.623-0.568,0.442
		c-0.264-0.138-0.191-0.518-0.079-0.759c0.341-0.737,0.807-1.399-0.019-2.189c-0.267-0.256,0.058-0.842,0.493-0.988
		c1.022-0.341,1.461-1.24,1.964-2.033c0.48-0.755,0.805-1.607,1.534-2.186c0.291-0.231,0.26-0.499,0.163-0.833
		c-0.128-0.44-0.074-0.897,0.192-1.295c0.161-0.24,0.424-0.514,0.557-0.04c0.219,0.784,0.531,0.338,0.75,0.076
		c0.926-1.106,1.751-2.285,2.414-3.57c0.091-0.176,0.24-0.397-0.04-0.523c-0.236-0.106-0.48-0.039-0.664,0.156
		c-0.223,0.236-0.41,0.705-0.796,0.401c-0.403-0.317-0.003-0.693,0.137-1.02c0.725-1.689,1.576-3.337,2.136-5.078
		c0.214-0.664,0.354-1.113,0.992-1.423c0.32-0.156,0.585-0.606,0.443-0.976c-0.265-0.692,0.074-1.15,0.364-1.72
		c1.638-3.226,4.021-6.01,5.49-9.331c0.118-0.267,0.246-0.436,0.531-0.293c0.354,0.177,0.158,0.379-0.014,0.567
		c-1.046,1.144-1.184,2.757-2.057,3.993c-0.065,0.092-0.075,0.349-0.024,0.378c1.146,0.664,0.062,1.113-0.172,1.601
		C113.104,63.933,112.034,64.961,111.919,66.7z"/>
	<path id="XMLID_307_" class="st34" d="M101.751,67.489c0.286-0.902,0.465-1.884,1.636-2.103c0.169-0.032,0.373-0.14,0.305-0.34
		c-0.544-1.617,0.808-2.606,1.384-3.777c0.972-1.975,2.385-3.729,3.517-5.633c0.739-1.243,2.038-1.781,3.027-2.701
		c0.177-0.165,0.287,0.039,0.309,0.23c-0.002,0.589,0.194,0.817,0.716,0.372c0.251-0.214,0.337-0.886,0.763-0.542
		c0.305,0.247,0.635,0.842,0.408,1.292c-0.364,0.72-0.423,1.564-1.095,2.177c-0.665,0.606-0.397,1.594-0.736,2.378
		c0.781-0.486,1.064-1.263,1.483-1.944c0.143-0.233,0.306-0.458,0.485-0.664c0.129-0.149,0.296-0.383,0.507-0.259
		c0.286,0.168,0.086,0.42-0.005,0.633c-0.641,1.5-1.763,2.702-2.54,4.124c-1.277,2.336-2.661,4.614-3.946,6.947
		c-1.246,2.261-2.426,4.558-3.933,6.663c-0.145,0.206-0.31,0.418-0.584,0.232c-0.234-0.159-0.2-0.404-0.119-0.653
		c0.289-0.891,0.709-1.76,1.268-2.462c0.941-1.181,1.376-2.608,2.053-3.896c0.902-1.715,2.123-3.21,2.995-4.925
		c0.2-0.393,0.477-0.745,0.655-1.429c-0.817,0.686-1.283,1.355-1.649,2.071c-1.368,2.675-3.074,5.148-4.592,7.732
		c-0.111,0.188-0.274,0.305-0.442,0.424c-1.197,1.191-1.93,2.683-2.701,4.15c-0.242,0.141-0.419,0.152-0.413-0.205
		c0.208-0.553,0.416-1.107,0.624-1.66c0.593-0.919,0.83-2.037,1.61-2.854c0.139-0.145,0.202-0.382,0.177-0.583
		c-0.158-1.24,0.506-2.159,1.18-3.083c-0.505,0.509-0.935,1.068-1.36,1.632c-0.164,0.217-0.345,0.479-0.668,0.371
		c-0.313-0.104-0.326-0.419-0.35-0.691C101.689,68.17,101.611,67.825,101.751,67.489z"/>
	<path id="XMLID_306_" class="st10" d="M145.143,13.097c-0.575,0.736-0.48,1.64-0.62,2.484c-0.058,0.351,0.129,0.75-0.214,1.043
		c-0.098-0.446,0.264-1.221-0.222-1.283c-0.599-0.076-0.496,0.75-0.683,1.2c-0.591,1.426-1.216,2.838-1.803,4.265
		c-0.426,1.034-0.993,2.01-1.272,3.105c-0.348,1.363-1.31,2.404-1.912,3.635c-0.342,0.698-0.761,1.357-1.22,2
		c-0.043-1.27,0.446-2.357,1.183-3.329c0.282-0.371,0.511-0.853,0.282-1.129c-1.155-1.396,0.217-2.381,0.496-3.53
		c0.378-1.559,1.617-2.77,1.833-4.399c0.029-0.222,0.373-0.573-0.081-0.677c-0.393-0.09-0.484,0.257-0.544,0.591
		c-0.358,1.978-1.709,3.471-2.467,5.315c-0.464-0.398-0.493-0.765-0.334-1.19c0.706-1.893,1.405-3.788,2.105-5.684
		c0.06-0.162,0.091-0.334,0.156-0.493c0.109-0.266,0.083-0.508-0.21-0.585c-0.3-0.079-0.377,0.176-0.486,0.41
		c-0.807,1.739-1.631,3.471-2.452,5.203c-0.12,0.254-0.256,0.527-0.594,0.481c-0.34-0.046-0.259-0.349-0.282-0.578
		c0.171-1.691,1.169-3.03,1.907-4.48c0.351-0.69,0.923-1.305,0.787-2.173c-0.097-1.382,0.988-2.274,1.442-3.43
		c0.247-0.628,0.792-0.076,1.187-0.051c0.481,0.03,0.454,0.388,0.323,0.771c-0.127,0.368,0.006,0.741,0.354,0.876
		c0.434,0.168,0.46-0.312,0.583-0.546c0.896-1.708,1.633-3.473,1.783-5.426c0.034-0.439,0.278-0.439,0.562-0.271
		c0.48,0.282,0.845,0.179,1.152-0.261c0.113-0.163,0.214-0.392,0.476-0.235c0.163,0.098,0.222,0.264,0.144,0.447
		c-0.228,0.537,0.246,1.117-0.175,1.681c-0.289,0.387-0.099,1.308-1.051,0.684c-0.168-0.11-0.398,0.088-0.475,0.297
		c-0.11,0.296-0.161,0.639,0.001,0.902c0.208,0.339,0.404-0.016,0.59-0.106c0.231-0.111,0.393,0.046,0.581,0.109c0,0,0,0,0,0
		c0.462,0.569,0.2,1.275,0.159,1.844c-0.053,0.718-0.833,0.195-1.354,0.299C144.785,11.639,145.08,12.353,145.143,13.097z"/>
	<path id="XMLID_305_" class="st6" d="M101.751,67.489c0.358,0.456,0.084,1.068,0.38,1.71c0.61-0.799,1.122-1.508,1.681-2.178
		c0.16-0.192,0.338-0.66,0.702-0.332c0.299,0.271,0.044,0.524-0.187,0.772c-0.707,0.759-1.325,1.571-1.126,2.717
		c0.023,0.131,0.038,0.316-0.033,0.404c-0.792,0.973-1.083,2.271-2.037,3.136c-0.06-0.405,0.215-0.719,0.289-1.083
		c0.049-0.243-0.074-0.506-0.29-0.619c-0.253-0.132-0.367,0.116-0.434,0.303c-0.914,2.541-2.863,4.508-3.861,7.008
		c-0.816,2.044-2.146,3.783-3.399,5.577c-1.132,1.621-2.04,3.398-3.041,5.11c-0.124,0.211-0.233,0.424-0.476,0.52
		c-0.274,0.146-0.449-0.014-0.616-0.199c1.307-2.833,3.158-5.333,4.859-7.924c0.071-0.108,0.079-0.258,0.117-0.389
		c-0.176-0.632,0.346-1.002,0.572-1.477c0.28-0.588,0.611-1.154,0.917-1.73c0.845-1.363,1.751-2.692,2.405-4.165
		c0.1-0.224,0.221-0.425,0.465-0.517c0.575-1.029,0.304-2.302,1.016-3.313C100.409,69.749,101.057,68.603,101.751,67.489z"/>
	<path id="XMLID_304_" class="st3" d="M82.363,114.479c-1.283,1.202-2.063,2.499-3.018,3.647c-0.418,0.502-0.806,1.027-1.222,1.531
		c-0.127,0.153-0.312,0.384-0.509,0.248c-0.267-0.184-0.085-0.426,0.066-0.622c0.921-1.199,1.751-2.485,2.789-3.573
		c1.223-1.283,2.12-2.79,3.198-4.168c0.19-0.243,0.314-0.607,0.661-0.583c0.453,0.032,0.178,0.408,0.227,0.642
		c0.088,0.425,0.375,0.268,0.505,0.065c0.941-1.461,2.463-2.493,3.07-4.202c0.165-0.466,0.856-0.652,0.722-1.322
		c-0.296-0.307-0.598,0.266-0.913,0.048c-0.023-0.404,0.237-0.582,0.535-0.664c1.499-0.416,2.001-1.123,1.869-2.694
		c-0.027-0.327,0.083-0.587,0.263-0.863c1.693-2.592,3.511-5.104,5-7.827c0.114-0.209,0.286-0.382,0.685-0.462
		c-0.535,1.717-1.566,3.051-2.459,4.451c-0.942,1.477-1.929,2.925-2.9,4.383c-0.079,0.119-0.163,0.243-0.051,0.365
		c0.145,0.157,0.353,0.114,0.461-0.013c0.243-0.288,0.446-0.61,0.659-0.922c0.138-0.203,0.269-0.451,0.564-0.285
		c0.348,0.196,0.2,0.487,0.044,0.712c-1.71,2.472-3.18,5.105-5.062,7.462c-1.729,2.166-3.42,4.363-5.156,6.523
		c-0.343,0.427-0.836,1.294-1.222,0.971c-0.418-0.351,0.332-0.963,0.691-1.379C82.168,115.589,82.333,115.215,82.363,114.479z"/>
	<path id="XMLID_303_" class="st35" d="M122.923,41.741c-0.87-0.122-1.231,0.397-1.357,1.298c-0.417-1.027,0.06-1.998,0.917-2.149
		c0.17-0.03,0.436-0.019,0.363-0.228c-0.452-1.292,0.575-2.138,1.079-3.003c1.637-2.812,3.23-5.632,4.712-8.536
		c0.949-1.861,2.077-3.684,3.104-5.523c0.893-1.598,2.223-2.981,2.628-4.846c0.071-0.327,0.316-0.523,0.596-0.677
		c0.508-0.311,0.563-0.263,0.661,0.568c-0.07,0.63-0.301,1.206-0.627,1.741c-2.442,4.017-4.428,8.282-6.749,12.364
		c-0.309,0.543-0.645,1.062-1.01,1.566c-0.682,0.798-1.016,1.789-1.492,2.702c-0.864,1.096-1.223,2.461-1.943,3.635
		C123.557,41.058,123.44,41.558,122.923,41.741z"/>
	<path id="XMLID_302_" class="st36" d="M127.074,34.268c0.896-1.618,1.849-3.206,2.673-4.859c1.287-2.58,2.782-5.048,4.068-7.631
		c0.511-1.026,1.317-1.909,1.569-3.077c0.359-0.858,0.57-1.79,1.248-2.488c0.717-0.91,1.055-2.064,1.865-2.914
		c0.768,0.208,0.282,0.647,0.14,0.954c-0.696,1.494-1.658,2.851-2.256,4.398c-0.171,0.442-0.227,0.938-0.577,1.301
		c-1.602,2.639-2.942,5.422-4.492,8.094c-1.373,2.367-2.713,4.777-3.899,7.266c-0.759,1.592-1.928,3.003-2.75,4.592
		c-0.677,1.31-1.358,2.615-2.214,3.818c-0.151,0.213-0.337,0.582-0.621,0.388c-0.31-0.212,0.019-0.462,0.152-0.693
		c0.318-0.557,0.766-1.04,0.945-1.675c0.629-1.248,1.402-2.422,1.885-3.746c0.152-0.417,0.375-0.817,0.809-1.031
		C126.127,36.079,126.471,35.103,127.074,34.268z"/>
	<path id="XMLID_301_" class="st6" d="M103.621,71.434c0.692-1.583,1.726-2.961,2.626-4.421c1.095-1.776,1.96-3.689,3.208-5.373
		c0.123-0.165,0.249-0.332,0.396-0.475c0.194-0.188,0.413-0.448,0.701-0.197c0.235,0.204,0.053,0.457-0.062,0.657
		c-0.892,1.565-1.715,3.175-2.916,4.542c-0.45,0.512-0.356,1.226-0.727,1.793c-1.147,1.752-1.926,3.72-3.128,5.449
		c-0.175,0.251-0.47,0.654-0.151,1.025c0.051,0.059,0.307-0.058,0.469-0.093c-0.135,1.239-1.18,1.968-1.705,2.999
		c-0.894,1.756-1.919,3.449-2.842,5.196c-0.346,0.655-0.767,1.363-1.587,1.677c-0.201-0.713-0.109-1.246,0.53-1.565
		c0.571-0.286,0.528-0.936,0.843-1.375c0.931-1.298,1.667-2.725,2.5-4.081c0.714-1.163,0.995-2.614,1.6-3.889
		c0.161-0.34,0.296-0.688,0.499-1.012C104.09,71.946,104.213,71.569,103.621,71.434z"/>
	<path id="XMLID_300_" class="st3" d="M73.935,129.356c-0.071,0.69-0.143,1.381-0.214,2.071c-0.72,0.047-1.273,0.253-1.726,0.942
		c-0.381,0.58-0.755,0.948-0.094,1.538c0.252,0.225,0.217,0.569,0.018,0.853c-0.192,0.273-0.421,0.446-0.784,0.267
		c-0.2-0.098-0.438-0.073-0.552,0.126c-0.147,0.256,0.097,0.359,0.272,0.45c0.375,0.196,0.402,0.528,0.366,0.885
		c-0.021,0.215-0.103,0.422-0.344,0.446c-0.239,0.024-0.231-0.196-0.268-0.358c-0.21-0.917-0.647-0.372-1.033-0.16
		c-0.01-0.269-0.147-0.41-0.418-0.418c0.003-0.671,0.003-0.671-0.621-0.828c0.631-0.601,0.895-1.435,1.356-2.145
		c0.116-0.179,0.143-0.401,0.017-0.584c-0.14-0.202-0.29-0.055-0.435,0.031c-0.18,0.107-0.296,0.467-0.583,0.194
		c-0.203-0.192-0.059-0.386,0.086-0.534c0.203-0.206,0.332-0.783,0.6-0.581c1.519,1.148,1.572-0.621,1.934-1.121
		c0.464-0.64,0.478-1.24,1.384-0.456C73.253,130.283,73.509,129.462,73.935,129.356z"/>
	<path id="XMLID_299_" class="st10" d="M133.051,14.77c-0.355,0.737-0.541,1.308-0.871,1.778c-1.504,2.139-2.488,4.579-3.96,6.735
		c-0.282,0.413-0.532,1.113-1.096,0.766c-0.527-0.324-0.058-0.976,0.232-1.252c1.149-1.094,1.653-2.598,2.568-3.841
		c0.908-1.233,1.573-2.645,2.346-3.978c0.122-0.21,0.238-0.453,0.548-0.323C132.947,14.708,133.027,14.829,133.051,14.77z"/>
	<path id="XMLID_298_" class="st3" d="M69.157,137.035c-0.492,0.982-0.305,2.289-1.451,2.969c-0.2,0.119-0.213,0.416-0.017,0.646
		c0.227,0.265,0.376,0.57,0.439,1.009c-0.949-0.183-1.931-1.198-2.707,0.151c0.35-1.181,1.244-2.081,1.672-3.222
		c0.047-0.125,0.124-0.255,0.223-0.341c0.431-0.377,0.223-1.034,0.553-1.384C68.278,136.428,68.645,137.483,69.157,137.035z"/>
	<path id="XMLID_297_" class="st37" d="M89.303,90.335c0.205,0.066,0.41,0.133,0.616,0.199c-0.823,1.919-2.07,3.573-3.285,5.246
		c-0.178,0.246-0.456,0.425-0.451,0.774c-0.365,0.59-1.03,0.954-1.248,1.655c-0.699-0.142-0.351-0.571-0.176-0.84
		c1.151-1.769,2.303-3.539,3.522-5.261C88.681,91.541,88.957,90.923,89.303,90.335z"/>
	<path id="XMLID_296_" class="st10" d="M136.631,16.213c-0.212,0.932-0.682,1.734-1.248,2.488c-0.135-0.211,0.348-0.836-0.418-0.623
		c-0.28-1.179,0.741-1.705,1.249-2.489C136.217,15.887,136.354,16.097,136.631,16.213z"/>
	<path id="XMLID_295_" class="st3" d="M65.559,138.569c0.514-0.912,0.497-2.138,1.61-2.668
		C67.001,137.011,66.443,137.894,65.559,138.569z"/>
	<path id="XMLID_294_" class="st3" d="M75.116,123.634c-0.495,0.704-0.959,1.415-1.486,2.075c-0.123,0.154-0.355-0.1-0.271-0.254
		c0.391-0.716,0.694-1.5,1.332-2.046C74.852,123.27,75.081,123.348,75.116,123.634z"/>
	<path id="XMLID_293_" class="st6" d="M100.507,75.378c0.089,0.166,0.242,0.204,0.414,0.205c-0.291,0.462-0.575,0.93-0.879,1.384
		c-0.094,0.14-0.264,0.274-0.434,0.166c-0.166-0.106-0.152-0.318-0.033-0.456C99.927,76.273,99.899,75.597,100.507,75.378z"/>
	<path id="XMLID_292_" class="st9" d="M68.538,135.17c0.343,0.135,0.603-0.601,0.942-0.127c0.286,0.4-0.199,0.638-0.321,0.956
		C68.343,136.179,68.36,135.735,68.538,135.17z"/>
	<path id="XMLID_291_" class="st3" d="M63.346,145.549c0.051,0.89-0.42,1.52-1.037,2.076
		C62.618,146.915,62.649,146.065,63.346,145.549z"/>
	<path id="XMLID_290_" class="st23" d="M58.779,141.397c0.2-0.135,0.389-0.292,0.603-0.398c0.332-0.165,0.695-0.415,1.025-0.016
		c0.284,0.345,0.235,0.607-0.122,0.96c-0.43,0.427-0.043,1.102-0.336,1.711c-0.234,0.488,0.601,0.911,1.191,1.122
		c0.183,0.066,0.434,0.121,0.446,0.371c0.014,0.305-0.265,0.437-0.478,0.461c-0.69,0.076-1.419,1.047-2.085-0.069
		c-0.109-0.183-0.311-0.028-0.431,0.098c-0.235,0.248-0.535,0.445-0.634,0.802c-0.598,2.14-1.984,3.903-2.851,5.891
		c-0.864,1.979-2.084,3.765-2.837,5.787c-0.453,1.215-1.066,2.458-1.756,3.446c-1.302,1.865-2.307,3.936-3.812,5.654
		c-0.217,0.248-0.371,0.447-0.396,0.784c-0.03,0.392-0.178,0.659-0.678,0.422c-0.54-0.256-0.587,0.084-0.469,0.49
		c0.07,0.241,0.434,0.415,0.178,0.726c-1.646,1.996-2.722,4.392-4.627,6.238c-0.788,0.764-1.45,1.637-2.439,2.175
		c-0.197,0.107-0.311,0.347-0.197,0.536c0.663,1.107-0.317,1.483-0.883,2.046c-0.578,0.185-1.149-0.078-1.736-0.038
		c-0.315,0.021-0.653-0.325-0.55-0.793c-0.03-0.88,1.122-1.169,1.039-2.076c0.081-0.196,0.22-0.334,0.415-0.415
		c1.896-2.077,3.542-4.339,5.045-6.715c1.46-2.308,3.011-4.558,4.459-6.873c0.499-0.798,0.8-1.697,1.375-2.487
		c0.815-1.118,1.392-2.406,2.099-3.605c0.257-0.437,0.569-0.79-0.273-0.886c-0.799-0.091-0.315-0.613-0.232-0.932
		c0.13-0.501,0.363-1.148,0.983-0.931c0.39,0.137,0.676,0.541,0.939-0.021c0.252-0.538,0.664-1.164,0.091-1.719
		c-0.697-0.676-0.325-1.184,0.328-1.24c0.959-0.083,1.209-0.742,1.579-1.368c0.141-0.238,0.255-0.491,0.384-0.735
		c0.086-0.163,0.201-0.306,0.401-0.188c0.182,0.107,0.149,0.277,0.075,0.451c-0.307,0.724-0.744,1.393-0.901,2.18
		c-0.046,0.229-0.24,0.504,0.087,0.618c0.327,0.114,0.363-0.246,0.462-0.438c0.465-0.902,1.268-1.745,1.532-2.576
		c0.362-1.143,1.048-2.145,1.287-3.313c0.048-0.235,0.28-0.598-0.147-0.688c-0.357-0.076-0.47,0.247-0.461,0.538
		c0.021,0.714-0.605,1.049-0.892,1.581c-0.078,0.145-0.263,0.276-0.435,0.166c-0.17-0.108-0.144-0.316-0.031-0.46
		c0.851-1.083,1.054-2.465,1.694-3.644c0.148-0.273,0.302-0.659,0.669-0.485c0.453,0.215,0.061,0.494-0.046,0.758
		c-0.119,0.293-0.46,0.693-0.064,0.909c0.443,0.241,0.532-0.291,0.681-0.563C57.635,143.57,58.203,142.481,58.779,141.397z"/>
	<path id="XMLID_289_" class="st4" d="M36.358,177.312c-0.079,0.198-0.217,0.336-0.415,0.415c-0.928-0.372-1.061,0.563-1.352,0.967
		c-0.741,1.028-1.552,1.999-2.297,3.019c-1.454,1.991-3.299,3.644-4.754,5.636c-0.351,0.48-0.945,0.758-1.175,1.413
		c-0.081,0.232-0.659,0.494-0.996,0.214c-0.435-0.36,0.091-0.565,0.25-0.826c0.304-0.5,0.997-1.127,0.576-1.557
		c-0.408-0.417-0.575,0.704-1.189,0.731c-0.154-0.714,0.286-1.28,0.684-1.683c1.322-1.339,2.424-2.856,3.601-4.307
		c0.982-1.21,1.622-2.679,2.632-3.884c1.178-1.406,2.256-2.889,3.389-4.328c0.647-0.823,1.596-1.403,2.067-2.396
		c0.078-0.165,0.225-0.295,0.415-0.208c0.287,0.132,0.103,0.345,0.049,0.526c-0.354,1.19-1.136,2.131-1.918,3.032
		c-1.827,2.103-3.41,4.4-5.291,6.468c-0.809,0.889-1.638,1.896-2.107,3.128c-0.228,0.599-1.011,0.984-1.537,1.474
		c-0.195,0.182-0.499,0.381-0.222,0.678c0.337,0.361,0.547-0.001,0.746-0.217c2.149-2.331,4.024-4.891,6.037-7.334
		c1.43-1.735,2.895-3.466,4.151-5.362c0.483-0.729,1.009-1.543,1.747-2.126c0.44-0.348,0.753-0.796,0.889-1.365
		c0.08-0.335,0.253-0.646,0.544-0.862c0.24-0.179,0.517-0.265,0.751-0.036c0.195,0.191,0.159,0.47-0.003,0.666
		c-1.363,1.654-2.028,3.796-3.76,5.214c-0.642,0.526-1.028,1.371-1.505,2.088C36.202,176.737,35.999,177.037,36.358,177.312z"/>
	<path id="XMLID_288_" class="st23" d="M36.358,184.993c0.207-0.277,0.414-0.554,0.621-0.831c0.642,1.207,0.543,1.331-0.493,1.958
		c-0.595,0.36-1.39,0.695-1.398,1.629c-0.002,0.177-0.106,0.428-0.255,0.408c-0.77-0.103-1.147,0.645-1.796,0.782
		c0.145-0.627-0.472-0.979-0.57-1.571c-0.082-0.495-0.451,0.05-0.619,0.228c-0.582,0.615-0.656,0.219-0.68-0.319
		c-0.208-0.393-0.5-0.631-0.978-0.629c-0.666,0.003-0.598-0.338-0.39-0.812c0.261-0.592,0.783-0.953,1.163-1.436
		c1.006-1.28,2.071-2.514,3.112-3.766c0.156-0.13,0.341-0.143,0.451,0.016c0.388,0.562,0.888,0.696,1.528,0.504
		c0.296-0.089,0.668-0.14,0.792,0.242c0.123,0.378-0.237,0.52-0.488,0.691c-0.069,0.069-0.138,0.138-0.207,0.208
		c-0.152,0.172-0.121,0.592-0.396,0.538c-1.036-0.201-1.553,0.763-2.391,0.997c-0.462,0.129-0.696,0.442-0.117,0.745
		c0.45,0.235,0.492,0.616,0.519,1.081c0.478-0.19,0.665-0.6,0.928-0.943c0.518-0.675,0.78-0.641,1.104,0.129
		C35.928,185.154,36.113,185.159,36.358,184.993z"/>
	<path id="XMLID_287_" class="st7" d="M19.957,194.542c-0.405-0.067-0.81-0.196-1.213-0.188c-0.754,0.016-1.264,0.941-0.818,1.548
		c0.462,0.629,0.128,0.712-0.379,0.707c-0.425-0.005-0.969,0.202-1.225-0.299c-0.26-0.51,0.164-0.772,0.462-1.165
		c0.651-0.859,1.551-1.471,2.184-2.251c0.615-0.757,1.1-1.68,1.788-2.436c0.981-1.079,1.359-1.182,2.634-0.68
		c0.201,0.079,0.412,0.137,0.428,0.379c0.02,0.312-0.232,0.391-0.472,0.449c-0.227,0.055-0.43,0.183-0.697,0.1
		c-0.713-0.222-0.856,0.178-0.78,0.773c0.16,1.24-0.243,1.668-1.406,1.454c-0.377-0.07-0.715-0.043-0.917,0.288
		c-0.285,0.466,0.3,0.421,0.427,0.65c0.08,0.146,0.128,0.309,0.191,0.464C20.142,194.451,20.071,194.518,19.957,194.542z"/>
	<path id="XMLID_286_" class="st33" d="M34.908,165.478c0.368-0.165,0.515-0.524,0.747-0.816c0.654-0.822,1.413-1.442,2.573-1.051
		c-1.164,1.566-2.331,3.131-3.49,4.701c-0.16,0.216-0.371,0.63-0.594,0.36c-0.596-0.722-1.055-0.228-1.679-0.04
		C33.279,167.58,34.093,166.529,34.908,165.478z"/>
	<path id="XMLID_285_" class="st4" d="M26.545,182.829c-0.098-0.068-0.209-0.107-0.253-0.183c-0.133-0.232,0.052-0.375,0.179-0.535
		c0.815-1.018,1.531-2.137,2.465-3.029c0.985-0.942,1.595-2.113,2.279-3.223c0.507-0.822,1.438-1.28,1.732-2.242
		c0.049-0.162,0.25-0.252,0.433-0.146c0.248,0.144,0.166,0.357,0.053,0.534c-0.438,0.691-0.826,1.426-1.347,2.05
		c-1.098,1.315-2.128,2.663-3.021,4.134c-0.522,0.861-1.303,1.568-1.987,2.327C26.95,182.66,26.731,182.724,26.545,182.829z"/>
	<path id="XMLID_284_" class="st4" d="M36.358,182.087c0.061-0.255,0.491-0.426,0.288-0.699c-0.208-0.28-0.505-0.018-0.735,0.095
		c-0.973,0.482-1.281-0.448-1.837-0.849c0.199-0.355,0.476-0.63,0.83-0.831c0.269,0.452,0.517,0.818,1.165,0.454
		c0.4-0.225,0.686,0.407,1.12,0.377c-0.021,0.228-0.135,0.504-0.047,0.677C37.713,182.441,37.101,182.319,36.358,182.087z"/>
	<path id="XMLID_283_" class="st4" d="M23.694,185.408c0.135-0.28,0.342-0.487,0.622-0.623c0.592-0.013,0.632-0.554,0.877-0.905
		c0.233-0.333,0.487-0.657,0.873-0.833c0.196,0.158,0.301,0.362,0.174,0.554c-0.585,0.887-1.349,1.642-2.16,2.289
		C23.491,186.36,23.709,185.678,23.694,185.408z"/>
	<path id="XMLID_282_" class="st7" d="M14.35,199.109c-0.138,0.07-0.275,0.141-0.413,0.211c-0.673-0.293-0.561-0.778-0.094-1.047
		c0.484-0.279,0.929-0.502,1.176-1.044c0.1-0.219,0.409-0.484,0.665-0.253c0.276,0.249-0.034,0.479-0.198,0.687
		C15.106,198.144,14.729,198.627,14.35,199.109z"/>
	<path id="XMLID_281_" class="st4" d="M19.957,194.542c0.069-0.069,0.138-0.138,0.207-0.207c0.478,0.26,0.528,0.59,0.156,0.982
		c-0.117,0.124-0.23,0.305-0.374,0.34c-0.445,0.108-0.748,0.961-1.146,0.556c-0.641-0.652,0.496-0.527,0.612-0.943
		C19.488,194.997,19.768,194.782,19.957,194.542z"/>
	<path id="XMLID_280_" class="st4" d="M26.003,181.007c-0.254,0.026-0.422-0.07-0.4-0.265c0.051-0.471,0.266-0.857,0.758-1.001
		c0.259-0.076,0.417,0.092,0.41,0.318C26.755,180.579,26.348,180.798,26.003,181.007z"/>
	<path id="XMLID_279_" class="st7" d="M10.405,206.997c-0.003-0.274-0.152-0.404-0.415-0.421c0.216-0.235,0.095-0.727,0.51-0.779
		c0.369-0.046,0.504,0.249,0.533,0.581C10.891,206.652,10.69,206.868,10.405,206.997z"/>
	<path id="XMLID_278_" class="st4" d="M22.754,191.874c0.192,0.033,0.304,0.139,0.278,0.34c-0.035,0.271-0.21,0.423-0.474,0.424
		c-0.191,0.001-0.303-0.132-0.277-0.333C22.316,192.032,22.493,191.903,22.754,191.874z"/>
	<path id="XMLID_277_" class="st4" d="M12.483,198.695c0.258,0.068,0.672-0.174,0.729,0.276c0.028,0.22-0.234,0.482-0.454,0.454
		C12.309,199.367,12.551,198.953,12.483,198.695C12.483,198.695,12.483,198.695,12.483,198.695z"/>
	<path id="XMLID_276_" class="st4" d="M21.793,193.632c-0.016,0.182-0.092,0.339-0.272,0.388c-0.231,0.063-0.292-0.106-0.298-0.288
		c-0.006-0.175,0.026-0.351,0.242-0.383C21.671,193.318,21.774,193.431,21.793,193.632z"/>
	<path id="XMLID_275_" class="st38" d="M33.037,188.939c0.493-0.372,0.576-1.411,1.605-0.933c0.223,0.104,0.296-0.259,0.235-0.441
		c-0.17-0.511-0.129-0.782,0.497-0.949c0.595-0.158,0.737-1.236,1.677-0.908c0.098,0.034,0.165-0.354,0.089-0.544
		c-0.13-0.327-0.173-0.658-0.161-1.003c0.07-0.137,0.141-0.274,0.211-0.411c1.466-0.092,2.293-1.056,2.993-2.194
		c0.09-0.147,0.182-0.292,0.308-0.412c0.215-0.204,0.47-0.318,0.749-0.175c0.297,0.152,0.302,0.44,0.223,0.721
		c-0.123,0.436-0.331,0.829-0.664,1.146c-0.422,0.466-0.871,0.912-1.178,1.534c0.425-0.491,0.719-1.019,1.114-1.469
		c0.657-0.844,1.42-1.603,2.036-2.475c0.553-0.782,1.134-1.466,2.168-1.59c0.256-0.031,0.521-0.318,0.758-0.054
		c0.293,0.326-0.086,0.552-0.202,0.814c0,0,0,0,0,0c-0.258,0.011-0.614,0.158-0.546,0.35c0.296,0.835-0.427,1.315-0.579,1.968
		c-0.336,1.448-0.903,2.564-2.411,3.186c-0.839,0.346-0.341,1.275-0.206,1.963c-0.616,0.059-1.261-0.139-1.847,0.124
		c-0.477,0.214-1.11,0.493-0.155,0.977c0.198,0.1,0.34,0.259,0.299,0.493c-0.046,0.267-0.286,0.233-0.484,0.286
		c-0.537,0.146-1.4,0.021-0.96,1.062c0.022,0.052-0.019,0.189-0.029,0.189c-1.29-0.025-0.793,1.325-1.403,1.837
		c-0.232,0.195-0.367,0.16-0.505,0.003c-0.506-0.579-0.758-0.263-1.076,0.22c-0.448,0.68-1.047,1.123-1.955,0.961
		c-0.21-0.038-0.408-0.006-0.509-0.222c-0.087-0.185,0.018-0.348,0.155-0.452c0.72-0.546,0.958-1.666,2.073-1.744
		c0.136-0.01,0.281-0.049,0.299-0.225c0.164-1.642,1.501-2.512,2.406-3.667c0.021-0.027,0.062-0.041,0.075-0.07
		c0.202-0.434,0.987-0.896,0.538-1.251c-0.418-0.329-0.614,0.542-0.934,0.855c-1.424,1.392-2.527,3.073-4.006,4.424
		c-0.524,0.478-0.876,0.189-1.272-0.055c-0.469-0.29-0.127-0.57,0.045-0.859C32.703,189.623,32.862,189.276,33.037,188.939z"/>
	<path id="XMLID_274_" class="st18" d="M7.92,209.913c-0.51,0.593-0.928,1.306-1.823,1.395c0.277-0.754,0.81-1.307,1.414-1.805
		C7.509,209.778,7.663,209.897,7.92,209.913z"/>
	<path id="XMLID_273_" class="st3" d="M64.591,122.712c-1.149,1.587-1.636,3.515-2.663,5.166c-0.035,0.056-0.025,0.138-0.055,0.197
		c-0.188,0.364-0.478,0.906-0.838,0.716c-0.457-0.242-0.079-0.757,0.147-1.058c0.358-0.476,0.605-0.972,0.281-1.502
		c-0.769-1.259-0.169-2.192,0.637-3.103c0.918,0.221,1.266-0.357,1.619-1.06c0.338-0.673,0.858-1.24,0.499-2.096
		c-0.203-0.485,0.122-0.935,0.352-1.359c0.826-1.523,1.654-3.045,2.492-4.561c0.156-0.283,0.332-0.765,0.716-0.528
		c0.31,0.191,0.314,0.619-0.039,0.97c-0.691,0.688-0.998,1.641-1.569,2.417c-0.151,0.205-0.159,0.437-0.021,0.732
		c0.955-0.657,1.294-1.726,1.886-2.581c0.289-0.417,0.633-0.799,0.907-1.228c0.149-0.234,0.365-0.477,0.667-0.256
		c0.272,0.199,0.062,0.455-0.053,0.645c-0.713,1.176-1.313,2.453-2.198,3.485C66.075,119.204,65.508,121.043,64.591,122.712z"/>
	<path id="XMLID_272_" class="st5" d="M95.944,78.91c-0.432,1.103-1.109,2.075-1.665,3.112c-0.207,0-0.415,0-0.622,0
		c0.244-0.617,0.343-1.271,0.93-1.755c0.704-0.58,0.279-1.444,0.316-2.189C95.368,78.208,95.778,78.407,95.944,78.91z"/>
	<path id="XMLID_271_" class="st2" d="M95.944,78.91c-0.343-0.282-0.814-0.405-1.042-0.832c0.67-0.412,1.254-0.904,1.732-1.547
		c0.312-0.419,0.525-0.728,0.216-1.268c-0.341-0.596,0.333-0.898,0.545-1.337c0.427-0.004,0.859-0.04,1.244,0.207
		C97.998,75.871,97.004,77.409,95.944,78.91z"/>
	<path id="XMLID_270_" class="st34" d="M107.562,55.237c0.876-1.648,1.726-3.312,2.903-4.777c0.469-0.127,0.427-0.795,0.935-0.887
		c0.03,0.062,0.098,0.138,0.081,0.173c-0.898,1.831-1.745,3.695-3.016,5.31C108.018,55.623,107.954,55.599,107.562,55.237z"/>
	<path id="XMLID_269_" class="st39" d="M89.292,81.811c-0.409,0.183-0.607,0.563-0.801,0.922c-1.111,2.054-2.588,3.86-3.892,5.784
		c-0.071,0.104-0.167,0.191-0.352,0.229c0.147-1.232,1.072-2.077,1.616-3.102c0.577-1.086,1.341-2.072,1.986-3.124
		c0.645-1.051,1.243-2.13,1.862-3.197c0.294-0.133,0.474-0.373,0.639-0.64c0.156-0.251,0.359-0.67,0.665-0.463
		c0.345,0.233,0.068,0.592-0.126,0.887c-0.485,0.737-0.952,1.487-1.415,2.239C89.389,81.484,89.352,81.655,89.292,81.811z"/>
	<path id="XMLID_268_" class="st40" d="M5.636,205.964c-0.023-0.494,0.064-1.161-0.715-0.444c-0.316,0.291-0.693,0.309-1.057,0.144
		c-0.415-0.189-0.168-0.521-0.123-0.807c0.047-0.294-0.016-0.563-0.312-0.694c-0.308-0.136-0.521,0.057-0.715,0.265
		c-0.162,0.174-0.302,0.376-0.489,0.516c-0.225,0.17-0.534,0.3-0.74,0.027c-0.259-0.343,0.121-0.479,0.321-0.614
		c0.84-0.57,1.334-1.34,1.443-2.352c0.014-0.133,0.065-0.278,0.03-0.397c-0.102-0.354-0.97-0.12-0.675-0.657
		c0.334-0.608,0.751-1.224,1.369-1.631c0.026,0.836,0.309,1.05,0.955,0.396c0.144-0.146,0.293-0.289,0.445-0.427
		c0.143-0.13,0.306-0.158,0.461-0.033c0.146,0.118,0.203,0.279,0.109,0.455c-0.177,0.331-0.306,0.716-0.562,0.971
		c-0.432,0.43-0.439,0.934-0.341,1.432c0.109,0.556,0.326,1.065,0.99,0.385c0.462-0.473,0.726-0.365,0.856,0.308
		C7.147,204.144,6.515,205.095,5.636,205.964z"/>
	<path id="XMLID_267_" class="st3" d="M22.871,180.452c-0.558,0.423-0.446,1.269-1.099,1.667c-0.893,0.543-1.682,1.193-2.118,2.191
		c-0.078,0.179-0.252,0.335-0.416,0.453c-0.301,0.216-0.696,0.503-0.998,0.188c-0.287-0.3,0.057-0.658,0.281-0.887
		c1.226-1.247,2.222-2.723,3.697-3.721c0.163-0.11,0.282-0.337,0.52-0.209C22.804,180.169,22.814,180.307,22.871,180.452z"/>
	<path id="XMLID_266_" class="st19" d="M10.823,190.805c0.341-0.494,0.742-0.927,1.261-1.239
		C11.883,190.201,11.486,190.638,10.823,190.805z"/>
	<path id="XMLID_265_" class="st3" d="M47.773,147.418c0.473-0.585,0.988-1.142,1.248-1.869c0.034,0.001,0.068,0.001,0.102,0.002
		c0.243,0.013,0.637,0.147,0.46,0.34c-0.563,0.615-0.542,1.595-1.265,2.041C47.975,148.144,47.82,147.743,47.773,147.418z"/>
	<path id="XMLID_264_" class="st3" d="M60.581,126.745c0.36,0.043,0.323,0.358,0.227,0.537c-0.306,0.572-0.658,1.121-1.02,1.66
		c-0.162,0.242-0.363,0.138-0.487-0.066C59.174,128.668,60.305,126.778,60.581,126.745z"/>
	<path id="XMLID_263_" class="st3" d="M56.271,134.993c-0.122,1.043-0.227,1.907-0.883,2.584c-0.095,0.098-0.186,0.23-0.336,0.131
		c-0.075-0.049-0.163-0.226-0.152-0.235C55.625,136.852,55.24,135.649,56.271,134.993z"/>
	<path id="XMLID_262_" class="st3" d="M52.878,142.727c-0.194-0.055-0.295-0.179-0.294-0.37c0.002-0.204,0.113-0.312,0.321-0.295
		c0.166,0.013,0.229,0.134,0.237,0.279C53.153,142.535,53.044,142.655,52.878,142.727z"/>
	<path id="XMLID_261_" class="st23" d="M45.494,179.596c0.045-0.227,0.091-0.453,0.138-0.689c-2.164,0.174-2.797,2.15-4.056,3.365
		c-0.267,0.258-0.421,0.625-0.859,0.645l0.001,0.001c0.154-0.38,0.303-0.763,0.463-1.141c0.094-0.222,0.263-0.484-0.009-0.642
		c-0.304-0.177-0.526,0.05-0.648,0.32c-0.287,0.635-0.821,1.079-1.211,1.611c-0.617,0.841-1.271,0.908-2.124,0.684
		c0.59-0.447,0.904-0.99,1.109-1.751c0.145-0.539,0.414-1.391,1.307-1.478c0.433-0.042,0.476-0.433,0.607-0.745
		c0.099-0.237,0.088-0.578,0.475-0.582c0.303-0.003,0.488,0.073,0.564,0.441c0.099,0.475,0.514,0.432,0.618,0.07
		c0.392-1.365,1.573-2.137,2.305-3.239c0.147-0.222,0.443-0.484,0.122-0.695c-0.25-0.164-0.366,0.191-0.514,0.371
		c-0.201,0.244-0.393,0.717-0.786,0.363c-0.409-0.367,0.071-0.618,0.291-0.813c0.549-0.486,0.634-1.305,1.277-1.71
		c0.168-0.106,0.333-0.219,0.499-0.329c0.81,1.376,1.11-0.221,1.672-0.287c0.541,0.486,0.47,0.974-0.049,1.4
		c-0.466,0.383-0.365,0.684,0.056,0.985c0.146,0.105,0.316,0.149,0.483,0.037c0.159-0.108,0.261-0.309,0.171-0.447
		c-0.637-0.982,0.013-1.679,0.643-2.464c-0.57,0.085-0.79,0.674-1.303,0.488c-0.03-0.593-0.161-1.013-0.856-0.519
		c-0.079,0.056-0.195,0.087-0.294,0.086c-0.333-0.003-0.711,0.141-0.961-0.196c-0.132-0.177,0.071-0.305,0.148-0.448
		c0.218-0.406,0.437-0.211,0.801-0.157c0.741,0.11,1.262-0.662,1.45-1.174c0.408-1.113,1.018-1.886,2.104-2.327
		c0.244-0.099,0.44-0.322,0.652-0.497c0.192-0.159,0.194-0.348,0.064-0.55c-0.159-0.247-0.333-0.166-0.517-0.031
		c-0.2,0.147-0.431,0.305-0.623,0.039c-0.08-0.111-0.087-0.36-0.015-0.477c0.167-0.27,0.418-0.1,0.648-0.046
		c0.492,0.116,1.006,0.062,1.472,0.39c0.285,0.201,0.88,0.073,0.611-0.385c-0.726-1.237,0.041-2.094,0.613-2.974
		c0.564-0.866,1.089-1.732,1.373-2.732c0.108-0.381,0.43-0.638,0.767-0.488c0.386,0.172,0.283,0.571,0.083,0.892
		c-0.317,0.507-1.001,0.954-0.254,1.626c-0.666,0.353-0.884,0.979-1.009,1.66c-0.051,0.279-0.168,0.507-0.443,0.625
		c-0.224,0.06-0.485,0.102-0.209,0.414c0.377,0.454,0.285,1.377,1.246,1.246c-0.19,0.557-0.36,1.139-1.123,1.11
		c-0.165-0.006-0.317,0.058-0.288,0.2c0.332,1.601-1.038,2.498-1.574,3.734c-0.251,0.58-0.484,0.963,0.228,1.418
		c-0.773-0.175-1.296,0.633-2.035,0.258c-0.146-0.074-0.4,0.179-0.194,0.414c0.81,0.922-0.001,1.487-0.53,1.961
		c-0.635,0.569-1.154,1.135-1.354,1.985C46.572,179.055,45.901,179.202,45.494,179.596z"/>
	<path id="XMLID_260_" class="st23" d="M55.042,164.855c-0.415,0.623-0.83,1.246-1.246,1.869c-1.035-0.347-0.826-0.871-0.207-1.453
		c0.338-0.015,0.577-0.23,0.83-0.415C54.627,164.856,54.834,164.856,55.042,164.855z"/>
	<path id="XMLID_259_" class="st3" d="M54.419,164.856c-0.277,0.779-0.358,0.819-0.83,0.415
		C53.649,164.699,53.935,164.58,54.419,164.856z"/>
	<path id="XMLID_258_" class="st3" d="M52.343,166.101c-0.154,0.041-0.322,0.14-0.457,0.107c-0.144-0.035-0.118-0.228-0.021-0.32
		c0.188-0.177,0.33-0.579,0.686-0.201C52.482,165.825,52.413,165.963,52.343,166.101z"/>
	<path id="XMLID_257_" class="st23" d="M58.572,161.536c-0.112,0.668-0.528,1.185-0.874,1.734c-1.376,2.185-2.354,4.585-3.686,6.79
		c-0.667,1.104-1.036,2.344-1.68,3.433c-0.432,0.732-0.93,1.454-1.443,2.149c0.857-2.545,2.053-4.943,3.193-7.366
		c1.215-0.419,0.6-1.822,1.359-2.509c1.137-1.028,0.949-2.896,2.353-3.78C58.05,161.827,58.217,161.525,58.572,161.536z"/>
	<path id="XMLID_256_" class="st9" d="M59.61,159.459c-0.088,0.82-0.628,1.415-1.034,2.077c-0.011-0.135,0.026-0.305-0.042-0.399
		c-0.494-0.684-0.342-1.095,0.477-1.307C59.228,159.774,59.411,159.586,59.61,159.459z"/>
	<path id="XMLID_255_" class="st1" d="M145.143,13.097c-0.586-0.598-0.342-1.49-0.771-2.17c-0.16-0.254,0.283-0.653,0.569-0.466
		c1.076,0.703,1.103,0.195,0.951-0.711c-0.054-0.324,0.049-0.674,0.08-1.012c0.426,0.275,0.85,0.554,0.422,1.141
		c-0.22,0.302,0.046,0.598-0.002,0.9c-0.042,0.266,0.072,0.576-0.155,0.787c-0.377,0.349-1.641,0.228-0.648,1.273
		C145.44,12.926,145.292,13.012,145.143,13.097z"/>
	<path id="XMLID_254_" class="st4" d="M36.358,184.993c-0.375,0.273-0.864,0.845-0.71-0.269c0.022-0.157-0.001-0.279-0.172-0.31
		c-0.293-0.052-0.462,0.131-0.557,0.364c-0.263,0.643-0.708,1.082-1.425,1.338c-0.038-0.647,0.177-1.378-0.845-1.501
		c-0.366-0.044-0.08-0.966,0.476-1.032c0.578-0.068,0.965-0.269,1.236-0.778c0.181-0.339,0.495-0.331,0.811-0.176
		c0.44,0.216,0.711-0.056,0.98-0.335c0.058,0.157,0.072,0.365,0.182,0.464c0.535,0.477,0.512,0.889-0.019,1.366
		C36.038,184.372,35.561,184.747,36.358,184.993z"/>
	<path id="XMLID_253_" class="st2" d="M84.068,109.199c-0.251-0.02-0.397-0.097-0.48-0.265c-0.069-0.139-0.029-0.265,0.075-0.372
		c0.165-0.169,0.353-0.321,0.493-0.508c0.234-0.313,0.3-0.843,0.814-0.794c0.246,0.023,0.135,0.326,0.066,0.516
		C84.828,108.35,84.626,108.926,84.068,109.199z"/>
	<path id="XMLID_252_" class="st2" d="M86.609,105.032c-0.182,0.429-0.178,1.031-0.925,1.048
		C85.757,105.472,86.131,105.204,86.609,105.032z"/>
	<path id="XMLID_251_" class="st2" d="M139.135,23.461c0.13-0.484,0.158-0.903,0.345-1.23c0.966-1.683,1.581-3.528,2.467-5.247
		c0.129-0.251,0.107-0.79,0.49-0.639c0.44,0.174,0.232,0.668,0.054,0.979c-0.901,1.572-1.384,3.348-2.384,4.869
		C139.842,22.594,139.925,23.235,139.135,23.461z"/>
	<path id="XMLID_250_" class="st1" d="M139.554,12.063c0.188-0.694,0.369-1.199,0.933-1.593
		C140.711,11.317,140.358,11.724,139.554,12.063z"/>
	<path id="XMLID_249_" class="st2" d="M127.074,34.268c-0.409,0.94-0.747,1.919-1.457,2.697
		C125.911,35.962,126.291,35.006,127.074,34.268z"/>
	<path id="XMLID_248_" class="st3" d="M46.455,164.916c-0.065,0.213-0.116,0.459-0.395,0.515c-0.208,0.041-0.328-0.09-0.323-0.282
		c0.007-0.271,0.174-0.439,0.443-0.464C46.314,164.672,46.45,164.72,46.455,164.916z"/>
	<path id="XMLID_247_" class="st4" d="M31.638,186.029c-0.26-0.028-0.602-0.042-0.565-0.406c0.031-0.307,0.364-0.384,0.634-0.385
		c0.263-0.001,0.453,0.168,0.456,0.45C32.165,186.036,31.889,186.014,31.638,186.029z"/>
	<path id="XMLID_246_" class="st23" d="M40.717,182.917c-0.137,0.941-0.762,1.503-1.501,1.976c0.359-0.768,0.472-1.728,1.502-1.975
		C40.718,182.918,40.717,182.917,40.717,182.917z"/>
	<path id="XMLID_245_" class="st4" d="M32.993,190.208c-0.117-0.287,0.095-0.421,0.243-0.521c0.301-0.203,0.327-0.729,0.808-0.697
		c0.159,0.011,0.233,0.162,0.2,0.303c-0.102,0.436-0.443,0.673-0.8,0.884C33.3,190.264,33.139,190.34,32.993,190.208z"/>
	<path id="XMLID_244_" class="st3" d="M46.739,173.367c0.382-0.234,0.741-0.492,1.01-0.862c0.109-0.15,0.305-0.201,0.464-0.107
		c0.192,0.113,0.083,0.293,0.037,0.457c-0.075,0.268-0.14,0.54-0.373,0.719c-0.575,0.442-0.76,0.879-0.213,1.528
		c0.314,0.372,0.072,0.833-0.331,1.044c-0.662,0.345-0.894-0.322-1.232-0.648c-0.355-0.343-0.147-0.645,0.241-0.781
		c0.78-0.275,0.553-0.815,0.397-1.348C46.738,173.368,46.739,173.367,46.739,173.367z"/>
	<path id="XMLID_243_" class="st3" d="M50.569,168.412c0.257,0.055,0.292,0.2,0.19,0.379c-0.304,0.53-0.609,1.06-0.934,1.576
		c-0.125,0.198-0.321,0.254-0.515,0.061c-0.177-0.176-0.386-0.425-0.114-0.6c0.51-0.33,0.869-0.757,1.136-1.288
		C50.367,168.47,50.498,168.448,50.569,168.412z"/>
</g>
</svg>
