<?xml version="1.0" encoding="utf-8"?>
<!-- Generator: Adobe Illustrator 19.0.0, SVG Export Plug-In . SVG Version: 6.00 Build 0)  -->
<svg version="1.1" id="图层_1" xmlns="http://www.w3.org/2000/svg" xmlns:xlink="http://www.w3.org/1999/xlink" x="0px" y="0px"
	 viewBox="0 0 1280 800" style="enable-background:new 0 0 1280 800;" xml:space="preserve">
<style type="text/css">
	.st0{fill:#477174;}
	.st1{fill:#74979A;}
	.st2{fill:#40676C;}
	.st3{fill:#96B7B5;}
	.st4{fill:#537D81;}
	.st5{fill:#8AB4AF;}
	.st6{fill:#618B8E;}
	.st7{fill:#6E9798;}
	.st8{fill:#5B8284;}
	.st9{fill:#679091;}
	.st10{fill:#454F53;}
	.st11{fill:#3D5F68;}
	.st12{fill:#487377;}
	.st13{fill:#63878C;}
	.st14{fill:#6C9398;}
	.st15{fill:#95B7B4;}
	.st16{fill:#527B80;}
	.st17{fill:#97B9B5;}
	.st18{fill:#709D9B;}
	.st19{fill:#9BCAC0;}
	.st20{fill:#486B74;}
	.st21{fill:#3C6A6D;}
	.st22{fill:#618B8F;}
</style>
<g id="XMLID_1_">
	<path id="XMLID_159_" class="st0" d="M323.093,0.988c-1.252,16.704-2.528,33.406-3.746,50.113
		c-0.824,11.304-1.501,22.62-2.356,33.922c-1.797,23.752-3.723,47.495-5.487,71.25c-0.9,12.125-1.563,24.267-2.333,36.402
		c-0.878,2.391-0.405,4.873-0.37,7.299c0.042,2.972-0.328,5.151-4.088,5.203c-3.653,0.051-5.591-1.381-5.652-5.11
		c-0.083-5.084-0.153-10.17,0.019-15.251c0.265-7.815-1.452-15.435-2.15-23.158c0.221-4.179-1.995-8.153-1.739-12.125
		c0.812-12.608,0.419-25.247,1.335-37.832c0.202-2.776,0.513-5.552,0.46-8.329c-0.367-19.209,2.358-38.27,2.758-57.421
		c0.246-11.777,1.139-23.62-0.527-35.409c-0.402-2.847-0.954-5.928,1.193-8.514l0.007-0.005c2.477-1.418,5.375,0.36,7.855-1.034
		C313.212,0.988,318.152,0.988,323.093,0.988z"/>
	<path id="XMLID_158_" class="st1" d="M223.3,802.298c0.429-0.999-0.085-2.256,0.851-3.116c9.057,1.282,18.175,0.274,27.25,0.728
		c10.336-0.005,20.68-0.146,31.015,0.078c4.106,0.089,5.51-0.812,6.223-5.403c1.664-10.709,1.314-21.565,3.143-32.216
		c0.258-1.502,0.138-2.932-0.193-4.383c-0.273-1.778,0.199-3.426,0.844-5.048c1.349-4.649,0.912-9.481,0.876-14.156
		c-0.152-19.975-0.35-39.943,0.095-59.92c0.145-6.512-0.952-13.049,0.357-19.556c1.58-2.067,3.052-1.928,4.427,0.215
		c1.008,2.529,0.738,5.19,0.741,7.81c0.026,19.428,0.024,38.857,0.006,58.285c-0.005,5.271,0.498,10.468,1.137,15.714
		c0.852,7.004-1.682,13.972-1.431,21.047c-0.735,2.518-1.296,5.132-0.89,7.726c1.347,8.622-1.696,17.194-0.029,25.878
		c0.592,3.081,1.818,4.211,4.534,4.524c0.724,0.38,1.297,0.851,1.077,1.794C276.654,802.298,249.977,802.298,223.3,802.298z"/>
	<path id="XMLID_157_" class="st2" d="M303.332,802.298c-0.302-0.36-0.604-0.721-0.906-1.081c-1.136-1.118-1.508-2.549-1.343-4.04
		c0.793-7.133,0.495-14.307,0.898-21.453c0.089-1.57,0.035-3.332,1.99-4.118c1.665,1.379,0.232,3.467,1.164,4.983
		c0.246,8.569,0.49,17.137,0.173,25.709C304.649,802.298,303.99,802.298,303.332,802.298z"/>
	<path id="XMLID_156_" class="st3" d="M308.272,0.988c-2.443,1.675-5.226,0.771-7.855,1.034c-0.016-0.345-0.033-0.689-0.05-1.034
		C303.002,0.988,305.637,0.988,308.272,0.988z"/>
	<path id="XMLID_155_" class="st4" d="M294.463,659.037c0.287,6.544,0.111,13.096,0.372,19.649
		c0.172,4.308-0.303,8.804-0.328,13.212c-0.078,13.584-0.198,27.172,0.045,40.752c0.099,5.545-0.17,11.071-0.155,16.606
		c0.004,1.568,0.566,3.334-0.963,4.614c-1.907-2.073-1.329-4.659-1.333-7.059c-0.03-18.228-0.225-36.454-0.121-54.684
		c0.072-12.634,0.185-25.279-0.175-37.915c-0.013-0.461-0.085-0.946-0.673-1.229c-1.461,1.614-1.232,3.673-1.218,5.566
		c0.044,5.87-2.351,10.826-5.459,15.564c-1.706,2.6-3.414,2.238-4.937-0.08c-1.363-2.074-2.665-4.439-2.694-6.823
		c-0.067-5.393-3.455-7.924-7.634-9.749c-2.382-1.04-3.458-2.661-4.294-4.962c-1.846-5.084-2.528-10.579-5.384-15.305
		c-0.251-0.415-0.565-1.014-0.41-1.393c1.769-4.336-1.024-8.153-1.337-12.244c-0.244-3.195-0.491-6.334,3.213-8.044
		c-6.443-4.203-6.302-4.206-6.485-11.794c-0.267-11.036,1.497-21.942,2.114-34.111c-1.86,7.393-1.645,13.822-2.084,20.128
		c-1.06,15.212-0.471,30.494-0.999,45.739c-0.057,1.645,0.056,3.309-0.343,4.908c-0.295,1.183-0.284,2.965-2.131,2.713
		c-1.491-0.203-2.033-1.603-1.99-3.014c0.117-3.776-0.332-7.547-0.07-11.319c0.388-5.578-0.716-11.154-0.228-15.13
		c0.277,10.11,0.053,21.822,0.421,33.53c0.026,0.822,0.206,1.654,0.108,2.462c-0.259,2.13,0.709,5.527-2.397,5.537
		c-2.703,0.008-2.97-3.446-2.835-5.542c0.57-8.88-0.359-17.75,0.004-26.588c0.233-5.666-1.663-11.087-0.901-16.7
		c-1.64,14.525,1.153,29.094-0.598,43.64c-0.46,3.819-0.837,7.487-2.96,10.772c-2.333,1.223-3.219-0.651-3.318-2.127
		c-0.365-5.437-2.263-10.562-3.47-15.757c-1.625-6.993,2.755-12.663,2.436-19.22c-0.253-5.19-0.13-10.447,1.267-15.575
		c0.826-3.03-0.416-4.266-3.685-4.681c-6.492-0.823-6.461-1.071-5.727-7.85c-0.279-13.318,0.802-26.6,1.046-39.905
		c0.564-30.734,0.97-61.471,1.385-92.208c0.217-16.076,1.578-32.136,2.396-48.205c0.142-2.79,0.107-5.589,0.234-8.38
		c0.731-16.071,1.467-32.141,2.252-48.209c0.144-2.946,0.526-5.881,0.799-8.821c0.592-0.199,1.942,1.216,1.623-0.939
		c-0.434-2.928-0.198-5.909-0.149-8.865c0.063-3.778,0.222-7.537,2.537-10.838c0.952-1.357,1.283-3.061,1.251-4.715
		c-0.379-19.882,3.027-39.583,3.019-59.413c-0.005-12.44-1.455-24.882-0.904-37.361c0.101-2.284-0.263-4.62,0.806-6.785
		c2.497,0.228,2.619,0.216,2.844,2.684c0.344,3.773,0.052,7.568,0.16,11.351c0.242,8.488-1.186,17.128,2.558,25.299
		c0.823,1.796,0.322,3.896-0.113,5.845c-0.143,0.641-0.165,1.107-0.065,0.456c0.003-0.021,0.054-0.034,0.309-0.183
		c-0.79-5.394,3.642-8.052,6.506-11.611c0.223-0.751,0.559-1.438,1.096-2.012c2.922-1.286,3.904,0.439,4.307,2.868
		c0.376,2.265,0.344,4.611,1.336,6.746c0.344,0.74,0.758,1.649,1.671,1.632c1.369-0.026,1.303-1.265,1.352-2.186
		c0.182-3.451,0.036-6.909,0.096-10.363c0.026-1.478-0.094-3.012,0.604-4.361c0.925-1.788,2.098-1.979,3.307-0.208
		c0.28,0.411,0.342,0.92,0.495,1.389c0.577,1.765,0.148,4.733,2.705,4.573c2.639-0.165,2.665-3.234,2.683-5.169
		c0.05-5.271,1.408-10.442,1.021-15.727c-0.121-1.649,0.048-3.595-0.892-4.8c-4.39-5.63,0.192-8.873,3.061-12.609
		c0.607-0.79,1.297-1.657,2.409-1.384c1.388,0.34,1.388,1.593,1.541,2.764c1.047,8.055-0.224,16.013-0.832,24.013
		c-0.973,12.782-0.655,25.626-1.555,38.417c-0.045,0.638,0.03,1.326,0.611,1.918c1.806,0.108,2.024-1.477,2.141-2.594
		c0.528-5.044,2.088-10.035,1.068-15.176c-0.629-3.172,0.136-6.229,0.66-9.293c0.471-2.753,2.092-3.489,5.267-1.631
		c-2.933-7.156-3.198-14.01-2.489-20.947c0.487-4.772,2.667-7.433,6.587-8.074c1.009,1.7,1.228,4.189,4.434,3.243
		c1.991-0.588,2.886,1.1,3.204,2.869c0.41,2.284,0.254,4.576-0.079,6.859c-0.213,1.461-0.462,2.91-0.079,4.391
		c1.695,6.552,1.687,6.554,1.212,10.806c0.655-10.318,1.631-20.617,1.387-30.985c-0.05-2.121-0.185-4.28,0.619-6.323
		c0.374-0.949,1.004-1.869,2.075-1.811c1.422,0.077,1.137,1.388,1.111,2.273c-0.145,4.904,0.444,9.826-0.323,14.715
		c-0.073,2.865-0.146,5.73-0.219,8.596c-1.15,4.643,0.275,9.43-0.785,14.078c0.18,10.146-0.49,20.259-1.171,30.371
		c-0.082,5.065-2.276,9.34-4.609,13.714c-3,5.626-2.681,12.088-3.479,18.245c-0.128,0.987,0.411,1.951,1.106,2.671
		c3.381,3.504,3.826,7.734,3.499,12.351c-0.796,11.25-1.88,22.514,0.039,33.774c0.185,1.089,0.266,2.301-0.358,3.368
		c-0.585,17.567-1.07,35.138-1.789,52.7c-0.478,11.683,0.729,23.316,0.654,34.983c-0.038,5.915,0.142,11.831,0.223,17.746
		c0.369,0.784,0.355,1.572,0.03,2.363c-0.508,1.275-1.472,2.164-2.578,2.894c-2.32,1.53-3.21,3.642-2.671,6.351
		c0.6,3.013,0.042,5.865-1.103,8.655c-0.561,1.368-1.285,2.807-1.009,4.268c1.848,9.807,0.03,19.706-0.429,29.39
		c-0.396,8.347,0.598,16.952-1.537,25.307c-1.233,4.827,0.291,9.775,0.87,14.648c0.201,1.692,1.727,2.282,2.802,3.249
		c1.18,2.064,0.906,4.255,0.587,6.45c-0.951,2.842-0.416,6.423-3.949,8.014c-0.458,0.206-0.863,1.015-0.589,1.187
		c5.877,3.676,2.814,9.379,2.47,13.85c-0.697,9.057-0.307,18.077-0.555,27.107c-0.054,1.968,0.678,3.479,1.877,4.9
		c0.266,0.507,0.421,1.038,0.491,1.602c-0.657,7.047,1.199,14.007,0.68,21.054C295.742,654.735,295.839,657.031,294.463,659.037z"/>
	<path id="XMLID_154_" class="st2" d="M297.353,763.745c0.08-6.226-0.447-12.504,1.759-18.541c0.264-0.722,0.267-1.698,0.012-2.425
		c-2.689-7.685-1.597-15.645-1.658-23.49c-0.155-20.086-0.071-40.174-0.082-60.261c-1.059-1.61-1.363-3.353-0.942-5.229
		c1.074-4.203,0.377-8.487,0.576-12.73c0.069-1.47-0.064-2.963,0.442-4.382c0.282-0.79,0.742-1.516,1.646-1.64
		c1.183-0.163,1.765,0.653,2.146,1.603c0.433,1.078,0.455,2.234,0.565,3.379c2.542,26.446,1.93,52.969,2.038,79.476
		c0.009,2.226-1.099,4.56,0.376,6.714c0.039,5.599,0.077,11.198,0.116,16.796c-2.1,2.726-1.384,5.956-1.655,9.023
		c-0.569,6.447,1.011,13.061-1.564,19.362c-0.493,1.206-0.625,2.567-1.644,3.51c-0.479,0.443-1.022,0.882-1.747,0.666
		c-0.783-0.234-0.827-0.944-0.791-1.574C297.141,770.586,296.417,767.132,297.353,763.745z"/>
	<path id="XMLID_153_" class="st5" d="M300.166,473.242c0.12-0.697,0.239-1.394,0.36-2.091c1.133,1.811,0.685,3.839,0.714,5.774
		c0.147,9.696-0.156,19.415,0.427,29.082c0.535,8.865,0.494,17.729,0.848,26.588c0.065,1.628-0.126,3.267-0.199,4.901
		c-1.38,6.9,0.778,13.795,0.024,20.694c0.212,15.144-2.216,30.109-3.116,45.181c-0.403,6.744,0.081,13.488-0.525,20.206
		c-0.052,0.563-0.167,1.12-0.311,1.666c-0.564,1.467-0.562,3.082-1.069,4.556c-0.579,1.682-1.496,2.493-2.87,0.569l0,0.002
		c-1.507-1.985-1.21-4.324-1.369-6.602c-0.791-11.304,2.03-22.583,0.547-33.82c-0.682-5.168,0.933-9.932,0.83-14.909
		c-0.005-2.304-0.011-4.607-0.016-6.911c-0.973-6.015-0.889-12.065-0.382-18.1c0.975-11.596,1.278-23.224,1.927-34.833
		c0.704-12.589,1.116-25.215,2.914-37.728C299.115,475.978,299.657,474.624,300.166,473.242z"/>
	<path id="XMLID_152_" class="st6" d="M307.412,228.553c0-5.391,0-10.781,0-16.161c-1.94-0.065-2.004,1.006-2.056,1.953
		c-0.081,1.474-0.126,2.961-0.034,4.433c0.678,10.835-1.372,21.583-1.022,32.406c0.021,0.643-0.064,1.324-0.268,1.931
		c-0.27,0.803-0.813,1.455-1.779,1.397c-0.946-0.057-1.531-0.738-1.671-1.55c-0.308-1.774-0.58-3.606,0.612-5.214
		c1.495-2.016,1.64-3.858-0.507-5.557c-2.105-1.666-1.437-3.863-0.838-5.876c0.823-2.763,0.519-5.541,0.405-8.309
		c-0.062-1.504-1.077-1.954-2.41-1.15c-3.983,2.401-4.159,2.327-4.391-2.097c-0.043-0.82-0.037-1.642-0.053-2.464
		c-1.887-3.489-2.514-6.897,0.639-10.06c2.166,1.183,1.405,3.469,2.145,5.827c1.222-4.382,1.656-8.336,1.786-12.378
		c0.419-12.99-0.992-25.909-1.356-38.867c-0.051-1.799-1.047-4.014,1.757-4.795c0.991,3.831,1.146,7.734,1.02,11.662
		c-0.01,0.327-0.123,0.732,0.023,0.971c2.376,3.885,1.111,8.047,1.013,12.135c-0.098,4.091-0.024,8.186,0.002,12.279
		c0.031,4.786,1.382,5.824,6.199,4.846c1.228-0.249,1.467-1.175,1.511-2.176c0.079-1.798,0.061-3.601,0.114-5.401
		c0.038-1.283-0.242-2.657,0.917-3.663c-0.423,11.498-0.841,22.997-1.287,34.494C307.865,227.635,307.576,228.092,307.412,228.553z"
		/>
	<path id="XMLID_151_" class="st7" d="M301.437,365.721c0.28-3.934-2.348-7.326-2.017-11.31c0.27-3.246-0.492-6.544,0.508-9.779
		c0.226-0.732,0.128-1.639-0.053-2.41c-1.229-5.232,0.348-10.357,0.617-15.522c0.198-3.803-0.254-7.096-3.499-9.533
		c-1.298-0.975-1.762-2.389-1.491-3.948c0.84-4.822,1.681-9.638,2.064-14.53c0.085-1.085,0.75-2.164,1.294-3.167
		c2.438-4.501,5.429-8.743,6.379-13.924c0.531,8.4-0.69,16.738-0.898,25.114c-0.271,10.854-0.602,21.714-1.294,32.547
		c-0.504,7.885-0.736,15.768-0.903,23.659C302.121,363.902,302.131,364.902,301.437,365.721z"/>
	<path id="XMLID_150_" class="st8" d="M297.353,763.745c0,3.672,0,7.344,0,11.083c2.1-0.18,2.448-1.536,2.404-2.486
		c-0.102-2.214,0.271-4.133,1.766-5.82c0.276-0.311,0.516-1.119,0.352-1.287c-2.742-2.809-0.16-5.889-0.457-8.82
		c-0.31-3.064-0.059-6.186-0.034-9.283c0.017-2.058,1.285-3.241,2.963-4.117c1.026,11.173,0.977,22.371,0.787,33.572
		c-1.331-0.954-0.369-2.771-1.566-3.871c0.351,5.972-0.886,11.845-0.379,17.798c0.304,3.568-1.424,7.062-0.765,10.701
		c-0.816,0.02-1.633,0.076-2.448,0.056c-3.384-0.084-3.392-0.093-2.971-3.707c0.213-1.831-1.27-3.148-1.232-5.104
		c0.061-3.21-0.033-6.372,0.599-9.568c0.952-4.813-0.149-9.684,0.064-14.528C296.505,766.79,295.916,765.059,297.353,763.745z"/>
	<path id="XMLID_149_" class="st9" d="M297.392,625.422c0.002-6.056-0.638-12.199,0.173-18.144
		c0.929-6.804,1.041-13.652,1.526-20.441c0.685-9.589,2.952-19.048,2.426-28.725c0.707-0.149,1.126,0.131,1.258,0.841
		c0.315,8.65-0.412,17.316,0.384,25.959c0.032,17.458,0.065,34.916,0.097,52.375c-2.342-0.045-2.585-2.314-2.394-3.418
		C301.502,630.163,299.149,627.974,297.392,625.422z"/>
	<path id="XMLID_148_" class="st4" d="M297.392,625.422c3.18,1.502,6.071,3.009,4.383,7.546c-0.489,1.315,0.309,3.1,1.482,4.319
		c0.974,26.857,1.02,53.727,1.176,80.596c0.016,2.779-0.13,5.558-0.201,8.338c-1.191-0.941-3.192-1.525-1.335-3.659
		c0.808-0.928,0.421-2.213,0.421-3.336c-0.007-17.384-0.037-34.768-0.066-52.153c-0.001-0.819,0.25-1.815-0.118-2.428
		c-1.963-3.271-1.277-6.96-1.956-10.403c-0.962-4.881-0.312-9.737-0.805-14.574c-0.127-1.249,0.271-2.596-0.6-3.693
		c-1.672,0.096-1.333,1.319-1.346,2.187c-0.059,3.935-0.015,7.872-0.064,11.808c-0.018,1.431,0.394,2.994-0.93,4.146
		c-1.343-1.217-1.456-2.85-1.479-4.492c-0.114-8.099-0.362-16.208,1.44-24.194L297.392,625.422z"/>
	<path id="XMLID_147_" class="st5" d="M303.16,584.911c-1.249-1.592-0.703-3.463-0.738-5.213
		c-0.143-7.191-0.198-14.385-0.286-21.577c-0.185-4.274-0.97-8.567,0.409-12.791c0.166,0.456,0.474,0.911,0.477,1.369
		C303.121,559.436,303.609,572.173,303.16,584.911z"/>
	<path id="XMLID_146_" class="st10" d="M302.544,545.331c-0.136,4.263-0.272,8.527-0.408,12.791c-0.001,0-0.311,0.046-0.311,0.046
		s-0.309-0.055-0.308-0.055c-0.062-5.339-0.186-10.679-0.149-16.018c0.011-1.549-0.375-3.278,0.948-4.598
		C302.392,540.108,302.468,542.719,302.544,545.331z"/>
	<path id="XMLID_145_" class="st6" d="M306.408,251.226c-0.042-3.825-0.084-7.65-0.124-11.476c-0.01-0.976,0.093-1.914,0.909-2.602
		C307.059,241.848,307.717,246.592,306.408,251.226z"/>
	<path id="XMLID_144_" class="st11" d="M239.089,661.02c0.017-0.493-0.141-1.087,0.076-1.465c2.608-4.518,1.938-9.534,2.02-14.36
		c0.115-6.776,1.599-13.462,0.171-20.384c-0.901-4.366-0.786-9.14,0.363-13.698c0.647-2.568,0.52-5.224,0.073-7.827
		c-0.156-0.906-0.24-1.802,0.762-1.937c0.822-0.11,1.429,0.7,1.779,1.477c0.126,0.279,0.18,0.653,0.111,0.948
		c-1.16,4.992,0.484,9.714,1.353,14.513c0.115,0.637,0.246,1.355,0.072,1.947c-1.462,4.968-0.129,9.899,0.13,14.84
		c0.205,3.903-0.115,7.797-0.737,11.614c-0.48,2.947,0.627,5.288,1.372,7.852c1.46-0.314,1.405-1.281,1.314-2.008
		c-0.848-6.815,0.67-13.656-0.397-20.505c-0.385-2.472,0.59-5.154,0.451-7.783c-0.112-2.121-0.125-4.199-0.626-6.334
		c-0.833-3.547,0.738-6.922,1.763-10.372c1.15,3.698,0.732,7.487,0.803,11.225c0.079,4.112-0.322,8.268,0.146,12.329
		c0.432,3.752-1.037,7.692,0.938,12.246c1.377-2.763,1.386-5.029,1.199-6.839c-0.61-5.881,0.128-11.641,0.669-17.438
		c0.061-0.653,0.144-1.344,0.003-1.969c-1.961-8.649,0.119-17.295,0.284-25.918c0.134-6.961,0.293-14.063,1.725-20.989
		c0.299-1.447,0.587-2.775,2.423-3.884c0.869,4.089,0.722,7.744,0.156,11.41c-0.124,0.805-0.511,1.588-0.535,2.388
		c-0.292,9.668-1.565,19.298-1.067,29.002c0.121,2.356,0.481,3.454,3.359,3.421c2.57-0.029,3.79,2.441,4.589,4.815
		c-1.501,1.158-2.688-1.58-4.076-0.023c-1.14,1.279-0.743,2.773-0.888,4.213c-0.215,2.124,1.111,3.975,0.688,6.268
		c-0.378,2.051,2.467,2.068,3.694,3.289c-3.716,1.761-4.424,2.843-2.523,5.724c3.323,5.036,3.854,10.96,5.869,16.397
		c0.512,1.383,0.255,3.108,2.635,2.24c1.113-0.406,1.856,0.469,2.335,1.363c0.666,1.241,1.532,2.123,3.013,2.221
		c2.657,0.174,3.262,1.969,3.026,4.144c-0.417,3.844,1.74,6.923,2.853,10.311c0.255,0.778,0.69,1.723,1.587,1.679
		c1.204-0.058,1.418-1.166,1.514-2.173c0.079-0.831,0.153-1.71,0.803-2.271c4.082-3.52,3.99-8.386,4.092-13.09
		c0.063-2.907,0.562-5.511,2.483-7.785c2.501,0.718,2.831,2.742,2.43,4.684c-0.573,2.775-0.11,5.445-0.059,8.18
		c0.102,5.551,0.347,11.098-0.354,16.706c-0.447,3.578,0.641,7.446,0.496,11.21c-0.332,8.649,0.126,17.298-0.021,25.944
		c-0.213,12.435,0.205,24.868,0.006,37.301c-0.701,1.217-1.142,2.497-0.946,3.93c-1.059,10.815-0.932,21.745-3.02,32.454
		c-0.415,2.13-0.019,4.294-0.595,6.336c-0.608,2.155-1.928,3.204-3.843,1.166c-2.395-2.55-4.575-5.345-3.658-9.155
		c2.989-12.419,1.067-25.241,3.224-37.747c0.793-4.601-1.646-9.338-0.195-14.091c0.21-0.69-0.042-1.759-1.018-1.997
		c-1.134-0.277-1.887,0.578-2.395,1.378c-2.293,3.604-2.487,7.761-2.79,11.834c-0.127,1.715,1.159,3.865-0.848,4.936
		c-2.332,1.245-2.423-2.08-4.04-2.63c-1.627,1.214-1.155,3.011-1.392,4.542c-0.499,3.219-0.707,6.08-4.409,8.035
		c-3.663,1.935-4.353,6.336-4.63,10.393c-0.056,0.822-0.043,1.642-0.036,2.465c0.018,2.083,0.909,4.747-1.35,5.855
		c-2.651,1.299-3.14-2.214-5.284-3.315c-2.019,7.638-0.221,15.925-4.274,23.02c-8.01,0.004-16.019-0.009-24.029,0.026
		c-1.704,0.008-3.36,0.107-3.754-2.122c0.104-10.17,0.382-20.333,1.192-30.476c1.265-6.26-0.351-12.649,0.849-18.912
		c0.047-2.254,0.095-4.508,0.142-6.762c3.394,0.623,3.511,0.851,3.241,4.113c-0.303-4.803,0.255-11.493,0.303-18.193
		c0.021-2.841,0.167-5.58,2.464-7.692c0.731-0.672,1.315-1.596,1.288-2.59c-0.222-8.055,3.396-15.695,2.547-23.811
		c-0.306-2.927,0.883-5.409,2.219-7.905c1.69-3.155,2.38-6.377,0.422-9.805c-1.455-2.548-1.455-5.509-0.566-8.135
		c0.792-2.337,0.34-4.447,0.124-6.672C238.49,661.834,238.73,661.394,239.089,661.02z"/>
	<path id="XMLID_143_" class="st12" d="M294.447,212.437c-2.084,3.102-0.567,6.586-1.046,9.859c-3.423,2.889-5.549,6.328-4.92,11.05
		c0.172,1.29,0.077,2.625-0.5,3.87c-0.355,0.765-0.645,1.784-0.045,2.341c1.891,1.755,3.072,3.373,0.345,5.393
		c-0.452,0.335-0.232,0.969,0.195,1.264c0.837,0.578,2.268,0.438,2.035,2.161c-0.31,2.301,0.416,4.748-0.59,7.078
		c-1.938-0.698-1.175-2.112-1.529-3.083c-0.255-0.7-0.665-1.163-1.378-1.149c-0.706,0.014-1.385,0.486-1.297,1.186
		c0.445,3.556-1.919,6.9-0.428,10.65c0.733,1.844,0.502,4.299,0.044,6.328c-0.512,2.273-0.785,4.503-0.797,6.806
		c-0.01,1.85-0.699,3.564-1.52,5.144c-0.616,1.186-2.001,1.968-3.305,1.746c-1.538-0.262-1.089-1.836-1.046-2.888
		c0.143-3.422,0.123-6.836,0.485-10.276c0.293-2.789,0.456-5.752,0.423-8.628c-0.137-11.944,0.371-23.842,2.131-35.663
		c0.201-1.347,0.361-2.558-0.32-3.79c-1.026-1.855-1.003-3.754-0.192-5.693c0.315-0.752,0.512-1.56-0.768-2.494
		c-0.957,2.44-2.71,4.233-4.525,5.982c-1.431,1.38-2.969,2.322-0.028,4.374c1.469,1.025,1.372,4.484,1.708,6.881
		c0.249,1.774,0.388,3.688-0.007,5.405c-1.088,4.727-0.383,9.606-1.506,14.335c-0.518,2.181-1.178,4.153-3.326,4.877
		c-1.472,0.496-3.71-2.776-4.002-5.41c-0.131-1.182,0.48-2.6-1.159-3.622c-1.101,1.083-0.777,2.437-0.789,3.642
		c-0.043,4.275-0.006,8.551-0.032,12.827c-0.008,1.292,0.15,3.061-1.537,3.132c-1.711,0.072-3.794-0.225-4.248-2.53
		c-0.504-2.558-1.447-5.052-1.139-7.744c0.245-2.145-0.887-2.998-2.933-2.847c-2.515-5.336-1.165-10.942-0.991-16.428
		c0.082-2.585,0.442-5.258,1.292-7.765c0.498-1.469,1.535-2.61,3.138-2.844c1.659-0.242,2.189,1.108,2.769,2.316
		c0.548,1.14,0.893,2.826,2.648,2.22c1.396-0.482,0.59-2.003,0.836-3.049c1.106-4.708,1.154-9.329,0.197-14.13
		c-0.672-3.368-0.214-6.827,2.696-9.542c2.126-1.984,2.328-4.827,1.364-7.378c-1.28-3.384-1.395-6.643-0.578-10.112
		c0.41-1.741,0.257-3.623-0.078-5.406c-0.962-5.118-1.421-9.994,2.33-14.498c1.575-1.892,1.511-4.802,0.591-7.145
		c-1.347-3.431-1.337-6.83-0.179-10.134c2.711-7.732-1.232-13.691-5.123-19.552c-1.113-1.676-2.333-2.809-0.702-4.585
		c4.827-5.258,3.64-11.464,2.543-17.491c-0.427-2.346-0.636-4.515-0.06-6.776c1.469-5.768,1.992-11.589,1.261-17.524
		c-0.22-1.786-0.606-3.835,0.223-5.371c2.817-5.216,1.52-10.496,0.974-15.882c-0.732-7.21,0.43-14.418,0.735-21.626
		c0.178-4.198-0.414-8.319,0.155-12.929c-2.356,1.298-1.81,2.934-1.9,4.269c-0.639,9.514-0.804,19.053-1.307,28.57
		c-0.43,8.119,0.274,16.468-3.692,24.128c-1.301,2.512-1.062,5.473-0.847,8.27c0.958,12.495-0.38,24.922-1.064,37.368
		c-0.099,1.812-0.492,3.585-0.897,5.35c-0.407,1.776-0.702,3.884-2.854,4.177c-2.316,0.315-4.934-0.048-6.04-2.4
		c-1.299-2.762-3.721-4.511-5.326-6.963c1.261-13.314,1.477-26.682,2.296-40.016c0.732-11.914,0.297-23.878,0.125-35.822
		c1.094-15.994,0.853-32.031,1.531-48.038c0.049-1.167,0.177-2.287,1.008-3.196c2.622-0.402,5.249-0.512,7.885-0.14
		c-0.318,1.748-0.803,3.464,1.153,4.755c0.636,0.42,0.544,1.476,0.431,2.326c-0.074,0.561-0.376,1.154-0.012,1.714
		c-0.165-1.361,0.301-2.747,1.683-2.639c2.279,0.178,1.368,3.056,2.772,4.137c6.804-4.031,13.96-1.38,16.296,6.03
		c1.507-0.711,2.828-2.555,4.738-1.174c1.899,1.374,1.041,3.256,0.579,4.975c-0.511,1.905-1.332,3.746-0.966,5.394
		c0.078-1.234,0.114-3.037,2.285-3.19c2.232-0.157,2.829,1.654,2.805,3.306c-0.072,4.881,1.88,10.413-4.192,13.553
		c-1.539,0.796-1.374,2.557-0.655,3.98c0.974,1.928,1.967,3.793,1.545,6.083c-0.149,0.81-0.056,1.737,1.11,1.782
		c3.852,0.148,3.256,3.14,3.294,5.438c0.145,8.802,1.123,17.635-0.982,26.372c-0.938,3.895,0.11,7.851,0.098,11.786
		c-0.083,26.016,0,52.033-0.082,78.049c-0.015,4.816,0.345,9.518,1.855,14.115c0.677,6.068,0.306,12.145,0.294,18.215
		C295.904,209.52,295.779,211.192,294.447,212.437z"/>
	<path id="XMLID_142_" class="st13" d="M294.413,188.733c-1.74-2.917-1.964-6.135-1.961-9.428
		c0.02-26.676-0.034-53.353,0.058-80.029c0.018-5.214-0.893-10.418-0.088-15.643c0.199-1.29,0.206-2.586,0.602-3.872
		c1.22-3.957,2.024-7.946,0.406-12.035c-0.485-1.226-0.236-2.537-0.132-3.862c0.228-2.916,0.402-5.873-0.085-8.704
		c-2.065-0.969-1.55,2.344-2.977,1.6c-0.924-0.482-1.694-1.615-2.114-2.629c-0.739-1.786,2.183-2.809,1.175-4.893
		c-0.765-1.58-2.964-2.112-2.794-4.403c0.167-2.25,0.236-4.548,3.084-4.643c2.156-0.072,2.574-1.558,2.673-2.866
		c0.247-3.272,0.131-6.574,0.093-9.863c-0.01-0.9-0.52-1.561-1.548-1.466c-0.763,0.071-1.14,0.64-1.186,1.337
		c-0.086,1.312-0.048,2.632-0.136,3.944c-0.083,1.227,0.354,2.672-1.806,3.757c0.027-4.633-0.923-8.885,0.738-13.109
		c0.451-1.148,1.738-2.612-0.086-3.338c-1.422-0.566-2.818,0.365-3.458,1.943c-0.229,0.566,0.345,1.306-0.473,1.836
		c-2.078-0.607-1.855-2.383-1.8-3.952c0.076-2.179-1.096-3.331-2.939-4.05c-1.375-0.536-2.761-1.045-4.13-1.595
		c-3.669-1.472-3.674-1.483-5.963,2.236c-0.44,0.715-0.862,1.467-1.819,1.412c-1.184-0.068-1.61-0.957-1.862-1.967
		c-0.388-1.56,0.42-3.273-0.583-4.786c-1.014,1.44-1.627,3.045-2.02,5.587c-1.265-3.525,1.401-8.173-4.122-9.077
		c1.131-1.484,2.95-1.552,2.696-3.298c2.514-0.918,5.138-0.593,7.718-0.624c8.27-0.099,16.54-0.126,24.811-0.181
		c2.517,3.337,1.269,7.2,1.525,10.854c-2.451,18.591,2.067,37.07,0.914,55.643c-0.162,2.606,0.098,5.232-0.255,7.834
		c-2.256,6.255-0.151,12.795-1.215,19.136c-0.698,2.249-0.495,4.564-0.506,6.857c-0.118,23.988,0.197,47.974,0.171,71.962
		c-0.003,2.802,0.267,5.572,0.615,8.348C295.9,184.82,296.155,186.997,294.413,188.733z"/>
	<path id="XMLID_141_" class="st14" d="M239.089,661.02c0.007,0.323,0.01,0.646,0.01,0.968c0.063,3.361-0.828,6.721-0.438,10.042
		c0.639,5.436-2.425,8.537-6.363,11.233c-2.291,1.568-3.651,0.914-3.995-1.84c-0.04-0.324-0.048-0.653-0.044-0.981
		c0.135-12.911-1.256-25.743-1.949-38.612c-0.149-2.76-0.187-5.545,0.195-8.328c0.172-1.252-0.774,0.365-1.069-0.18
		c-0.461-3.635,0.455-7.196,0.58-10.794c0.24-6.895,0.273-13.797,0.445-20.695c0.053-2.109-0.413-4.285,0.644-6.297
		c0.028,0.161,0.043,0.326,0.087,0.484c0.469,1.711-0.53,4.899,0.782,4.954c2.459,0.104,4.47,2.272,6.906,1.329
		c2.604-1.009,3.287,0.147,3.233,2.462c-0.038,1.636-0.156,3.243-0.408,4.881c-0.508,3.31-1.148,6.533-1.064,10.049
		c0.1,4.22,1.011,8.924-1.889,13.154c-1.194,1.742-2.717,4.741-0.353,7.292c0.292,0.315,0.54,1.003,0.396,1.341
		c-1.758,4.115,0.947,7.423,1.976,11.009c0.425,1.48,0.338,2.927,0.333,4.389C237.1,658.614,237.288,660.184,239.089,661.02z"/>
	<path id="XMLID_140_" class="st15" d="M295.372,77.073c0.013-9.197-0.005-18.394,0.054-27.591c0.027-4.273-0.858-8.46-1.315-12.667
		c-0.537-4.94-0.703-9.71,0.11-14.623c0.504-3.043,0.177-6.224,0.223-9.343c2.545,0.112,2.144,2.226,2.143,3.634
		c-0.004,4.547,0.848,9.076,0.561,13.662c0.933-4.069,1.785-8.175,0.835-12.367c-1.235-5.444-0.308-10.636,1.397-15.788
		c0.343,0.013,0.687,0.027,1.03,0.04c0.972,12.946,1.63,25.94,0.779,38.878c-0.914,13.899-0.338,27.897-2.613,41.708
		c-0.106,0.644-0.113,1.313-0.096,1.969c0.396,15.288-1.217,30.529-1.051,45.812c0.043,3.934-0.186,7.835-0.781,11.769
		c-0.603,3.99-0.878,8.12,1.178,12.059c1.235,2.367,0.391,5.187,0.544,7.799c-0.888,0.702-1.092,1.724-0.786,2.662
		c1.202,3.685,0.449,7.482,0.794,11.204c0.95,10.254,1.134,20.521,1.094,30.81c-0.014,3.643-1.08,7.084-1.36,10.667
		c-0.128,1.637-0.994,3.401-3.141,4.899c-0.965-3.488-0.34-6.701-0.526-9.826c-0.011-7.901-0.022-15.802-0.034-23.703
		c-1.853-21.179-0.618-42.405-0.952-63.607c-0.135-8.559,0.006-17.122,0.069-25.683c0.012-1.602-0.421-3.326,0.85-4.718
		c1.407,1.215,1.578,2.917,1.441,4.536c-0.93,11.007-0.03,22.038-0.511,33.048c0.551-10.706,0.308-21.435,0.397-32.139
		c0.143-17.263,3.045-34.38,2.198-51.658c-0.044-0.907,0.336-1.875-0.21-2.687c0.706,9.49-0.359,19.001-0.36,28.522
		C297.335,75.598,297.361,77.131,295.372,77.073z"/>
	<path id="XMLID_139_" class="st16" d="M225.438,633.323c0.981-0.687,0.629-2.043,1.185-2.973c0.345,0.218,0.555,0.292,0.553,0.358
		c-0.346,9.694,1.591,19.302,1.089,29.001c-0.025,0.492-0.138,1.04,0.027,1.471c2.347,6.15,0.313,12.521,0.974,18.751
		c0.086,0.813-0.038,1.669,0.165,2.445c0.268,1.021,1.547,1.302,1.752,0.52c0.664-2.534,3.285-2.998,4.741-4.697
		c2.024-2.361,1.984-4.58,2.207-7.138c0.263-3.028-0.908-6.221,0.97-9.073c0.69,2.334,1.777,4.227,0.44,7.173
		c-1.133,2.497-1.82,6.507,1.73,8.912c0.732,0.496,0.782,1.445,0.452,2.251c-1.144,2.789-0.147,6.137-2.947,8.635
		c-1.335,1.192-1.557,3.714-1.486,5.998c0.153,4.941,0.687,9.962-1.583,14.731c-1.231,2.587-0.37,5.517-0.51,8.289
		c-0.1,1.969,0.228,3.94-2.429,4.696c-1.458,0.415-1.536,1.968-1.543,3.328c-0.027,5.203,0.362,10.454-0.225,15.594
		c-0.48,4.206,0.217,8.608-1.717,13.542c-1.523-2.982-1.227-5.363-0.693-7.612c0.547-2.302,0.25-3.87-2.255-4.494
		c-0.494-9.703,0.947-19.341,0.999-29.024c0.043-8.051,1.295-16.064,0.825-24.123c-0.765-13.117-1.538-26.234-2.482-39.338
		C225.261,644.798,224.946,639.072,225.438,633.323z"/>
	<path id="XMLID_138_" class="st12" d="M243.952,173.787c0.08-2.264,0.16-4.528,0.24-6.791c0.886-9.248,1.933-18.479,3.028-27.703
		c0.29-2.442-0.353-5.383,2.277-7.153c2.522,1.517,1.538,4.06,1.74,6.215c0.268,2.86-0.469,5.882,1.283,8.622
		c2.118-0.684,2.398-3.636,4.828-3.231c2.806,0.469,4.989,2.117,4.094,4.997c-1.844,5.932-1.166,12.103-2.352,18.065
		c-0.322,1.619-0.59,3.261-1.323,4.739c-0.926,1.867-1.786,4.486-4.565,3.031c-2.527-1.323-3.705-3.742-2.492-6.686
		c0.612-1.485,2.305-2.348,2.697-4.462c-1.527,0.028-3.741-1.797-3.863,0.909c-0.276,6.132-1.169,12.393,0.947,18.787
		c2.122-0.836,2.279-4.524,5.04-3.073c2.604,1.368,2.666,3.956,2.506,6.481c-0.189,2.981-0.687,5.818-2.799,8.23
		c-2.807,3.206-2.243,7.458-2.997,11.269c-0.976,4.932-3.35,8.311-8.536,9.227c-1.317-2.409-0.135-5.121-0.934-7.589
		c-0.672-4.725,0.498-9.426,0.198-14.147c0.052-1.265,0.103-2.53,0.155-3.795C245.037,184.501,243.651,179.1,243.952,173.787z"/>
	<path id="XMLID_137_" class="st17" d="M253.972,3.017c-0.028,7.67-0.244,15.346-0.035,23.009c0.258,9.47-0.955,18.87-0.989,28.318
		c-1.317,8.304-0.395,16.681-0.736,25.022c-0.608,14.853-0.286,29.758-2.562,44.501c-1.298,8.409-1.917,16.892-3.142,25.304
		c-0.137,0.943,0.077,2.068-1.43,2.003c-0.467-7.084,0.615-14.104,0.867-21.157c0.411-11.496,0.441-23.013,1.153-34.489
		c0.853-13.755,1.368-27.522,2.102-41.279c0.656-12.291,1.162-24.589,1.796-36.88c0.211-4.096,0.637-8.181,0.923-12.274
		C252.014,3.763,252.434,2.869,253.972,3.017z"/>
	<path id="XMLID_136_" class="st18" d="M244.052,220.336c-0.312,8.527,0.476,17.064-0.512,25.604
		c-0.245,2.116,0.117,4.608,0.629,6.789c1.377,5.869,1.15,11.82,0.726,17.66c-0.461,6.343-0.348,12.761-1.618,19.044
		c-0.129,0.64-0.157,1.307-0.167,1.963c-0.157,10.662-1.689,21.274-1.095,31.967c0.184,3.322-0.129,6.573-3.056,8.918
		c-1.194,0.956-0.8,2.427-0.81,3.703c-0.043,5.1,0.003,10.202-0.06,15.302c-0.015,1.243,0.458,2.621-0.873,3.992
		c-2.087-1.335-0.064-4.257-1.996-5.47c-0.692-7.521,0.96-14.955,0.843-22.453c-0.1-6.375,0.822-12.684,1.143-19.031
		c2.775,0.174,0.669,2.675,1.665,3.629c-0.694-19.389,4.496-38.704,1.087-58.169c0.452-11.917,0.904-23.834,1.355-35.75
		c0.037-0.98,0.036-1.968,0.641-2.819c1.525,0.855,1.954,2.41,2.496,3.895C244.52,219.584,244.386,219.993,244.052,220.336z"/>
	<path id="XMLID_135_" class="st19" d="M239.957,253.784c0.678,0.484-0.756,2.485,1.524,1.932c1.334-0.324,1.455,1.052,1.49,1.973
		c0.081,2.13,0.451,4.379-0.072,6.377c-1.108,4.228-0.764,8.469-0.811,12.714c-0.091,8.178-0.968,16.286-1.816,24.412
		c-0.455,4.363-0.241,8.794-1.568,13.174c-1.439-1.875,0.385-4.416-1.5-6.041c0.547-9.909,1.176-19.814,1.61-29.728
		c0.279-6.36,0.24-12.734,0.411-19.1C239.278,257.579,238.712,255.557,239.957,253.784z"/>
	<path id="XMLID_134_" class="st18" d="M245.079,151.176c1.933-2.896,1.3-6.388,1.584-9.474c0.447-4.852,1.39-9.694,1.332-14.597
		c-0.041-3.495,1.402-6.687,2.034-10.048c1.008-5.359,1.123-10.753,0.837-16.122c-0.299-5.607,1.402-11.043,1.009-16.603
		c-0.609-8.63,0.532-17.244,0.108-25.87c-0.069-1.41-0.415-2.997,0.965-4.117c-0.012,11.172,0.578,22.386-0.198,33.505
		c-0.844,12.092-0.591,24.226-1.86,36.283c-0.256,2.43-1.268,4.768-0.909,7.278c0.222,0.216,0.29,0.427,0.207,0.633
		c-0.082,0.203-0.162,0.304-0.24,0.304c-1.585,1.437-0.86,3.401-1.06,5.108c-0.639,5.452-1.61,10.828-2.67,16.214
		c-0.714,3.631-0.177,7.479-1.076,11.163c-0.196,0.803-0.261,1.602-0.95,2.162C244.038,161.697,244.256,156.419,245.079,151.176z"/>
	<path id="XMLID_133_" class="st3" d="M299.38,1.987c-0.122,3.43,0.377,6.889-0.829,10.266c-0.363,1.016-0.341,2.385,0.026,3.404
		c1.044,2.897,2.949,5.626,0.207,8.666c-0.521,0.578,0.316,1.504,0.82,2.157c1.142,1.478,0.717,2.804-0.529,3.908
		c-1.175,1.041-2.178,3.376-3.756,2.595c-2.022-1.001-0.046-2.924,0.312-4.313c0.811-3.145-0.499-6.126-0.298-9.225
		c0.141-2.166,0.952-4.622-0.888-6.599c-0.019-3.592-0.039-7.184-0.058-10.775C296.05,2.044,297.715,2.016,299.38,1.987z"/>
	<path id="XMLID_132_" class="st18" d="M243.952,173.787c1.983,4.48,0.892,9.181,0.936,13.793c0.01,1.001-0.894,1.66-1.765,2.151
		C243.347,184.414,242.477,179.039,243.952,173.787z"/>
	<path id="XMLID_131_" class="st4" d="M244.03,219.376c-1.383-1.042-1.634-2.648-2.076-4.161c0.067-2.241,0.134-4.481,0.2-6.722
		c0.205-0.422,0.507-0.756,0.907-1.001c1.991,2.425,0.519,5.297,1.023,7.914c0.365,0.352,0.62,0.771,0.769,1.256
		C245.029,217.703,244.905,218.654,244.03,219.376z"/>
	<path id="XMLID_130_" class="st18" d="M243.061,207.492c-0.302,0.334-0.605,0.668-0.907,1.001
		c-0.036-5.006-0.413-10.03,0.814-14.967c1.095,2.354,1.465,4.555,0.424,7.235C242.62,202.747,243.125,205.23,243.061,207.492z"/>
	<path id="XMLID_129_" class="st16" d="M226.191,749.793c0.017,5.407,0.033,10.814,0.05,16.221c0.003,0.998-0.063,1.973-0.899,2.691
		C225.337,762.389,224.85,756.05,226.191,749.793z"/>
	<path id="XMLID_128_" class="st20" d="M251.934,801.277c-1.303-2.732,0.847-5.021,1.222-7.508
		c0.829-5.505,0.143-11.152,1.741-16.548c0.219-0.741-0.115-1.807,0.91-2.049c1.248-0.294,1.745,0.697,1.977,1.669
		c0.44,1.849,1.749,2.996,3.122,4.646c1.319-1.788,0.953-3.411,0.753-4.954c-0.759-5.846,0.707-10.959,4.859-15.23
		c0.225-0.232,0.334-0.595,0.583-0.782c2.789-2.097,3.426-3.042,3.585-6.319c0.088-1.819,0.148-3.593,0.907-5.29
		c0.826-1.847,1.756-1.904,3.147-0.386c1.02,1.113,0.597,2.832,1.47,3.749c0.988,0.061,1.426-0.435,1.263-0.843
		c-1.251-3.133-0.214-6.159,0.054-9.286c0.416-4.847,2.468-8.232,7.001-10.644c1.058,3.021,2.36,5.779,0.861,8.884
		c-0.51,1.057-1.054,2.125-0.458,3.277c2.399,4.635,0.74,9.21-0.087,13.821c-0.844,4.707-0.018,9.459-0.177,14.197
		c-0.16,4.778-0.715,9.454-1.727,14.087c-0.395,1.808-0.018,3.648-0.408,5.378c-0.771,3.42,3.228,3.912,3.844,6.575
		c0.165,0.713,1.78-0.438,1.899-1.372c0.371-2.896,0.04-5.965,0.865-8.701c1.948-6.462,0.591-13.186,2.053-19.659
		c0.754-3.336-0.208-6.923,1.294-10.189c1.923,3.245,0.347,6.563,0.045,9.796c-0.39,4.179-1.383,8.362-0.979,12.536
		c0.469,4.843-1.202,9.326-1.676,13.996c-0.217,2.14-0.288,4.188,0.434,6.908C277.292,801.584,264.606,801.139,251.934,801.277z"/>
	<path id="XMLID_127_" class="st9" d="M297.393,625.429c0.013,9.562,0.026,19.124,0.039,28.686
		c-0.015,1.638-0.031,3.276-0.047,4.914c-0.976-0.613-1.95-0.615-2.923,0.008c-0.006-3.759,0.012-7.518-0.025-11.277
		c-0.029-2.926,0.01-5.817-0.766-8.735c-0.761-2.862-0.195-5.832,0.778-8.657c0.931,0.299,1.879,0.755,1.971-0.907
		C296.498,628.072,295.986,626.508,297.393,625.429z"/>
	<path id="XMLID_126_" class="st21" d="M244.088,216.37c-0.004-0.321-0.005-0.643-0.004-0.964c1.217-0.912,1.123-2.859,3.348-3.181
		c2.374-0.343,2.992-3.021,3.312-5c0.364-2.252,1.161-4.532,1.068-6.746c-0.14-3.309,1.555-5.314,3.325-7.785
		c2.173-3.034,2.33-6.951,1.202-10.644c-0.254-0.833-1.016-1.821-2.215-1.48c-0.903,0.257-1.079,1.158-1.146,1.994
		c-0.09,1.127-0.134,2.257-0.218,3.744c-3.481-1.881-5.001-4.28-4.815-8.044c0.244-4.92-0.002-9.863,0.076-14.794
		c0.055-3.474,0.416-3.64,3.263-1.791c0.553,0.359,0.812,0.637,1.588,0.209c1.884-1.04,2.055-0.931,2.003,0.813
		c-0.045,1.518,0.526,3.102-1.408,4.312c-2.933,1.836-2.935,2.598-1.233,5.395c0.513,0.843,1.114,1.635,2.407,1.965
		c2.197-2.079,2.812-4.951,3.189-7.829c0.48-3.664,0.839-7.356,0.982-11.046c0.085-2.185,0.359-4.211,1.42-6.147
		c1.142-2.083,0.159-3.348-1.759-4.301c-1.709-0.849-2.84-0.529-3.415,1.309c-0.335,1.07,0.124,2.325-0.9,3.508
		c-2.937-1.002-4.3-2.961-4.204-6.176c0.113-3.778,0.005-7.562-0.007-11.344c-0.012-0.314-0.001-0.626,0.033-0.937
		c3.429-1.271,3.654,1.768,4.644,3.583c0.673,1.234,0.575,2.748,2.583,3.107c3.95,0.708,3.931,0.857,4.697-3.221
		c1.104-5.881,1.513-11.762,1.528-17.791c0.01-3.906-0.581-8.087,0.559-11.889c0.988-3.297,0.452-6.459,0.12-9.574
		c-0.606-5.698-0.509-11.122,2.471-16.213c0.75-1.281,1.209-2.661,1.202-4.212c-0.043-9.483,1.238-18.91,1.054-28.417
		c-0.122-6.307,0.577-12.63,0.922-18.944c0.076-1.394,0.432-2.857,2.121-2.746c1.852,0.122,2.96,1.301,2.762,3.34
		c-0.767,7.917-0.466,15.898-1.133,23.79c-0.473,5.592-0.598,10.926,1.018,16.315c0.519,1.729,0.188,3.586-0.625,5.29
		c-1.98,4.15-3.102,8.349-0.577,12.711c0.074,0.127,0.114,0.38,0.041,0.471c-3.083,3.843,0.259,8.717-2.241,12.928
		c-1.286,2.166-2.108,5.638,0.548,8.221c1.455,1.415,0.56,3.109,0.254,4.604c-0.505,2.465-0.778,4.796-0.351,7.382
		c0.349,2.112-0.719,4.343-3.123,5.282c-0.804,0.314-1.572,0.601-1.486,1.639c0.099,1.201,0.979,1.025,1.816,0.997
		c1.599-0.053,1.867,1.135,1.898,2.32c0.064,2.443,1.116,4.229,2.801,6.033c2.404,2.574,1.721,6.024,1.493,9.202
		c-0.092,1.287-0.649,2.535-0.874,3.821c-0.519,2.962-1.02,5.67,0.236,8.891c1.454,3.73,1.288,7.911-2.368,11.224
		c-2.482,2.249-1.401,5.639-0.958,8.432c0.672,4.235,1.549,8.364-0.449,12.447c-0.57,1.164,0.421,1.779,0.764,2.64
		c0.915,2.299,1.614,4.635,1.377,7.183c-0.159,1.713-0.542,3.59-1.905,4.387c-4.547,2.661-3.36,6.927-2.463,10.359
		c0.829,3.174,0.675,6.089,0.348,9.118c-0.192,1.782-1.501,3.27-0.182,5.372c0.947,1.509-0.458,2.55-2.276,2.8
		c-1.589,0.218-3.079,1.227-3.728-1.434c-0.329-1.348-0.289-2.956-1.53-4.269c-2.151,0.598-2.794,2.094-3.137,4.261
		c-1.163,7.342-0.946,14.718-0.933,22.096c-0.006,0.654-0.013,1.308-0.02,1.962c-1.951,2.024-4.602,3.376-6.979,2.056
		c-2.812-1.561-4.736-5.087-3.575-8.003c2.714-6.818,0.654-14.903,5.914-20.994c1.145-1.327,0.97-3.443,0.994-5.25
		c0.027-1.959-0.763-3.008-3-2.839C247.5,220.085,244.962,219.591,244.088,216.37z"/>
	<path id="XMLID_125_" class="st22" d="M280.694,592.674c-4.882,2.7-4.721,6.872-4.96,10.684c-0.288,4.592-0.038,9.217-0.078,13.827
		c-0.02,2.285,0.263,4.582-0.659,6.822c-0.651,1.582,0.317,2.798,1.966,4.671c1.623-6.832-0.298-13.317,1.431-20.06
		c1.541,4.174,1.62,21.954,0.292,26.296c-1.349-0.994-0.895-2.377-1.089-3.534c-0.105-0.626-0.118-1.378-0.984-1.475
		c-1.024-0.115-1.572,0.636-1.717,1.412c-0.412,2.199-0.156,4.621-3.113,6.683c-0.024-2.851-0.319-5.217-0.002-7.498
		c0.514-3.699,0.578-7.409,0.797-11.116c0.145-2.455,0.187-4.856-0.492-7.321c-1.138-4.132,0.019-8.387-0.012-12.589
		c-0.033-4.451-0.058-5.329-4.257-5.598c-2.443-0.157-3.184-1.22-3.004-3.399c0.31-3.747,0.559-7.571,1.19-11.202
		c1.181-6.792,0.182-13.616,1.469-20.309c-2.075-0.71-1.368,1.651-2.832,1.821c-2.165-2.045-1.506-4.353-0.071-6.488
		c-1.387-1.526-2.2,0.666-3.433,0.008c-0.552-1.475-0.576-3.195-0.096-4.659c0.847-2.587,0.616-5.194,0.839-7.8
		c0.227-2.663-0.166-5.799,3.665-6.582c1.208-0.247,1.232-1.444,1.199-2.419c-0.059-1.775,0.366-3.589-0.315-5.34
		c-2.468,0.016-0.815,3.022-2.605,3.506c-1.134-0.255-0.941-1.215-0.979-1.963c-0.08-1.572-0.595-2.563-2.402-2.2
		c-0.703,0.142-1.314,0.12-1.45-0.783c-0.132-0.878,0.03-1.952,0.856-2.089c4.495-0.747,4.001-4.144,3.932-7.237
		c-0.06-2.705,0.16-5.268,2.017-7.415c0.824-0.953,0.857-1.975,0.713-3.209c-0.147-1.258,0.158-2.587,0.381-3.865
		c0.219-1.255,0.968-2.18,2.331-2.07c1.638,0.132,1.532,1.534,1.462,2.637c-0.165,2.596,0.456,4.28,2.911,6.005
		c2.175,1.529,2.04,5.393,1.663,7.786c-0.884,5.606-0.261,11.159-0.575,16.718c-0.037,0.657,0.195,1.416-0.059,1.959
		c-1.513,3.234-0.352,5.486,3.7,7.375c-5.502,0.587-4.726,4.398-5.423,7.1c-0.656,2.543-0.592,5.303,1.948,7.164
		c3.241,2.375,4.255,5.564,3.842,9.488c-0.257,2.442,0.236,4.973-0.111,7.393c-0.308,2.15,3.386,2.089,2.149,3.58
		c-1.042,1.256-1.94,2.27-2.406,3.902c-0.462,1.618-0.392,3.267-0.773,4.827C276.868,588.91,277.644,590.928,280.694,592.674z"/>
	<path id="XMLID_124_" class="st9" d="M300.166,473.242c0.608,6.596-0.81,13.035-1.519,19.529c-0.053,0.489-0.216,0.981-0.183,1.462
		c0.516,7.407-1.126,14.725-0.99,22.095c0.173,9.37-1.001,18.669-1.323,28.011c-0.224,6.496-0.773,13.014-0.687,19.542
		c0.02,1.536-0.281,2.928-1.023,4.247c-0.81,0.101-2.155,0.537-2.338,0.245c-0.849-1.353-2.084-3.013-1.884-4.372
		c0.565-3.831-1.28-7.381-0.78-11.172c0.257-1.945,0.072-3.937,1.155-5.7c0.84-1.368,0.6-2.693,0.277-4.223
		c-0.853-4.039-1.282-8.515-0.088-12.178c1.344-4.127,0.511-7.917,0.683-11.846c0.171-3.912-0.061-7.795,0.79-11.729
		c0.637-2.947,0.695-6.214-0.337-9.254c-0.675-1.988-0.451-3.818,0.45-5.703c1.569-3.286,2.667-6.539,1.299-10.374
		c-0.883-2.477,0.238-4.794,2.821-6.144C297.786,475.001,298.945,474.062,300.166,473.242z"/>
	<path id="XMLID_123_" class="st12" d="M244.088,216.37c2.086,1.918,4.242,3.528,7.214,1.7c1.17-0.719,1.809,0.069,2.391,0.9
		c1.667,2.382,1.352,8.76-0.915,10.805c-2.325,2.098-3.174,4.462-2.807,7.442c0.419,3.41-0.704,6.61-2.129,9.495
		c-1.847,3.74,0.678,6.209,1.813,9.106c0.326,0.832,1.342,1.083,2.113,0.593c1.581-1.004,3.485-0.76,5.114-1.502
		c-0.061,1.641,0.116,3.745-2.225,3.602c-2.542-0.155-2.855,1.025-3.296,3.097c-0.594,2.787-1.855,5.432-3.359,8.042
		c0-1.102,0.011-2.204-0.002-3.305c-0.04-3.248,0.098-6.37-1.643-9.512c-1.183-2.136-1.417-4.962-1.368-7.667
		c0.148-8.064,0.083-16.133,0.032-24.2c-0.01-1.578,0.54-3.34-0.969-4.63c-0.017-0.32-0.025-0.641-0.023-0.961
		C244.049,218.374,244.069,217.372,244.088,216.37z"/>
	<path id="XMLID_122_" class="st9" d="M294.458,575.039c1.167,0.154,3.214-0.323,1.791,1.966c-0.791,1.272-2.033,2.164-0.266,3.638
		c0.522,0.436,0.646,1.472-0.688,1.708c-2.563,0.455-2.424,2.22-0.809,3.226c2.027,1.262,2.117,2.184,0.613,3.737
		c-0.193,0.199-0.279,0.606-0.251,0.901c1.266,13.399-1.44,26.759-0.398,40.154c-2.01-0.776-3.082-1.963-3.03-4.398
		c0.165-7.692-0.483-15.441,0.245-23.067c0.572-5.984,0.642-11.896,0.811-18.013c-1.696,0.677-0.396,2.868-1.718,3.019
		c-0.86,0.22-1.125,0.057-1.134-0.373c-0.056-2.683-1.062-5.714,2.826-6.846c1.125-0.328,0.943-1.587,0.98-2.551
		C293.475,577.003,293.33,575.814,294.458,575.039z"/>
	<path id="XMLID_121_" class="st11" d="M278.052,653.952c-0.407,0.981-0.548,2.401-1.879,2.445c-1.113,0.037-1.48-1.06-1.346-2.09
		c0.133-1.024,0.706-1.847,1.811-1.875C277.497,652.411,278.116,652.916,278.052,653.952z"/>
	<path id="XMLID_120_" class="st2" d="M303.772,768.941c-0.555-1.573-0.703-2.892,0.079-4.432
		C304.4,766.074,304.528,767.393,303.772,768.941z"/>
	<path id="XMLID_119_" class="st21" d="M282.023,146.717c3.735,1.901,2.063,5.287,2.052,7.49c-0.013,2.665-0.39,5.482-0.533,8.243
		c-0.065,1.256,0.108,2.912-1.814,2.82c-1.563-0.075-2.161-1.28-2.097-2.787c0.164-3.879,0.137-7.777,1.193-11.563
		C281.173,149.669,281.536,148.423,282.023,146.717z"/>
	<path id="XMLID_118_" class="st21" d="M279.35,172.297c0.275,0.121,0.7,0.182,0.78,0.381c0.078,0.195-0.196,0.531-0.316,0.805
		c-0.275-0.12-0.702-0.18-0.78-0.378C278.956,172.908,279.229,172.572,279.35,172.297z"/>
	<path id="XMLID_117_" class="st3" d="M295.372,77.073c1.585-1.248,1.035-3.021,1.016-4.588c-0.12-9.855,0.398-19.717-0.282-29.564
		c-0.064-0.924-0.028-1.697,0.911-1.964c1.209-0.344,1.783,0.519,2.137,1.488c0.165,0.45,0.227,0.969,0.202,1.451
		c-0.364,7.191,0.929,14.447-0.83,21.584c-0.078,0.316-0.125,0.656-0.099,0.978c0.602,7.401-0.886,14.698-1.078,22.067
		c-0.398,15.247-1.347,30.481-0.945,45.745c0.03,1.12,0.127,2.303-0.939,3.146c-0.296-0.651,0.081,0.318-0.506,0.02
		c-0.122-0.062-0.261-0.214-0.276-0.339c-0.099-0.804-0.232-1.611-0.234-2.418c-0.033-13.317-0.048-26.634-0.068-39.952
		c0.332-5.155-1.301-10.315,0.068-15.476C294.66,78.457,294.705,77.65,295.372,77.073z"/>
	<path id="XMLID_116_" class="st21" d="M247.532,204.06c-1.926-2.197-1.342-3.773,1.377-5.695
		C248.3,200.88,247.916,202.47,247.532,204.06z"/>
	<path id="XMLID_115_" class="st12" d="M259.965,198.985c-0.512-2.679,0.565-4.828,1.109-7.03c0.372-1.506,1.623-1.457,2.588-0.297
		c1.996,2.4,0.813,9.595-1.809,11.177c-0.897,0.541-1.684,0.287-1.846-0.701C259.825,201.013,259.965,199.84,259.965,198.985z"/>
	<path id="XMLID_114_" class="st12" d="M266.727,161.78c0.006,1.664-0.583,3.078-2.412,3.042c-1.834-0.036-2.649-1.214-1.858-3.033
		c0.657-1.512-0.086-3.327,1.094-4.7c0.582-0.677,1.342-1.023,2.175-0.718c0.689,0.252,0.898,0.925,0.566,1.607
		C265.621,159.351,266.709,160.498,266.727,161.78z"/>
	<path id="XMLID_113_" class="st12" d="M266.383,149.359c-0.292,0.684-0.865,0.804-1.482,0.633
		c-0.163-0.045-0.376-0.518-0.306-0.689c0.254-0.625,0.787-0.934,1.447-0.698C266.223,148.669,266.273,149.098,266.383,149.359z"/>
	<path id="XMLID_112_" class="st4" d="M267.148,523.055c-1.25-2.242-1.25-2.242-0.654-4.992
		C268.578,519.668,267.42,521.445,267.148,523.055z"/>
	<path id="XMLID_111_" class="st4" d="M267.684,513.961c-0.158,0.549-0.13,1.416-1.068,1.19c-0.726-0.175-0.815-0.923-0.73-1.57
		c0.081-0.61,0.126-1.459,1.057-1.235C267.666,512.519,267.715,513.258,267.684,513.961z"/>
</g>
</svg>
