<?xml version="1.0" encoding="utf-8"?>
<!-- Generator: Adobe Illustrator 19.0.0, SVG Export Plug-In . SVG Version: 6.00 Build 0)  -->
<svg version="1.1" id="图层_1" xmlns="http://www.w3.org/2000/svg" xmlns:xlink="http://www.w3.org/1999/xlink" x="0px" y="0px"
	 viewBox="0 0 164.541 253.815" style="enable-background:new 0 0 164.541 253.815;" xml:space="preserve">
<style type="text/css">
	.st0{fill:#FEFEFE;}
	.st1{fill:#43726A;}
	.st2{fill:#7B9E9E;}
	.st3{fill:#C9D5D4;}
	.st4{fill:#3C7769;}
	.st5{fill:#386B64;}
	.st6{fill:#275853;}
	.st7{fill:#366C62;}
	.st8{fill:#4A8275;}
	.st9{fill:#2D6458;}
	.st10{fill:#5C9D8A;}
	.st11{fill:#3F746C;}
	.st12{fill:#519180;}
	.st13{fill:#579282;}
	.st14{fill:#377162;}
	.st15{fill:#3F8A74;}
	.st16{fill:#69A996;}
	.st17{fill:#59B290;}
	.st18{fill:#5E8C85;}
	.st19{fill:#3B7269;}
	.st20{fill:#4E896F;}
	.st21{fill:#4D907F;}
	.st22{fill:#86AFAD;}
	.st23{fill:#5B8986;}
	.st24{fill:#448272;}
	.st25{fill:#44786E;}
	.st26{fill:#50A182;}
	.st27{fill:#388B79;}
	.st28{fill:#3B494C;}
	.st29{fill:#70B39E;}
	.st30{fill:#709794;}
	.st31{fill:#406258;}
	.st32{fill:#599185;}
	.st33{fill:#1E2024;}
	.st34{fill:#5F8C86;}
	.st35{fill:#7CB2A4;}
	.st36{fill:#5B9986;}
	.st37{fill:#638988;}
	.st38{fill:#3E604E;}
	.st39{fill:#2E6858;}
	.st40{fill:#648F8F;}
	.st41{fill:#26876D;}
	.st42{fill:#1E2B29;}
	.st43{fill:#334843;}
	.st44{fill:#487871;}
	.st45{fill:#407C6D;}
	.st46{fill:#5B8485;}
	.st47{fill:#496860;}
	.st48{fill:#31685C;}
	.st49{fill:#468373;}
	.st50{fill:#508C7C;}
	.st51{fill:#4F9580;}
	.st52{fill:#356861;}
	.st53{fill:#447D70;}
	.st54{fill:#488275;}
	.st55{fill:#2F685C;}
	.st56{fill:#2A5453;}
	.st57{fill:#528D7F;}
	.st58{fill:#347161;}
	.st59{fill:#356460;}
	.st60{fill:#4C8D7B;}
	.st61{fill:#224849;}
	.st62{fill:#3A7968;}
	.st63{fill:#426C6F;}
	.st64{fill:#4A7873;}
	.st65{fill:#335F5D;}
	.st66{fill:#21413B;}
	.st67{fill:#1F3331;}
	.st68{fill:#589383;}
</style>
<g id="XMLID_2_">
	<path id="XMLID_718_" class="st0" d="M164.508,0.716c0,83.821-0.003,167.641,0.026,251.462c0,1.192-0.113,1.639-1.517,1.638
		c-53.84-0.046-107.679-0.045-161.519-0.007c-1.231,0.001-1.496-0.244-1.495-1.489C0.04,168.728,0.041,85.136,0,1.544
		C-0.001,0.19,0.379-0.001,1.611,0C46.41,0.034,91.21,0.029,136.009,0.029c0.122,0.166,0.111,0.322-0.034,0.469
		c-0.228,0.161-0.486,0.239-0.76,0.276c-0.278,0.038-0.557,0.047-0.838,0.058c-0.584,0.02-1.166,0.044-1.751,0.026
		c-2.922,0.069-5.842,0.073-8.761,0.009c-0.684,0.003-1.369,0.027-2.052-0.017c-0.526,0.005-1.06-0.032-1.553,0.213
		c-0.926,0.922-0.904,2.198-1.164,3.33c-0.996,4.339-2.084,8.657-3.012,13.012c-0.139,0.433-0.224,0.879-0.321,1.322
		c-0.9,3.655-1.71,7.331-2.6,10.988c-2.92,12.67-5.682,25.382-10.137,37.64c-0.565,1.554-1.156,3.1-1.689,4.665
		c-1.588,3.747-3.047,7.549-4.742,11.252c-3.127,6.74-6.471,13.372-9.974,19.924c-2.093,3.761-4.287,7.466-6.339,11.25
		c-1.766,2.858-3.385,5.802-5.11,8.685c-3.4,5.738-6.699,11.534-9.934,17.366c-0.541,0.889-0.959,1.842-1.418,2.773
		c-0.464,0.838-1.053,1.605-1.41,2.504c-2.895,5.309-5.455,10.797-8.54,16.004c-0.988,1.461-1.846,3.001-2.747,4.515
		c-0.539,0.984-1.088,1.961-1.767,2.858c-2.222,3.042-4.173,6.274-6.459,9.272c-2.778,3.836-5.56,7.668-8.575,11.324
		c-1.614,2.071-3.309,4.078-4.892,6.174c-3.14,3.531-6.186,7.145-9.366,10.64c-1.763,1.937-3.628,3.78-5.319,5.784
		c-0.563,0.529-1.117,1.068-1.644,1.635c-0.102,0.118-0.213,0.226-0.325,0.334c-1.238,1.186-2.434,2.414-3.636,3.636
		c-1.655,1.636-3.31,3.271-4.922,4.951c-2.868,1.966-2.808,5.102-3.216,8.052c-0.305,5.519-0.604,11.034,2.23,16.113
		c0.809,1.554,2.003,2.747,3.473,3.679c0.605,0.413,1.262,0.726,1.944,0.992c1.437,0.585,2.95,0.845,4.476,1.048
		c0.771,0.266,1.57,0.15,2.359,0.179c0.539-0.012,1.077-0.006,1.614-0.047c0.723-0.033,1.412-0.325,2.143-0.287
		c1.239-0.02,2.442-0.311,3.656-0.511c0.248-0.075,0.501-0.13,0.756-0.173c1.774-0.513,3.58-0.911,5.338-1.478
		c0.228-0.082,0.462-0.148,0.694-0.213c0.457-0.118,0.873-0.343,1.305-0.526c0.663-0.246,1.35-0.424,1.991-0.73
		c1.325-0.605,2.68-1.137,4.003-1.745c2.148-0.887,4.262-1.835,6.083-3.32c7.116-6.323,13.269-13.528,19.192-20.945
		c4.719-6.098,9.15-12.403,13.475-18.783c0.448-0.66,0.923-1.307,1.225-2.055c1.673-2.189,3.065-4.566,4.571-6.867
		c1.855-2.857,3.61-5.776,5.439-8.649c2.66-4.327,5.204-8.722,7.79-13.092c1.937-3.44,3.928-6.849,5.855-10.295
		c3.944-7.255,7.986-14.456,11.767-21.799c0.339-0.658,0.677-1.318,0.916-2.022c0.282-0.762,0.76-1.417,1.147-2.122
		c0.424-0.658,0.588-1.444,1.016-2.1c0.391-0.575,0.681-1.211,1.066-1.789c0.545-0.853,0.985-1.756,1.303-2.719
		c0.414-0.977,0.887-1.923,1.443-2.828c3.271-6.439,6.65-12.824,9.585-19.428c1.709-3.306,3.209-6.709,4.702-10.115
		c3.179-7.37,6.292-14.766,9.133-22.274c0.323-0.854,0.633-1.707,0.848-2.594c1.178-2.798,2.204-5.652,3.144-8.538
		c0.509-1.299,0.853-2.657,1.391-3.946c3.15-9.031,5.796-18.214,8.365-27.421c0.321-1.398,0.847-2.742,1.103-4.158
		c0.615-2.481,1.265-4.953,1.836-7.445c1.18-4.538,2.113-9.131,3.065-13.72c0.478-2.024,0.794-4.078,1.195-6.116
		C163.746,1.577,163.609,0.8,164.508,0.716z"/>
	<path id="XMLID_717_" class="st1" d="M162.79,8.27c-0.716,4.649-1.714,9.237-3.033,13.753c-1.6-0.227-1.201-1.433-1.006-2.337
		c0.423-1.952,0.953-3.873,1.181-5.873c0.252-2.212,0.274-2.31-1.718-3.206c-1.268-0.571-1.779-1.974-1.131-3.691
		c0.381-1.01,0.52-1.902,0.227-2.969c-0.358-1.303,0.652-2.373,0.917-3.585c0.556-0.381,1.267,0.087,1.817-0.332
		c0.458,0,0.916,0,1.373,0c1.777,0.304,1.736,0.3,1.545,2.271c-0.105,1.083-0.35,2.117-0.594,3.17
		C162.154,6.394,161.672,7.492,162.79,8.27z"/>
	<path id="XMLID_716_" class="st2" d="M162.79,8.27c-0.763,0.359-1.479,0.705-1.196-0.727c0.421-2.134,0.729-4.291,1.195-6.414
		c0.323-1.468-1.249-0.33-1.371-1.1c0.916,0,1.832,0.02,2.747-0.006c0.678-0.019,0.202,0.478,0.344,0.693
		c-0.454,2.211-0.913,4.422-1.354,6.636C163.087,7.687,163.105,8.04,162.79,8.27z"/>
	<path id="XMLID_715_" class="st2" d="M160.045,0.029c-0.485,0.544-1.142,0.203-1.708,0.331c-0.225,0.178-0.457,0.391-0.745,0.404
		c-3.131,0.147-6.266,0.448-9.383-0.174c-0.222-0.134-0.283-0.322-0.182-0.561C152.033,0.029,156.039,0.029,160.045,0.029z"/>
	<path id="XMLID_714_" class="st3" d="M148.027,0.029c-0.002,0.095-0.014,0.189-0.036,0.281c-0.492,0.613-1.202,0.582-1.871,0.588
		c-2.095,0.019-4.19,0.064-6.285-0.021c-1.296-0.087-2.68,0.418-3.845-0.561c0.011-0.095,0.017-0.191,0.019-0.287
		C140.015,0.029,144.021,0.029,148.027,0.029z"/>
	<path id="XMLID_713_" class="st4" d="M62.128,145.612c0.336-0.914,0.759-1.779,1.398-2.525c1.325,1.306,1.392,1.29,2.051-0.397
		c0.612-1.565,0.935-3.266,2.13-4.561c1.061-1.131,1.869-2.416,2.592-3.792c1.933-3.679,4.255-7.122,6.663-10.505
		c1.453-2.042,2.596-4.266,3.85-6.425c4.746-8.665,9.196-17.488,13.909-26.17c0.068-0.148,0.15-0.29,0.233-0.43
		c0.8-1.179,1.853-2.216,2.09-3.715c1.254-1.983,2.065-4.197,3.25-6.218c2.704-4.615,5.047-9.429,7.774-14.037
		c1.418-2.395,2.591-4.95,4.047-7.323c1.551-2.527,2.716-5.271,4.419-7.702c1.059-1.512,1.853-3.181,2.467-4.88
		c1.537-4.256,3.949-8.118,5.43-12.39c0.096-0.277,0.3-0.482,0.565-0.619c0.18-0.039,0.343-0.002,0.49,0.108
		c1.11,1.388,1.078,2.651,0.306,4.363c-1.305,2.895-3.052,5.697-3.932,8.637c-1.499,5.011-4.318,9.407-5.835,14.356
		c-0.129,0.422-0.523,0.954-0.035,1.232c0.536,0.306,0.772-0.334,0.961-0.699c1.805-3.49,3.645-6.968,4.577-10.827
		c0.149-0.618,0.281-1.287,0.709-1.731c2.17-2.247,2.251-5.272,3.059-8.023c0.129-0.438,0.2-0.896,0.42-1.299
		c2.227-4.093,2.998-8.737,4.88-12.942c1.049-2.345,1.614-4.66,1.877-7.201c0.153-1.479,1.197-2.921,1.928-4.337
		c0.155-0.301,0.476-0.535,0.855-0.446c0.441,0.103,0.634,0.455,0.676,0.887c0.051,0.52-0.082,1.024-0.164,1.53
		c-0.168,1.039-0.929,2.221,0.843,2.697c0.384,0.103,0.411,0.653,0.297,1.066c-0.123,0.446-0.482,0.708-0.894,0.655
		c-1.403-0.18-1.541,0.82-2.024,1.776c-0.832,1.648-0.861,3.556-1.861,5.119c-0.122,0.191-0.177,0.425-0.184,0.655
		c-0.15,4.93-2.276,9.215-4.452,13.468c-1.102,2.153-1.434,4.573-2.521,6.727c-1.519,3.008-2.593,6.213-3.895,9.314
		c-1.33,3.166-2.929,6.19-4.331,9.313c-0.334,0.745-0.546,1.682-1.599,1.836c-0.713-0.776,0.152-1.445,0.201-2.345
		c-1.025,1.458-1.322,3.055-2.019,4.456c-1.725,3.469-3.334,7.015-5.736,10.107c-0.884,1.137-1.165,2.578-1.809,3.847
		c-1.649,3.249-3.225,6.542-4.683,9.894c-1.383,3.179-2.779,6.383-4.468,9.414c-2.33,4.181-4.183,8.607-6.715,12.686
		c-1.406,2.264-2.975,4.439-4.062,6.815c0.603-0.516,0.69-1.613,1.727-1.815c0.478,0.363,0.921,0.403,1.336-0.112
		c0.363-0.451,0.795-0.837,1.338-1.049c1.017-0.398,1.349-1.09,1.162-2.168c-0.174-1.001,0.179-1.961,0.757-2.752
		c1.66-2.273,2.567-4.949,4.012-7.341c0.676-1.119,1.489-2.163,2.039-3.364c0.199-0.433,0.606-0.744,1.099-0.696
		c0.621,0.061,0.611,0.609,0.592,1.058c-0.046,1.075,0.578,1.488,1.499,1.386c0.971-0.108,1.428,0.263,1.012,1.108
		c-0.901,1.834-0.68,4.157-2.581,5.577c-0.77,0.575-0.772,1.457,0.361,1.803c1.169,0.357,1.377,1.254,1.119,2.167
		c-0.844,2.982-1.408,6.125-4.023,8.257c-0.447,0.364-0.781,0.831-1.023,1.361c-0.141,0.308-0.367,0.851-0.611,0.731
		c-0.822-0.402-0.945,0.176-1.024,0.664c-0.117,0.729,0.597,0.926,1.041,1.18c0.574,0.327,0.984-0.173,1.246-0.605
		c1.485-2.444,3.114-4.789,4.781-7.111c0.241-0.335,0.353-0.762,0.202-1.147c-0.555-1.418,0.052-2.556,0.805-3.678
		c0.861-1.283,1.568-2.66,2.409-3.954c0.282-0.434,0.695-0.902,1.26-0.519c0.487,0.331,0.182,0.829-0.02,1.233
		c-0.409,0.818-0.886,1.6-1.311,2.411c-0.596,1.136-0.778,2.242-0.111,3.425c0.689,0.065,0.913-0.573,1.333-0.907
		c0.324-0.258,0.647-0.522,1.064-0.213c0.37,0.274,0.396,0.668,0.293,1.085c-0.137,0.555-0.491,1.035-0.587,1.766
		c1.575-0.273,1.893,0.481,1.193,2.016c0.677-0.573,0.513-1.15,0.703-1.602c0.374-0.891,1.018-1.548,1.981-1.083
		c1.001,0.484,1.717,0.187,2.542-0.308c0.569-0.342,1.309-0.778,1.525,0.416c0.001,0.162-0.018,0.323-0.052,0.481
		c-0.129,0.437-0.149,0.898-0.28,1.334c-0.509,1.702-1.234,2.012-2.806,1.212c-0.206-0.105-0.413-0.179-0.619,0.029
		c-0.095,0.445,0.307,0.548,0.552,0.738c0.983,0.759,1.175,1.664,0.424,2.658c-0.78,1.032-0.634,1.537,0.718,1.514
		c0.474-0.008,0.897,0.123,1.249,0.454c0.236,0.245,0.402,0.526,0.454,0.867c0.02,0.286,0.021,0.644-0.209,0.78
		c-1.838,1.088-1.675,3.331-2.814,4.813c-0.267,0.82-0.704,1.562-1.072,2.336c-0.431,0.908-0.901,1.667-2.125,1.667
		c-0.852,0-1.154,0.532-0.445,1.218c0.564,0.546,1.11,1.117,0.702,1.927c-0.638,1.264-1.133,2.705-2.461,3.416
		c-0.85,0.454-1.101-0.302-1.106-0.983c-0.008-1.041,0.434-1.994,0.777-3.114c-0.625,0.141-0.933,0.536-1.151,0.944
		c-0.462,0.863-1.123,1.368-2.086,1.615c-1.064,0.273-1.783,0.95-1.963,2.128c-0.184,1.203-0.934,1.933-2.123,2.18
		c-1.609,0.333-0.918,1.891-1.442,2.808c-0.401,0.702,0.588,0.918,1.128,1.182c0.355,0.173,0.805,0.279,0.782,0.785
		c-0.024,0.533-0.478,0.605-0.873,0.627c-1.164,0.065-1.58,1.053-2.182,1.77c-2.052,2.446-3.178,2.615-6.232,0.639
		c0.707,0.792,1.316,1.112,2.103,1.135c0.389,0.011,0.86,0.015,0.997,0.49c0.152,0.527-0.184,0.964-0.61,1.097
		c-1.48,0.462-2.213,1.365-2.376,2.949c-0.09,0.876-0.912,1.464-1.83,1.59c-1.819,0.249-0.989,1.939-1.547,2.875
		c-0.398,0.667,0.607,0.906,1.153,1.162c0.364,0.171,0.808,0.31,0.756,0.804c-0.052,0.5-0.509,0.565-0.912,0.604
		c-0.547,0.053-0.974,0.29-1.31,0.72c-1.089,1.396-2.353,2.617-3.664,3.804c-0.522,0.473-0.95,1.048-1.728,0.879
		c-0.874-0.19-0.541-1.01-0.709-1.565c-0.066-0.218-0.134-0.437-0.187-0.66c-0.204-1.535,0.401-2.693,1.205-4.043
		c2.037-3.421,4.743-6.455,6.24-10.16c0.552-1.365,0.961-2.893,1.225-4.359c0.217-1.208,0.597-2.204,1.421-3.009
		c1.487-1.455,2.732-3.249,5.025-3.637c0.695-0.118,0.912-0.818,1.06-1.441c0.265-1.111,0.456-2.231,1.319-3.107
		c0.41-0.417,0.42-1.044-0.157-1.315c-1.651-0.774-1.568-1.742-0.469-2.923c0.112-0.121,0.115-0.319-0.002-0.524
		c-0.641-0.305-0.88,0.282-1.179,0.63c-1.329,1.546-3.096,2.114-5.032,2.205c-1.071,0.05-1.926-0.259-1.688-1.698
		c0.213-1.291-1.024-1.676-1.774-2.237c-0.462-0.346-1.157,0.341-0.939,0.791c0.831,1.719,0.016,3.06-0.91,4.391
		c0.568,0.252,0.778-0.109,1.044-0.281c0.541-0.348,1.109-0.775,1.692-0.206c0.509,0.496,0.443,1.21,0.138,1.768
		c-0.709,1.3-1.405,2.458-3.286,2.518c-1.855,0.06-2.232,1.831-2.715,3.351c0.496-0.14,0.541-0.649,0.909-0.841
		c0.325-0.17,0.652-0.254,0.975-0.072c0.357,0.2,0.379,0.541,0.256,0.896c-0.149,0.428-0.403,0.841-0.207,1.317
		c0.268,0.653,0.619,1.445-0.279,1.747c-0.827,0.278-1.758,0.93-2.661-0.07c-0.935-1.035-1.218,0.107-1.536,0.624
		c-0.666,1.083-1.16,2.315-2.753,2.09c0.657,1.038,0.465,1.657-0.779,1.707c-0.623,0.025-1.254-0.05-1.883-0.015
		c-0.287,0.016-0.568-0.053-0.827-0.19c-0.722-0.384-1.495-3.799-0.919-4.394c0.485-0.501,0.746-0.96,0.551-1.662
		c-0.147-0.531,0.081-0.998,0.397-1.435c2.108-2.909,4.256-5.788,6.329-8.722c1.051-1.488,1.874-3.132,3.193-4.442
		c0.604-0.599,0.892-1.459,1.213-2.254c0.168-0.415,0.387-0.962-0.189-1.186c-0.553-0.214-0.8,0.297-0.98,0.725
		c-1.379,3.279-3.673,6.031-5.293,9.174c-0.52,1.009-1.309,1.869-2.216,2.594c-0.864,0.69-1.542,1.526-1.883,2.602
		c-0.104,0.328-0.182,0.723-0.443,0.917c-1.247,0.924-2.332,1.846-1.107,3.551c0.138,0.192-0.111,0.541-0.262,0.784
		c-1.032,1.654-1.528,3.567-2.692,5.395c0.913-0.051,1.234-0.747,1.782-1.018c0.852-0.42,1.509-0.062,1.547,0.851
		c0.057,1.342-1.678,3.762-3.019,3.79c-2.17,0.044-2.832,1.346-3.188,3.112c-0.056,0.276-0.157,0.548-0.244,0.885
		c0.264-0.39,0.269-0.835,0.529-1.153c0.328-0.399,0.684-0.867,1.274-0.626c0.617,0.252,0.563,0.782,0.338,1.306
		c-0.136,0.317-0.276,0.639-0.17,0.992c0.19,0.632,0.738,1.413-0.13,1.808c-0.819,0.372-1.803,0.93-2.698,0.121
		c-0.668-0.605-1.015-0.129-1.402,0.295c-0.502,0.549-0.738,1.298-1.312,1.794c-0.527,0.455-1.107,0.639-1.697,0.141
		c-0.519-0.438-0.59-1.076-0.173-1.535c1.245-1.372,1.621-3.279,2.95-4.598c0.663-0.658,1.216-1.437,0.394-2.389
		c0.449-2.134,1.17-4.152,2.644-5.813c0.854-0.962,1.412-2.043,1.775-3.279c0.529-1.798,1.349-3.441,2.37-5.056
		c1.687-2.667,3.131-5.505,4.388-8.446c-0.89-0.408-1.504,0.459-2.171,0.006c-0.552-0.768-0.084-1.411,0.274-2.052
		c0.497-0.891,1.067-1.743,1.422-2.705c-0.222-0.123-0.367,0.008-0.436,0.123c-2.181,3.65-5.339,6.727-6.713,10.828
		c-0.714,2.13-2.273,3.668-3.19,5.638c-1.565,3.36-3.582,6.483-5.447,9.685c-0.886,1.522-2.149,2.944-2.428,4.825
		c-0.111,0.75-0.689,1.316-1.17,1.871c-1.053,1.216-1.803,2.603-2.63,3.967c-0.794,1.311-1.666,2.442-2.168,3.996
		c-0.425,1.314-1.513,2.628-2.77,3.603c-1.088,0.843-1.283,2.358-2.497,3.387c1.08,0.1,1.408-1.176,2.319-0.778
		c0.326,0.389,0.171,0.817-0.079,1.091c-1.452,1.597-2.493,3.509-4.016,5.058c-2.31,2.349-4.481,4.83-6.598,7.356
		c-0.531,0.634-0.944,1.467-1.974,1.427c-0.588-0.507-0.502-1.329-0.768-1.951c-1.389,0.318,1.066,2.732-1.336,2.226
		c-0.839-0.177-2.513,1.161-2.526-1.065c0.61-2.76,2.515-4.677,4.355-6.623c3.495-3.697,6.686-7.644,9.626-11.787
		c3.455-4.87,6.626-9.94,9.607-15.101c2.37-4.103,5.01-8.073,6.942-12.425c0.646-1.454,1.98-2.462,2.395-4.107
		C63.262,146.345,63.022,145.912,62.128,145.612z"/>
	<path id="XMLID_712_" class="st5" d="M115.065,70.076c1.597-1.492,2.038-3.638,2.977-5.481c1.92-3.771,3.673-7.642,4.952-11.696
		c0.328-1.039,0.967-1.915,1.408-2.897c1.387-3.083,1.998-6.45,3.896-9.376c1.169-1.803,1.366-4.206,2.301-6.199
		c0.765-1.631,1.014-3.217,0.74-4.933c-0.064-0.403,0.115-0.637,0.323-0.915c0.271-0.363,0.721-0.757,0.715-1.133
		c-0.024-1.779,1.232-3.125,1.503-4.775c0.176-1.072,0.536-1.588,1.697-1.106c0.424,0.176,0.962,0.178,1.063-0.47
		c0.094-0.605-0.3-0.8-0.832-0.801c-1.391-0.003-1.423-0.679-0.768-1.621c0.4-0.576,0.185-1.226,0.339-1.823
		c0.135-0.526,0.611-1.264-0.185-1.431c-0.623-0.131-0.7,0.754-0.893,1.261c-0.363,0.953-0.535,1.99-1.343,2.731
		c-0.698,0.64-0.043,1.4-0.095,2.102c-0.26,3.548-2.245,6.49-3.353,9.724c-0.704,2.055-0.882,4.284-2.024,6.205
		c-1.791,3.012-2.342,6.442-3.15,9.781c-0.053,0.218-0.03,0.521-0.168,0.643c-2.92,2.587-2.764,6.538-4.344,9.712
		c-0.934,1.878-2.001,3.69-3.021,5.526c-0.275,0.494-0.751,0.587-1.16,0.271c-0.474-0.366-0.715-0.906-0.407-1.518
		c1.909-3.803,3.082-7.937,5.262-11.62c0.415-0.702,1.016-1.423,0.494-2.38c-0.209-0.384-0.002-0.86,0.27-1.112
		c1.285-1.194,1.359-3.068,2.585-4.34c0.903-0.937,0.316-2.588,1.212-3.661c1.25-1.498,1.045-3.092,0.307-4.72
		c0.006-2.233,1.429-4.02,1.923-6.088c0.558-2.338,2.117-4.308,2.233-6.828c0.073-1.593,1.574-2.82,1.737-4.417
		c0.287-2.823,2.153-5.232,2.019-8.143c-0.016-0.347,0.148-0.66,0.311-0.966c0.825-1.544,1.163-3.186,1.056-4.939
		c-0.049-0.806,0.104-1.593,0.687-2.225c0.22-0.034,0.439-0.068,0.659-0.101c1.269,0.04,2.537,0.08,3.806,0.12
		c0.327,0.333,0.258,0.729,0.183,1.128c-0.067,0.352-0.027,0.427,0.418,0.386c1.338-0.125,1.736,0.351,1.363,1.765
		c-0.438,1.657-0.899,3.313-1.417,4.947c-0.293,0.926-0.39,1.759,0.118,2.631c0.512,0.879,0.273,1.647-0.478,2.29
		c0.236,0.02-0.072,0.131,0.002,0.121c1.557-0.22,1.741,0.768,1.214,1.719c-0.692,1.247-1.189,2.577-1.88,3.815
		c-0.13,0.232-0.516,0.367-0.359,0.702c0.926,1.983-0.123,3.6-0.954,5.256c-0.163,0.324-0.203,0.644-0.168,0.994
		c0.138,1.414-0.262,2.726-0.843,3.98c-0.345,0.745-0.569,1.491-0.549,2.31c0.023,0.939-0.228,1.808-0.668,2.632
		c-0.627,1.175-0.849,2.452-1.123,3.748c-0.396,1.877-1.242,3.645-1.898,5.457c-1.163,3.211-2.466,6.373-3.457,9.936
		c1.003-0.541,1.055-1.25,1.13-1.979c0.25-2.431,0.594-2.819,2.888-3.378c0.523-0.127,0.523-0.127,0.877-1.25
		c-0.591-0.374-1.237,0.749-1.834-0.08c-0.564-0.781,0.055-2.266,1.1-2.126c3.13,0.419,4.144-1.174,5.089-3.886
		c0.79-2.266,1.5-4.481,1.784-6.845c0.162-1.348,0.813-2.49,1.452-3.64c0.167-0.3,0.36-0.616,0.766-0.591
		c0.511,0.032,0.612,0.457,0.706,0.845c0.122,0.501,0.214,1.014,0.479,1.462c0.593,1.006,0.434,1.856-0.506,2.546
		c-1.043,0.766-1.255,1.75-1.096,3.019c0.232,1.85,0.578,3.78-0.843,5.406c-0.189,0.217-0.282,0.584-0.126,0.812
		c0.897,1.308,0.136,1.873-0.87,2.663c-0.899,0.706-0.958,1.908-0.322,2.985c0.71,1.203,0.42,1.886-0.582,3.032
		c-1.36,1.555-2.478,3.524-2.911,5.683c-0.134,0.669-0.115,1.368-0.451,1.992c-0.545,1.083-0.572,2.306-0.927,3.44
		c-0.235,0.751,0.26,1.284,0.596,1.872c0.677,1.188,0.465,1.961-0.834,2.348c-0.803,0.239-1.468,0.854-2.353,0.827
		c-0.458-1.406,0.161-4.859,0.927-5.975c0.901-1.313,1.221-2.903,1.49-4.416c0.174-0.975,0.239-1.885,0.9-2.673
		c0.23-0.274,0.636-0.699,0.117-0.998c-0.385-0.222-0.842,0.086-0.971,0.475c-0.429,1.297-1.12,2.489-1.365,3.865
		c-0.726,4.082-2.695,7.722-4.216,11.52c-0.169,0.423-0.441,0.803-0.831,1.072c-1.553,0.643-2.418-0.551-3.131-1.449
		c-0.947-1.193,0.464-2.313,0.527-3.571c-1.664,3.376-3.145,6.811-5.169,9.961c-0.436,0.679-0.734,1.411-0.873,2.209
		c-0.089,0.509-0.266,0.991-0.521,1.44c-0.368,0.647-0.733,1.391-1.598,1.359c-0.879-0.033-1.136-0.84-1.454-1.503
		c-0.149-0.311-0.22-0.646-0.182-0.996c0.325-0.934,1.109-1.716,0.807-2.863c-0.099-0.374,0.324-0.697,0.632-0.961
		c2.077-1.778,2.806-4.38,4.061-6.66c0.196-0.355,0.318-0.823-0.036-1.116c-1.133-0.94-0.613-1.952-0.168-2.941
		c0.656-1.456,1.403-2.875,1.487-4.518c0.015-0.286,0.059-0.568-0.437-1.028c-0.81,1.6-2.188,2.848-1.83,4.822
		c0.131,0.722,0.12,1.257-0.632,1.518c-0.959,0.334-1.386,1.129-1.807,1.949c-1.796,3.496-3.57,7-5.292,10.534
		c-1.515,3.108-2.955,6.284-4.784,9.241c-0.715,1.488-1.495,2.944-2.208,4.433c-0.592,1.236-1.18,2.469-0.651,3.919
		c0.219,0.599-0.075,1.269-0.618,1.451c-1.821,0.612-2.257,2.277-3.028,3.699c-0.19,0.351-0.288,0.743-0.442,1.111
		c-1.052,2.509-0.872,2.979,1.748,3.333c0.795,0.108,1.946-0.456,2.092-1.321c0.531-3.155,2.447-5.729,3.407-8.69
		c1.357-2.422,2.363-5.029,3.869-7.372c0.46-0.857,0.628-1.896,1.527-2.484c0.148-0.076,0.305-0.12,0.472-0.131
		c1.711,0.596,1.193,2.063,1.07,3.193c-0.128,1.169-0.184,1.872,1.228,2.247c1.275,0.339,2.136,2.66,1.718,3.952
		c-0.388,1.197-0.91,2.346-1.466,3.468c-0.707,1.425-1.996,1.958-3.535,1.93c-0.38-0.007-0.852-0.313-1.09,0.135
		c-0.281,0.528,0.292,0.652,0.595,0.845c0.649,0.414,0.664,0.982,0.529,1.649c-0.499,2.469-1.353,4.825-2.26,7.164
		c-0.188,0.486-0.562,0.861-0.974,1.176c-1.028,0.785-1.548,0.561-1.995-0.8c-0.002,0.429-1.494,1.059,0.355,1.26
		c1.15,0.125,1.054,1.318,0.828,2.233c-0.31,1.258-1.041,2.37-1.59,3.989c1.816-1.146,3.161-2.181,4.144-3.673
		c0.291-0.442,0.365-1.285,1.268-1.007c0.308,0.465,0.493,1.029,1.07,1.273c0.601,0.254,0.831,0.74,0.788,1.364
		c-0.042,0.617,0.327,1.031,0.626,1.519c0.87,1.419,0.482,2.935,0.127,4.405c-0.1,0.416-0.475,0.784-1.041,0.637
		c0.08-0.957-0.366-0.96-0.982-0.507c-0.953,0.703-1.727,1.496-3.052,0.34c-0.64-0.558-1.283,0.359-1.439,1.158
		c-0.076,0.388,0.013,0.81-0.072,1.194c-0.16,0.725-0.766,0.604-1.245,0.485c-0.416-0.103-0.466-0.489-0.206-0.811
		c0.31-0.383,0.929-0.773,0.408-1.254c-0.652-0.602-0.802,0.591-1.44,0.571c-0.58-1.017,0.163-1.798,0.516-2.639
		c0.155-0.371,0.433-0.787-0.092-1.021c-0.437-0.195-0.527,0.289-0.707,0.553c-0.473,0.694-1.091,1.144-1.86,1.185
		c-1.331-2.995,0.563-5.22,1.665-7.699c-1.588,2.147-4.157,4.332-3.932,6.694c0.266,2.786-1.426,3.96-2.417,5.76
		c-0.739,1.343-1.665,2.583-2.447,3.904c-0.405,0.684-0.931,1.354-1.685,1.25c-0.711-0.098-1.055-1.001-1.828-1.352
		c-0.452-0.206,0.588-0.918,0.792-1.481c0.168-0.463,0.197-0.775,0.604-0.095c0.207,0.347,0.49-0.021,0.506-0.316
		c0.031-0.57,0.315-1.006,0.741-1.298c2.693-1.847,3.241-4.878,4.202-7.656c0.37-1.069,0.88-2.441-1.176-2.555
		c-0.499-0.028-0.814-0.589-0.769-1.017c0.082-0.789,0.336-1.625,1.189-1.921c0.742-0.258,0.731-0.608,0.789-1.356
		c0.11-1.441,1.301-2.613,1.371-4.248c-0.704,0.432-1.342,0.172-2.136-0.149c-1.449-0.586-0.029-1.534-0.574-2.234
		c-0.465-0.146-0.728,0.174-0.959,0.591c-1.453,2.62-2.975,5.204-4.333,7.872c-0.502,0.987-0.869,1.989-1.664,2.832
		c-0.52,0.553-0.956,1.519-0.702,2.216c0.659,1.814-0.185,2.536-1.72,2.979c-0.618,0.178-0.724,0.857-1.136,1.237
		c-0.798,0.737-1.313,0.69-1.343-0.535c-0.367-1.56,0.868-2.504,1.506-3.619c2.406-4.208,4.755-8.443,7.059-12.709
		c2.2-4.074,4.096-8.289,6.206-12.401c1.768-3.445,3.45-6.949,5.084-10.466c2.044-4.397,4.341-8.662,6.551-12.972
		C114.226,70.672,114.509,70.22,115.065,70.076z"/>
	<path id="XMLID_711_" class="st6" d="M135.668,60.804c-0.083-2.856,2.071-4.926,2.667-7.546c0.043-0.189,0.273-0.43,0.459-0.476
		c2.094-0.523,1.334-1.472,0.548-2.672c-0.934-1.428,0.279-3.701,2.162-3.967c-1.25-1.266-1.075-2.261,0.03-3.617
		c0.859-1.054,0.476-2.79,0.165-4.152c-0.343-1.509-0.063-2.584,1.256-3.354c0.868-0.507,1.147-1.19,0.429-1.932
		c-0.655-0.677-0.301-1.627-0.829-2.527c-0.949,1.861-1.649,3.467-1.924,5.462c-0.228,1.655,0.044,3.761-1.566,5.16
		c-0.376,0.327-0.493,1.016-0.612,1.564c-0.614,2.812-1.541,3.504-4.306,3.049c-0.699-0.115-1.229-0.083-1.581,0.616
		c-0.209,0.415-0.211,0.813,0.142,1.081c0.447,0.339,0.523-0.213,0.749-0.406c0.273-0.233,0.505-0.807,0.94-0.33
		c0.372,0.407,0.843,1.025,0.412,1.521c-0.494,0.568-0.722,1.793-2.079,1.02c-0.778-0.443-1.772,1.011-1.871,2.639
		c-0.053,0.876,0.282,1.879-0.779,2.437c-0.352,0.185-0.401,1.009-1.011,0.589c-0.411-0.283-0.356-0.856-0.214-1.281
		c0.482-1.443,0.974-2.888,1.554-4.294c1.335-3.237,2.807-6.533,3.569-9.845c0.627-2.725,2.446-5.16,2.104-8.176
		c-0.125-1.099,1.051-2.092,1.183-3.309c0.078-0.718,0.479-1.424,0.021-2.15c-0.159-0.252-0.269-0.675-0.011-0.775
		c1.559-0.604,0.886-2.212,1.51-3.23c0.426-0.696,0.582-1.382-0.497-1.739c-0.375-0.124-0.758-0.564-0.109-0.837
		c1.983-0.832,1.48-3.24,2.876-4.447c0.228-0.197,0.049-0.675-0.279-0.884c-0.428-0.272-0.586,0.119-0.803,0.366
		c-0.24,0.274-0.531,0.503-0.864,0.176c-0.379-0.372-0.006-0.65,0.235-0.831c1.106-0.829,1.381-1.714,0.392-2.846
		c-0.348-0.399-0.337-0.932-0.164-1.466c0.595-1.839,1.149-3.691,1.736-5.533c0.196-0.615,0.456-1.356-0.098-1.754
		c-0.656-0.471-0.664,0.522-1.052,0.748c-0.209,0.122-0.403,0.215-0.628,0.075c-0.267-0.167-0.41-0.41-0.294-0.72
		c0.219-0.582,0.619-1.106,0.557-1.776c2.732-0.042,5.464-0.084,8.196-0.125c3.449,0.017,6.897,0.033,10.346,0.05
		c0.075,0.386,0.351,0.942,0.192,1.131c-1.007,1.191-1.213,2.351-0.289,3.692c0.25,0.363-0.205,0.711-0.396,1.052
		c-1.264,2.254-0.761,3.344,1.671,4.155c1.256,0.419,1.17,1.653,1.025,2.7c-0.322,2.321-0.673,4.635-1.439,6.874
		c-0.244,0.715-0.319,1.618,0.658,2.059c-0.387,2.559-1.175,5.021-1.83,7.515c-1.204,1.154-1.831,2.665-2.542,4.126
		c-0.306,0.372-0.701,0.729-1.166,0.444c-0.753-0.461-1.379-0.337-2.044,0.136c-0.289,0.206-0.697,0.291-0.941-0.02
		c-1.176-1.501-1.553-0.087-1.65,0.597c-0.32,2.26-1.834,4.201-1.679,6.568c0.015,0.224-0.007,0.48-0.108,0.672
		c-1.34,2.548-1.356,5.436-2.005,8.153c-0.55,2.3-0.859,4.716-1.012,7.087c-0.154,2.385-0.679,4.718-0.97,7.065
		c-0.293,2.367-0.773,4.801-1.375,7.159c-0.342,1.337-0.456,2.692-0.617,4.049c-0.421,1.996-0.89,3.978-1.696,5.861
		c-0.392,0.41-0.802,0.946-1.433,0.592c-0.623-0.349-0.413-1.009-0.287-1.552c0.244-1.058,0.972-2.172-0.655-2.833
		c-0.382-0.156-0.283-0.703-0.204-1.102c0.092-0.462,0.043-0.823-0.557-0.753c-0.743,0.086-1.291-0.136-1.26-0.966
		c0.031-0.842,0.477-1.382,1.394-1.391c0.161-0.001,0.337,0.084,0.484-0.122c-1.115-0.508-0.71-1.68-1.079-2.526
		c-0.469-1.076,0.007-1.772,0.989-2.375c0.738-0.453,0.424-1.241-0.008-1.81c-0.589-0.774-0.97-1.529-0.483-2.506
		c0.198-0.396,0.161-0.829-0.377-0.934C135.11,62.861,135.419,61.827,135.668,60.804z"/>
	<path id="XMLID_710_" class="st7" d="M114.721,122.61c1.318-1.379,1.128-3.743,0.211-5.163c-0.668-1.033-0.686-2.485-1.905-3.279
		c-0.132-0.086-0.021-0.543-0.023-0.828c-0.614-1.061-0.038-1.701,0.792-2.251c0.491-0.264,0.963,0.27,1.502,0.05
		c-0.442-0.611-1.102-1.101-0.864-1.967c0.681-1.317,1.831-2.503,1.148-4.198c-0.036-0.089,0.015-0.246,0.09-0.317
		c1.364-1.3,1.807-3.21,3.047-4.592c1.166-0.161,2.325,0.379,3.496,0.042c0.942,0.42,0.895,1.155,0.668,1.986
		c-0.221,0.81-0.269,1.671-0.747,2.401c-0.669,0.789-1.609,1.323-2.121,2.262c-0.91,1.873-1.674,3.803-2.288,5.792
		c-0.248,0.596-0.773,0.953-1.388,1.524c1.419,0.253,1.003,2.635,2.952,2.147c1.292,0.193,1.223,0.876,0.593,1.715
		c-0.265,0.354-0.664,0.575-1.03,0.82c-0.344,0.221-0.667,0.47-0.969,0.785c0.384-0.076,0.688-0.332,1.069-0.337
		c1.887,0.552,2.545,1.964,1.572,3.507c-0.773,1.227-0.406,2.891-1.683,3.972c-0.358,0.303,1.047,0.676,0.711,1.477
		c-0.478,0.897-0.957,1.793-1.435,2.69c-0.872,0.712-1.64,1.473-1.324,2.756c-0.337,0.575-0.673,1.15-1.01,1.724
		c-1.012,0.414-0.824,1.387-1.017,2.182c-0.362,0.641-0.724,1.282-1.086,1.923c-2.087,1.854-2.767,4.567-4.128,6.86
		c-1.018,1.716-1.735,3.602-3.222,5.023c-0.5,0.478-0.74,1.148-0.987,1.792c-0.143,0.373-0.186,0.878-0.523,1.06
		c-2.836,1.521-3.348,4.651-4.849,7.071c-0.837,1.349-1.349,2.893-2.724,3.842c-1.613,1.113-1.714,3.009-2.421,4.591
		c-0.349,0.828-1.062,0.939-1.886,0.973c0.506,0.186,1.099,0.236,1.299,0.827c0.185,0.546-0.033,1.04-0.359,1.432
		c-0.58,0.699-0.724,1.525-0.853,2.372c-1.684,3.406-3.129,6.936-5.241,10.119c-0.289,0.435-0.262,0.983-0.546,1.415
		c-1.67,2.957-3.454,5.844-5.398,8.63c-0.596,0.413-1.234,0.437-1.686-0.123c-0.841-1.042,0.269-1.856,0.459-2.871
		c-0.63,1.085-1.292,2.054-1.828,3.109c1.74,0.646,1.878,1.045,0.917,2.557c-1.771,2.787-4.338,4.946-6.109,7.736
		c-0.187,0.295-0.52,0.432-0.895,0.368c-0.214-0.041-0.172-0.306-0.338-0.391c0.092,0.136,0.145,0.292,0.22,0.446
		c-0.504,1.748-1.877,2.956-2.753,4.471c-0.217,0.375-0.632,0.67-1.163,0.498c-0.381-0.432-0.002-0.992-0.288-1.563
		c-1.188,0.3-1.954,1.094-2.6,2.092c-0.663,1.024-1.485,1.834-2.87,1.587c-0.216-0.272-0.16-0.587,0.046-0.774
		c1.562-1.422,2.418-3.479,4.16-4.716c1.127-0.8,2.599-1.879,2.814-2.81c0.42-1.817,1.363-2.273,2.838-2.511
		c0.454-1.93,2.697-2.143,3.54-3.697c0.12-0.193,0.242-0.387,0.338-0.593c-0.453-1.291-1.133-2.585,0.232-3.839
		c-0.419,0.212-0.646,0.497-1.042,0.307c-0.528-0.6-0.184-1.918-1.015-1.995c-0.878-0.082-0.987,1.192-1.526,1.802
		c-0.487,0.551-0.804,1.287-1.719,1.15c-0.733-0.11-1.043-0.613-1.12-1.41c-0.427,0.438-0.382,1.197-1.034,1.327
		c-0.771,0.153-1.145-0.322-1.392-0.955c-0.259-0.661-0.596-0.526-1.013-0.135c-0.426,0.398-0.66,1.13-1.473,0.913
		c-0.424-0.676-0.112-1.247,0.354-1.689c1.69-1.604,2.982-3.576,4.723-5.122c1.775-1.576,2.734-3.703,3.574-5.773
		c1.094-2.697,3.076-4.92,3.84-7.78c0.189-0.708,1.106-1.106,2.006-0.94c0.449,0.223,0.734,0.541,0.624,1.085
		c-0.062,0.307-0.38,0.701,0.09,0.875c0.474,0.175,0.917-0.107,1.198-0.474c1.28-1.674,3.191-2.782,4.212-4.676
		c0.487-0.904,1.381-0.024,1.964-0.472c-0.182-0.678-0.785-0.386-1.149-0.591c-0.936-0.527-2.022-0.958-0.699-2.197
		c0.267-0.25,0.345-0.618,0.251-0.956c-0.329-1.178,0.193-1.502,1.3-1.551c1.106-0.049,1.824-0.776,1.794-1.888
		c-0.037-1.384,0.433-2.148,1.871-2.323c0.44-0.053,1.197-0.277,1.053-0.893c-0.164-0.698-0.738-0.066-1.128-0.093
		c-1.028-0.071-1.567-0.962-2.308-1.499c-0.271-0.197-0.109-0.651,0.179-0.9c0.336-0.289,0.575-0.076,0.88,0.141
		c2.769,1.96,3.545,2.373,5.388-0.241c1.489-2.113,1.621-2.021,3.216-2.146c-0.264-0.695-0.997-0.38-1.445-0.694
		c-0.744-0.523-1.029-0.755-0.664-1.953c0.518-1.702,1.059-2.794,2.888-3.104c0.423-0.071,0.743-0.674,0.742-1.255
		c-0.001-0.34-0.087-0.838,0.097-0.996c1.892-1.627,4.167-2.726,5.799-4.728c0.121,0.138,0.242,0.275,0.364,0.413
		c-0.362,1.163-0.754,2.318-1.066,3.494c-0.089,0.334-0.222,0.869,0.316,1.013c0.369,0.099,0.623-0.252,0.804-0.528
		c0.593-0.905,1.178-1.816,1.717-2.754c0.482-0.84-0.117-1.299-0.747-1.608c-0.449-0.22-0.885-0.353-0.635-0.957
		c0.214-0.518,0.486-1.347,1.093-1.104c1.659,0.665,1.762-0.666,2.244-1.534c0.36-0.648,0.672-1.324,1.005-1.987
		c0.238-0.252,0.135-0.717,0.44-0.879c0.934-0.496,1.548-1.044,1.127-2.27c-0.177-0.516,0.413-0.85,0.883-1.088
		c0.509-0.257,1.066-0.512,0.64-1.256c-0.115-0.23-0.229-0.459-0.344-0.689c-0.35-0.446-0.129-0.814,0.157-1.174
		c0.242-0.249,0.534-0.418,0.855-0.541c0.51-0.196,1.23-0.245,1.101-1.028c-0.09-0.545-0.621-0.741-1.129-0.901
		c-1.898-0.598-2.024-0.818-0.652-2.261C115.139,124.13,114.072,123.289,114.721,122.61L114.721,122.61z"/>
	<path id="XMLID_709_" class="st8" d="M123.641,0.425c3.086-0.001,6.172-0.002,9.259-0.003c0.309,0.626,0.115,1.256-0.086,1.834
		c-1.009,2.899-1.81,5.863-2.284,8.884c-0.558,3.553-2.648,6.545-3.365,10.04c-1.229,6.001-3.153,11.817-5.751,17.35
		c-1.665,3.546-2.826,7.345-5.274,10.547c-1.079,1.411-1.581,3.276-2.273,4.965c-0.482,1.177-1.018,2.281-2.048,3.106
		c-1.012,0.811-0.957,2.162-1.484,3.222c-0.401,0.807-0.513,1.973-1.882,1.771c-0.279-1.147,0.516-2.02,0.801-3.018
		c0.478-1.674,0.952-3.337,1.024-5.087c0.426-1.177,0.894-2.338,1.462-3.455c0.262-0.515,0.643-1.097,0.494-1.606
		c-0.596-2.036,0.844-3.187,1.908-4.41c0.935-1.074,1.341-2.265,1.382-3.582c0.061-1.945,0.677-3.747,1.068-5.609
		c0.589-2.802,1.529-5.598,1.404-8.534c-0.015-0.349,0.033-0.688,0.151-1.009c1.143-3.113,1.32-6.444,2.176-9.616
		c0.306-1.135-0.191-2.279,0.301-3.373c1.53-3.401,1.462-7.153,2.316-10.703C123.089,1.531,123.166,0.899,123.641,0.425z"/>
	<path id="XMLID_708_" class="st9" d="M23.719,252.332c-0.222,0.028-0.443,0.056-0.665,0.083c-0.955-0.098-0.551-0.696-0.442-1.188
		c0.359-1.393,0.748-2.776,1.44-4.05c0.462-1.213,1.113-2.2,2.508-2.543c0.796-0.196,1.105-0.727,0.202-1.242
		c-1.106-0.632-0.904-1.439-0.419-2.31c0.583-1.045,0.192-1.356-0.856-1.157c-1.012,0.193-2.029,0.259-3.054,0.192
		c-0.698-0.046-1.475-0.136-1.575-0.988c-0.104-0.892,0.656-1.073,1.343-1.225c0.274-0.061,0.563-0.07,0.955-0.347
		c-0.773-0.271-1.49-0.073-2.146-0.228c-0.82-0.193-1.785-0.286-1.462-1.566c0.219-0.286,0.518-0.534,0.853-0.519
		c2.866,0.125,5.372-1.457,8.156-1.694c1.066-0.068,2.013,0.047,1.882,1.478c-0.029,0.313-0.041,0.471,0.285,0.651
		c0.943,0.521,2.258,0.763,2.003,2.327c0.737,0.066,1.38,0.494,2.086,0.597c0.642,0.093,0.775-0.542,0.918-1.036
		c0.08-0.276,0.167-0.598,0.045-0.84c-0.713-1.416-0.016-2.644,0.467-3.905c0.587-0.723,1.142-0.724,1.876-0.105
		c1.596,1.346,2.586,0.991,2.858-1.007c0.115-0.847,0.46-1.521,1.033-2.102c2.441-2.475,4.852-4.981,7.373-7.377
		c0.375-0.356,0.784-0.818,1.278-0.815c1.718,0.011,2.89-0.863,3.887-2.126c0.174-0.22,0.475-0.499,0.695-0.464
		c1.925,0.304,2.842-1.226,4.086-2.165c0.132-0.1,0.328-0.068,0.494-0.005c0.418,1.66-0.898,2.497-1.782,3.423
		c-2.314,2.425-4.355,5.12-6.999,7.226c-0.177,0.141-0.346,0.335-0.403,0.547c-0.365,1.36-1.222,2.252-2.483,2.847
		c-0.452,0.213-0.708,0.734-1.225,1.179c0.715-0.418,1.232-1.208,1.983-0.699c1.173,0.794-0.14,1.738,0.006,2.839
		c1.621-2.147,2.786-4.381,4.443-6.246c0.986-1.109,1.743-2.519,3.388-2.859c0.259,1.369-0.321,2.488-1.326,3.249
		c-1.52,1.151-2.354,2.711-3.097,4.371c-0.199,0.747-0.687,1.302-1.218,1.829c-0.523,0.497-1.03,1.01-1.525,1.535
		c-1.514,0.815-2.361,2.664-4.324,2.792c-0.459,0.03-0.434,0.394-0.509,0.742c-0.619,2.848-4.076,4.8-6.781,3.823
		c-0.768-0.277-1.517-0.492-2.337-0.26c1.665,2.018,0.942,4.915-1.336,5.533c-1.078,0.292-1.85-0.4-2.755-0.678
		c-0.215-0.144-0.364-0.323-0.319-0.603c0.285-0.333,0.702-0.344,1.084-0.445c0.919-0.244,1.201-0.841,0.835-1.688
		c-0.373-0.864-0.544-1.685-0.274-2.645c0.286-1.015-0.508-1.641-1.267-1.982c-0.869-0.39-1.871-0.562-2.808-0.076
		c-0.296,0.154-0.302,0.507-0.108,0.749c0.902,1.126,0.845,2.259,0.205,3.497c-0.348,0.674,0.578,1.222,0.395,1.94
		c-0.898,0.421-1.292,1.226-1.588,2.105c-0.308,0.492-0.738,0.894-1.265,1.066C25.105,250.198,24.334,251.171,23.719,252.332z"/>
	<path id="XMLID_707_" class="st10" d="M108.541,62.178c1.49-0.845,1.458-2.493,1.996-3.833c0.165-0.412,0.097-0.952,0.516-1.224
		c2.58-1.674,2.691-4.737,4.023-7.111c0.221-0.393,0.296-0.888,0.571-1.228c2.727-3.376,3.932-7.503,5.656-11.373
		c0.9-2.02,2.021-3.983,2.596-6.094c0.777-2.85,1.842-5.611,2.494-8.492c0.601-2.653,1.087-5.329,2.538-7.711
		c0.993-1.631,1.224-3.609,1.445-5.374c0.409-3.267,1.849-6.174,2.524-9.316c0.582-0.004,1.164-0.008,1.746-0.012
		c0.193,0.224,0.347,0.489,0.282,0.778c-0.948,4.2-1.533,8.479-3.032,12.559c-1.135,3.087-1.753,6.36-3.008,9.406
		c-1.469,3.563-2.028,7.443-3.868,10.868c-1.258,3.603-3.03,6.974-4.603,10.437c-1.165,2.564-2.089,5.221-3.549,7.668
		c-1.644,2.755-3.056,5.675-4.731,8.387c-2.142,3.466-3.615,7.305-6.082,10.575c-0.509,0.675-0.86,1.484-1.204,2.267
		c-1.375,3.124-3.272,5.959-4.902,8.942c-0.903,1.654-1.234,3.624-2.732,4.951c-0.931,1.126-1.675,2.355-2.061,3.778l0,0
		c-0.965,1.19-1.838,2.44-2.438,3.86c-0.179,0.423-0.315,0.897-0.917,0.806c-0.655-0.099-0.77-0.575-0.727-1.136
		c1.511-3.484,3.426-6.78,4.858-10.304c0.149-0.366,0.401-0.688,0.289-1.115c1.563-3.708,3.125-7.416,4.688-11.124
		c0.733,0.393,0.234,1.296,0.798,1.871c1.135-1.259,1.753-2.766,2.364-4.276C105.353,67.005,106.919,64.575,108.541,62.178z"/>
	<path id="XMLID_706_" class="st4" d="M117.466,112.653c-0.079-0.991,0.097-1.896,0.763-2.692c0.402-0.481,0.663-1.059,0.608-1.717
		c-0.07-0.839,0.309-1.404,1.034-1.773c0.856-0.516,1.477-1.267,2.057-2.059c0.045-1.38,1.282-2.659,0.346-4.121
		c0.552-2.316,0.539-4.871,3.094-6.252c0.801-0.433,1.061-1.446,1.284-2.346c0.205-0.83,0.209-1.734,0.59-2.488
		c0.67-1.325,0.589-2.483-0.406-3.579c0.105-2.181,1.685-3.527,2.923-5.048c0.418-0.514,1.051-0.316,1.56,0.034
		c0.578,0.399,0.818,0.931,0.582,1.629c-0.421,1.244-0.901,2.466-1.45,3.656c-0.537,1.164-0.775,2.235,0.258,3.3
		c0.675,0.696,0.604,1.618-0.201,2.069c-2.362,1.324-2.235,3.939-3.275,5.941c-0.075,0.145-0.053,0.337-0.09,0.503
		c-0.483,2.18-0.393,2.529,1.131,4.349c0.685,0.819,0.499,1.732-0.643,2.146c-0.875,0.317-1.191,0.756-1.09,1.621
		c0.069,0.591-0.139,1.119-0.422,1.628c-0.26,0.466-0.506,1.072,0.047,1.373c0.774,0.42,0.928-0.436,1.167-0.866
		c0.553-0.998,0.877-2.103,1.313-3.156c0.216-0.521,0.335-1.297,1.252-0.984c0.296,1.671-0.773,3.146-0.682,4.787
		c-2.99,6.63-6.211,13.146-9.662,19.548c-0.091-0.142-0.154-0.375-0.277-0.414c-1.752-0.558-1.444-1.275-0.2-2.118
		c0.515-0.349,0.679-0.817,0.489-1.467c-0.165-0.563,0.055-1.07,0.459-1.551c1.04-1.237,0.503-2.581-1.185-3.088
		c-0.446-0.233-0.7-0.53-0.343-1.03c0.406-0.287,0.883-0.512,1.202-0.875c0.583-0.664,0.371-1.099-0.515-1.184
		c-0.529,0.157-0.75-0.179-0.819-0.593c-0.065-0.395,0.242-0.608,0.579-0.734c0.53-0.198,1.095-0.329,1.5-0.767
		c0.327-0.353,0.599-0.76,0.207-1.196c-0.374-0.416-0.72-0.065-1.03,0.172c-0.362,0.276-0.709,0.616-1.183,0.632
		C117.54,113.975,116.919,113.739,117.466,112.653z"/>
	<path id="XMLID_705_" class="st11" d="M141.5,75.568c-0.141-2.653,0.782-5.148,1.159-7.724c0.792-5.409,1.85-10.785,2.441-16.214
		c0.213-1.96,1.038-3.768,0.899-5.898c-0.088-1.341,1.452-3.011,1.538-4.723c0.135-2.674,1.292-5.015,2.119-7.468
		c0.166-0.492,0.478-1.057,1.006-1.066c0.691-0.011,0.359,0.688,0.475,1.075c0.303,1.011,0.739,0.555,1.19,0.124
		c0.542-0.517,1.001-1.426,1.727-0.087c0.439,0.81,0.804-0.043,1.178-0.255c0.673,0.896-0.044,1.695-0.178,2.534
		c-0.106,0.661-0.366,1.29-0.404,1.965c-0.307,1.561-0.816,3.068-1.245,4.595c-0.179,0.637-0.328,1.351-1.115,1.582
		c-0.993-0.923-0.126-1.918-0.098-2.879c0.011-0.378,0.376-0.796-0.014-1.116c-0.282-0.231-0.661-0.097-0.974,0.062
		c-0.483,0.245-0.319,0.649-0.259,1.048c0.221,1.472,0.608,3.012-1.398,3.649c-0.208,0.066-0.276,0.358-0.276,0.594
		c0.008,3.483-1.174,6.717-2.071,10.013c-0.315,1.159-0.366,2.375-0.623,3.544c-0.143,0.648,0.137,0.945,0.577,1.246
		c0.507,0.929,0.091,1.854,0.001,2.784c-0.064,0.659-0.323,1.313-0.081,1.986c-0.897,2.914-1.809,5.823-3.156,8.572
		c-0.95-0.165-0.659-0.863-0.558-1.413c0.121-0.66,0.464-1.277,0.26-2.02c-0.519,1.166-0.792,2.403-1.036,3.664
		C142.446,74.444,142.6,75.404,141.5,75.568z"/>
	<path id="XMLID_704_" class="st12" d="M0.7,230.728c-0.108-1.477,0.33-2.896,0.468-4.346c0.183-1.917,1.777-2.737,2.972-3.869
		c0.059,0.055,0.118,0.11,0.178,0.165c0.487,1.14-0.377,1.821-0.921,2.581c-0.609,0.851-1.191,1.656-0.994,2.809
		c0.097,0.567,0.182,0.934,0.857,1.037c1.107,0.169,1.278,0.94,1.105,1.927c-0.121,0.69-0.437,1.481,0.908,1.448
		c0.944-0.023,0.933,0.817,0.717,1.543c-0.319,1.073-0.769,2.114-0.864,3.47c1.26-0.707,1.443-1.746,1.55-2.799
		c0.046-0.447-0.147-0.913,0.027-1.358c0.221-0.569,0.595-1.017,1.253-0.99c0.602,0.025,0.877,0.484,0.994,1.022
		c0.136,0.621,0.11,1.25,0.02,1.877c-0.031,0.281-0.15,0.554-0.033,1.022c0.971-0.713,1.271-2.586,2.997-1.784
		c1.048,0.487,1.571,1.276,1.307,2.668c1.313-0.687,2.257-0.155,3.173,0.429c1.56,0.994,1.614,1.368,0.418,2.829
		c-0.394,0.481-0.595,0.979-0.309,1.571c0.185,0.381,0.497,0.685,0.933,0.64c0.711-0.074,0.837-0.698,0.98-1.248
		c0.161-0.619,0.327-1.219,0.915-1.586c0.633-0.395,1.222-0.436,1.919-0.035c0.711,0.408,0.705,0.958,0.603,1.606
		c-0.181,1.149-0.208,2.277,0.439,3.319c0.075,1.488,0.09,2.958-1.218,4.026c-0.267-0.117-0.388-0.346-0.465-0.606
		c-0.203-0.705,0.067-1.463-0.384-2.611c-0.161,2.019-0.989,3.317-1.973,4.538c-0.422,0.523-0.447,1.135-0.386,1.778
		c0.06,0.635,0.052,1.273-0.696,1.563c-0.564,0.003-1.129,0.005-1.693,0.008c-1.269-2.876-1.03-4.056,1.182-6.131
		c0.912-0.856,1.506-1.932,2.089-3.125c-0.857-0.024-1.205,0.572-1.689,0.914c-1.421,1.001-2.352,0.598-2.553-1.124
		c-0.081-0.692,0.177-1.356,0.161-2.042c-0.018-0.74-0.241-1.144-1.023-0.625c-1.003,0.667-2.258,0.619-3.309,1.292
		c-1.079,0.69-1.708,0.058-2.035-1.782c0.024-0.228,0.097-0.444,0.161-0.663c0.123-0.422,0.452-0.908-0.027-1.252
		c-0.517-0.372-1.092-0.195-1.606,0.111c-0.348,0.207-0.617,0.514-0.846,0.838c-0.859,1.216-2.023,0.833-3.108,0.548
		c-1.031-0.271-0.933-1.203-1.127-2.055c-0.369-1.611-0.162-2.986,0.803-4.33c0.644-0.897,0.427-1.967,0.239-3.098
		c-0.612,0.461-0.994,1.4-1.902,1.055C0.351,231.687,0.528,231.165,0.7,230.728z"/>
	<path id="XMLID_703_" class="st12" d="M30.25,197.464c0.13,0.705,0.372,1.331,1.186,0.661c0.536-0.44,0.896-0.667,1.303,0.089
		c0.121,0.225,0.389,0.215,0.582,0.046c0.314-0.274,0.11-0.487-0.113-0.686c-1.259-1.127,0.109-1.493,0.648-2.004
		c0.295-0.28,0.912-0.18,0.677,0.433c-0.304,0.795,0.315,1.423,0.189,2.149c-0.701,2.302-2.471,3.534-4.505,4.503
		c-0.362-0.329,0.017-0.903-0.523-1.329c-0.946,2.962-4.009,3.626-5.906,5.584c-1.081,1.117-1.22,1.392,0.002,2.214
		c-0.741,1.637-1.458,3.293-3.148,4.223c-0.592-0.34-0.555-1.108-1.139-1.629c-0.671,0.84-1.559,1.466-2.375,2.504
		c1.3,0.082,2.013-1.68,3.226-0.643c-0.566,1.635-1.88,2.652-3.122,3.712c-0.556,0.475-1.204,0.341-1.714-0.131
		c-0.522-0.484-0.996-0.763-1.6-0.141c-0.615,0.633-1.149,1.303-0.945,2.258c0.185,0.862,0.834,0.712,1.489,0.686
		c1.178-0.047,2.141,0.693,3.215,1.039c0.505,0.163,0.527,0.708,0.394,1.179c-0.181,0.638-0.543,1.136-1.232,1.291
		c-0.401,0.09-0.82,0.032-1.175-0.137c-1.028-0.49-1.926-0.515-2.772,0.4c-0.425,0.46-1.099,0.565-1.524,0.035
		c-1.317-1.645-3.019-0.924-4.571-0.739c-0.952,0.114-1.793,0.247-2.565-0.426c0,0-0.091-0.093-0.091-0.093
		c1.61-1.591,3.22-3.183,4.829-4.774c1.069,0.64,1.808,0.387,2.277-0.783c0.419-1.046,1.326-1.86,1.478-3.04l-0.028-0.002
		c0.45-0.141,0.772-0.645,1.333-0.475c0.156,0.073,0.292,0.177,0.409,0.303c0.363,0.391,0.794,0.605,1.098,0.018
		c0.424-0.818-0.541-0.461-0.739-0.775c-0.146-0.236-0.094-0.46,0.041-0.678c0.097-0.129,0.217-0.234,0.353-0.32
		c1.12-0.384,1.715-1.238,2.064-2.314c0.256-0.533,0.649-0.927,1.185-1.176c2.216-1.092,3.864-2.755,4.972-4.958
		c0.398-0.835,1.072-1.414,1.798-1.946c1.218-1.035,2.211-2.307,3.471-3.297C29.154,197.925,29.476,197.266,30.25,197.464z"/>
	<path id="XMLID_702_" class="st13" d="M30.25,197.464c-1.611,1.483-3.223,2.967-4.834,4.45c-0.299-1.315,0.74-2.051,1.325-2.962
		c0.736-1.146,1.687-2.142,2.434-3.286c1.618-2.027,3.237-4.054,4.855-6.081c2.589-2.476,4.665-5.378,6.776-8.246
		c0.704-0.956,1.371-1.946,2.021-2.943c2.093-3.186,4.559-6.126,6.287-9.553c0.549-0.88,1.097-1.76,1.646-2.641
		c1.168-1.399,2.164-2.904,2.82-4.617c2.849-5.325,5.699-10.65,8.548-15.976c0.553-0.305,1.105-0.346,1.558,0.146
		c0.403,0.438-0.063,0.838-0.124,1.262c-0.316,2.174-2.132,3.509-2.973,5.407c-0.863,1.946-2.448,3.732-3.074,5.568
		c-0.753,2.211-2.621,3.533-3.253,5.794c-0.582,2.082-2.289,3.868-3.492,5.776c-1.229,1.949-2.641,3.854-3.756,5.853
		c-2.145,3.848-5.208,6.978-7.665,10.572c-1.178,1.723-2.841,3.108-4.21,4.71c-1.672,1.956-3.937,3.512-4.39,6.328
		C30.721,197.194,30.422,197.319,30.25,197.464z"/>
	<path id="XMLID_701_" class="st14" d="M123.641,0.425c-0.305,1.365-0.64,2.826-0.679,4.117c-0.048,1.573-1.123,2.957-0.668,4.488
		c0.462,1.553-1.024,2.377-1.168,3.749c-0.343,3.27-1.109,6.5-1.373,9.773c-0.082,1.014-0.906,1.371-0.998,2.368
		c-0.307,3.331-1.056,6.618-1.469,9.943c-0.157,1.26-1.039,2.181-1.129,3.532c-0.061,0.915-0.027,1.87-0.087,2.798
		c-0.146,2.272-1.589,3.78-2.982,5.315c-0.446,0.492-0.894,0.791-0.369,1.558c0.46,0.672-0.009,1.453-0.273,2.095
		c-0.532,1.293-1.219,2.523-1.842,3.778c-0.641-0.729-0.265-1.503-0.063-2.245c0.221-0.815,0.471-1.619,0.68-2.44
		c0.535-2.1,0.681-4.193,0.289-6.324c0.004-0.47,0.053-0.928,0.35-1.317c1.4-0.036,0.515,1.359,1.237,1.889
		c0.198-3.674,1.333-7.105,1.996-10.633c0.376-5.066,2.132-9.887,2.671-14.909c0.317-2.959,1.299-5.758,1.68-8.685
		c0.329-2.529,0.387-5.108,1.481-7.49c0.212-0.461,0.281-0.989,0.672-1.361C122.277,0.425,122.959,0.425,123.641,0.425z"/>
	<path id="XMLID_700_" class="st15" d="M115.409,32.995c-0.291,1.725-0.432,3.494-0.915,5.164c-0.495,1.709-0.96,3.378-0.817,5.175
		c0.047,0.59-0.058,1.268-0.818,1.235c-0.756-0.033-0.48-0.754-0.543-1.217c-0.082-0.601,0.205-1.264-0.308-1.791
		c-0.365-1.557,0.413-2.856,0.948-4.21c1.153-0.785,0.744-1.835,0.476-2.845c-1.021,1.667-1.072,3.621-1.67,5.406
		c-0.23,0.687-0.328,1.426-0.531,2.131c-0.32,1.456,0.214,2.898-0.058,4.4c-0.337,1.86-0.776,3.669-1.396,5.44
		c-1.258,3.597-2.538,7.195-3.602,10.847c-0.581,1.994-0.696,4.116-1.871,5.933c-0.205,0.317-0.328,0.755,0.112,1.067
		c-0.43,1.594-1.305,2.965-2.186,4.331c-0.209,0.325-0.466,0.744-0.896,0.64c-0.508-0.122-0.317-0.642-0.346-1.008
		c-0.044-0.56-0.056-1.122-0.082-1.683c2.062-5.962,4.194-11.903,5.882-17.986c2.094-7.546,3.756-15.198,5.51-22.827
		c0.126-0.55,0.283-1.093,0.425-1.639c0.144-0.1,0.28-0.086,0.41,0.025c0.289,0.649,0.764,1.112,1.413,1.4
		C114.805,31.666,115.812,32.029,115.409,32.995z"/>
	<path id="XMLID_699_" class="st16" d="M8.618,240.729c0.623,2.125,0.565,2.031,2.497,0.841c0.96-0.591,2.3-0.343,3.221-1.336
		c0.335-0.361,0.759,0.297,0.783,0.775c0.038,0.733,0.086,1.464-0.161,2.196c-0.255,0.756-0.022,1.605,0.544,2.002
		c0.585,0.411,1.085-0.321,1.552-0.713c0.346-0.291,0.71-0.563,1.09-0.808c0.346-0.224,0.694-0.791,1.144-0.245
		c0.335,0.406,0.071,0.974-0.182,1.254c-1.015,1.122-1.399,2.738-2.919,3.483c-0.968,0.474-1.299,1.464-0.963,2.492
		c0.294,0.899,0.244,1.795,0.276,2.699c-0.846,0.067-1.702,0.242-2.502-0.22c0.638-0.741,0.663-1.49,0.138-2.327
		c-0.389-0.62-0.77-1.293-0.504-2.077c0.079-0.233,0.166-0.184-0.155-0.29c-1.232-0.408-1.46-1.18-0.831-2.43
		c0.347-0.69,1.042-1.236,0.869-2.147c-2.256,1.274-3.037,2.559-2.806,4.851c0.141,1.395-0.389,2.423-1.43,3.264
		c-0.621-0.224-1.232-0.465-1.712-0.944c1.167-1.897-0.322-3.877,0.17-5.808c0.087-0.344-0.36-0.529-0.698-0.628
		c-0.489-0.143-1.005-0.236-1.288-0.74C5.246,241.848,6.89,241.236,8.618,240.729z"/>
	<path id="XMLID_698_" class="st4" d="M94.465,169.651c0.426-2.537,1.599-4.602,3.79-6.034c0.869-0.568,0.812-1.623,1.088-2.439
		c0.741-2.194,3.037-3.56,3.133-6.066c0.007-0.185,0.219-0.451,0.4-0.528c2.85-1.212,3.529-4.221,5.14-6.411
		c1.554-2.112,2.456-4.7,3.678-7.062c0.42-0.813,0.911-1.61,1.987-1.677c-0.359,1.636-1.356,2.974-2.11,4.418
		c-3.447,6.601-6.95,13.173-10.691,19.614c-1.434,1.301-2.539,2.846-3.51,4.518C96.753,169.049,95.982,170.054,94.465,169.651z"/>
	<path id="XMLID_697_" class="st17" d="M8.618,240.729c-1.278,1.005-2.894,1.596-3.777,3.084c-0.648,1.223-0.241,2.924-1.712,3.774
		c-1.647-2.134-2.254-4.671-2.56-7.246c-0.379-3.195-0.497-6.417,0.13-9.613c0.077,0.316-0.065,0.773,0.314,0.902
		c0.415,0.141,0.813-0.127,0.985-0.493c0.195-0.416,0.323-0.856,0.727-1.124c0.386-0.256,0.7-0.155,0.68,0.314
		c-0.069,1.654,0.312,3.391-1.006,4.817c-0.545,0.589-0.937,1.331-0.209,2.132c0.134,0.148,0.232,0.446,0.18,0.625
		c-0.254,0.868-0.493,1.84,0.669,2.071c0.982,0.196,2.213,0.77,2.89-0.776c0.216-0.494,0.774-1.272,1.396-1.055
		c0.615,0.215,1.305-0.47,1.756,0.22C9.681,239.276,8.908,239.964,8.618,240.729z"/>
	<path id="XMLID_696_" class="st18" d="M50.833,234.189c0.284-0.607,1.061-0.903,1.065-1.687c2.663-3.714,6.02-6.83,8.903-10.354
		c2.276-2.782,4.175-5.847,6.511-8.585c2.874-3.369,5.342-7.062,8.26-10.396c0.444-0.508,0.878-1.088,1.703-0.899
		c-0.021,0.165,0.013,0.368-0.071,0.489c-4.788,6.889-9.306,13.972-14.675,20.444c-2.31,2.27-4.254,4.863-6.426,7.252
		c-1.48,1.629-2.625,3.588-4.553,4.798C50.571,235.397,50.502,234.928,50.833,234.189z"/>
	<path id="XMLID_695_" class="st19" d="M77.276,202.269c-2.128,1.242-3.452,3.311-4.847,5.182c-2.408,3.227-5.027,6.303-7.294,9.622
		c-2.663,3.899-5.763,7.433-8.879,10.933c-1.371,1.54-2.61,3.289-4.357,4.497c0.795-1.747,1.492-3.538,3.275-4.617
		c1.057-0.64,1.111-1.913,1.522-2.95c0.959-2.122,2.887-3.465,4.262-5.261c1.649-2.155,3.443-4.202,5.088-6.368
		c0.682-0.897,1.243-2.083,2.659-2.111c1.694-1.398,2.526-3.428,3.782-5.149l0,0c1.412-0.179,1.423-1.651,2.182-2.443
		c1.754-1.831,3.275-3.886,4.858-5.876c0.27-0.339,0.606-0.778,0.412-1.248c-0.269-0.649-0.747-0.193-1.162-0.137
		c-0.801,0.107-0.979-0.375-0.568-0.907c0.876-1.134,1.547-2.384,2.264-3.61c0.148-0.253,0.371-0.511,0.678-0.363
		c0.303,0.147,0.252,0.473,0.127,0.746c-0.19,0.415-0.394,0.824-0.594,1.234c-0.861,1.761-0.837,1.804,1.163,1.995
		C80.482,197.822,79.031,200.147,77.276,202.269z"/>
	<path id="XMLID_694_" class="st20" d="M81.071,117.464c-0.856,2.411-2.265,4.533-3.735,6.574c-2.353,3.267-4.509,6.653-6.484,10.15
		c-0.841,1.489-1.611,2.992-2.832,4.213c-0.247-0.101-0.161-1.076-0.805-0.189c-0.667,0.917-0.814,2.331-2.232,2.608
		c-0.032,0.006-0.086-0.065-0.118-0.108c-0.065-0.086-0.05-0.188,0.031-0.298c2.537-5.107,5.582-9.929,8.375-14.892
		c0.495-0.879,1.078-1.709,1.621-2.562c0.894-0.067,1.193-0.824,1.562-1.433c0.885-1.458,2.008-2.774,2.622-4.395
		c0.105-0.277,0.308-0.475,0.653-0.408c0.506,0.484,0.248,1.165,0.418,1.683C80.201,117.875,80.336,117.398,81.071,117.464z"/>
	<path id="XMLID_693_" class="st8" d="M115.409,32.995c-0.045-0.828-1.363-1.019-1.024-2.04c-0.813-1.042-0.399-2.101-0.051-3.161
		c1.474-3.462,1.585-7.218,2.275-10.845c0.212-1.116,0.333-2.242,0.699-3.329c0.437-1.299,0.813-2.618,0.727-4.016
		c0.616-3.055,0.954-6.165,1.811-9.172c0.583-0.002,1.166-0.004,1.75-0.005c0.198,1.085-0.307,2.029-0.706,2.95
		c-1.067,2.463-0.616,5.148-1.283,7.696c-0.928,3.543-1.421,7.202-2.046,10.821c-0.596,3.452-1.767,6.804-1.827,10.353
		C115.73,32.497,115.522,32.745,115.409,32.995z"/>
	<path id="XMLID_692_" class="st21" d="M141.5,75.568c1.028-1.446,0.694-3.257,1.285-4.836c0.263-0.703,0.475-1.36,1.144-1.945
		c0.516,1.002,0.406,1.936,0.032,2.882c-0.24,0.608-0.744,1.211-0.045,1.843c-0.286,2.105-1.32,3.954-2.064,5.895
		c-2.473,6.45-5.097,12.841-7.954,19.133c-0.955-0.283-0.366-1.511-1.159-1.895c0.18-1.305,0.619-2.503,1.289-3.648
		c1.257-2.151,2.163-4.468,3.027-6.799c1.181-1.443,1.976-3.106,2.728-4.793C140.355,79.459,140.928,77.514,141.5,75.568z"/>
	<path id="XMLID_691_" class="st22" d="M152.172,44c1.21-1.888,1.347-4.131,2.047-6.188c0.542-1.347,0.86-2.76,1.214-4.162
		c0.105-0.414,0.305-0.741,0.752-0.795c0.568-0.068,0.548,0.441,0.696,0.777c-2.411,9.019-5.106,17.953-8.119,26.789
		c-0.088,0.259-0.254,0.491-0.384,0.736c-1.53-0.407-0.994-1.468-0.823-2.468c0.561-3.274,2.077-6.262,2.801-9.484
		c0.416-1.715,1.032-3.368,1.612-5.032C152.035,44.115,152.103,44.058,152.172,44z"/>
	<path id="XMLID_690_" class="st23" d="M8.28,251.992c0.935-1.591,1.333-3.241,0.715-5.07c-0.155-0.46,0.229-0.902,0.611-1.15
		c0.978-0.635,1.634-1.56,2.339-2.443c0.215-0.27,0.393-0.605,0.81-0.418c0.391,0.175,0.307,0.565,0.325,0.895
		c0.044,0.793-0.277,1.451-0.806,2.006c-0.375,0.393-0.608,0.819-0.563,1.375c0.027,0.332-0.078,0.723,0.259,0.938
		c0.38,0.243,0.623-0.011,0.831-0.319c0.162-0.239,0.35-0.482,0.679-0.238c0.211,0.157,0.287,0.461,0.109,0.595
		c-1.429,1.079-0.25,1.947,0.182,2.901c0.414,0.914,0.877,1.909-0.774,2.084C11.342,253.103,9.77,252.716,8.28,251.992z"/>
	<path id="XMLID_689_" class="st24" d="M125.018,34.02c1.39-3.28,1.867-6.837,3.219-10.158c1.132-2.782,2.068-5.693,2.681-8.692
		c0.446-2.18,1.576-4.193,2.012-6.412c0.548-2.788,1.141-5.566,1.715-8.349c0.229,0.002,0.457,0.005,0.686,0.007
		c-0.316,1.927,0.142,3.991-0.716,5.799c-1.207,2.542-0.684,5.611-2.525,7.933c-0.098,0.123-0.194,0.354-0.144,0.472
		c0.733,1.721-0.51,2.939-1.102,4.306c-0.538,1.241-1.445,2.377-0.817,3.863c0.058,0.136,0.047,0.374-0.037,0.487
		c-2.389,3.219-2.766,7.301-4.624,10.746C125.25,34.022,125.134,34.021,125.018,34.02z"/>
	<path id="XMLID_688_" class="st25" d="M31.629,247.603c1.204-0.006,2.317,1.412,3.637,0.107c0.537-0.532,1.106-0.84,0.504-1.634
		c-0.173-0.228-0.429-0.522-0.198-0.759c1.599-1.636-0.287-1.634-1.21-2.183c1.253-0.948,2.435-0.927,3.598-0.34
		c1.545,0.78,2.884,0.843,4.099-0.619c0.462-0.556,1.147-0.924,1.706-1.406c0.477-0.411,0.914-0.788,0.52-1.581
		c-0.503-1.01-0.013-1.266,0.947-0.955c0.536,0.174,1.124,0.133,1.387-0.358c0.64-1.195,1.989-1.439,2.863-2.299
		c0.476,1.097-0.459,1.524-1.045,2.042c-1.016,0.898-2.204,1.611-2.879,2.85c-2.651,2.56-5.335,5.083-8.443,7.1
		c-1.29,0.773-2.671,1.331-4.116,1.737c-0.549-0.102-0.851-0.533-1.206-0.897C31.63,248.163,31.437,247.921,31.629,247.603z"/>
	<path id="XMLID_687_" class="st26" d="M3.13,247.587c0.324-1.147,1.361-2.076,0.836-3.501c-0.179-0.487,0.486-0.43,0.875-0.273
		c0.501,0.327,1.092,0.275,1.638,0.407c0.558,0.135,1.294,0.609,0.908,1.15c-0.777,1.086-0.112,1.891,0.087,2.866
		c0.202,0.996,0.226,2.147-0.906,2.813C5.065,250.25,3.935,249.08,3.13,247.587z"/>
	<path id="XMLID_686_" class="st27" d="M94.465,169.651c1.215-0.273,2.015-0.965,2.674-2.068c0.956-1.598,1.699-3.475,3.742-4.118
		c-1.948,3.431-3.897,6.863-5.845,10.294c-0.856,0.304-1.309,1.279-2.289,1.377c-0.123-0.958,0.115-1.765,0.835-2.468
		c0.29-0.283,0.616-0.734,0.338-1.225c-0.259-0.457-0.647-0.305-1.045-0.169c-0.417,0.142-0.918,0.06-0.925-0.42
		c-0.007-0.47,0.455-0.827,0.944-0.804C93.48,170.079,94.126,170.536,94.465,169.651z"/>
	<path id="XMLID_685_" class="st28" d="M51.584,234.923c3.089-3.468,6.169-6.943,9.275-10.396c0.474-0.527,0.697-1.414,1.671-1.326
		c-5.833,7.52-11.997,14.735-19.238,20.964c-0.276-0.685-0.301-0.708,0.159-1.206c0.987-1.07,2.057-2.06,3.064-3.111
		C48.218,238.222,49.81,236.479,51.584,234.923z"/>
	<path id="XMLID_684_" class="st29" d="M29.175,195.667c-0.833,1.955-2.359,3.48-3.326,5.351c-0.152,0.295-0.289,0.598-0.432,0.897
		c-0.68,0.458-1.261,1.014-1.695,1.714c-1.447,1.992-3.167,3.71-5.158,5.159c-0.456,0.227-0.798,0.568-1.019,1.028
		c-0.607,0.995-1.137,2.067-2.398,2.413l-0.001,0.001c-0.259,0.185-0.511,0.213-0.75-0.035
		C19.322,206.686,24.248,201.176,29.175,195.667z"/>
	<path id="XMLID_683_" class="st30" d="M132.908,96.837c0.512-0.172,1.165-0.548,0.93,0.531c-0.09,0.412-0.412,0.801,0.059,1.173
		c-1.428,3.418-2.94,6.797-4.681,10.069c-0.783-1.753,0.329-3.262,0.628-4.875c-0.004-0.079-0.009-0.157-0.014-0.236
		c0.388-1.27,0.829-2.521,1.383-3.731c0.052-0.15,0.116-0.295,0.184-0.438C132,98.559,131.697,97.237,132.908,96.837z"/>
	<path id="XMLID_682_" class="st31" d="M96.218,83.134c0.401,0.333,0.242,0.68,0.059,1.06c-1.643,3.413-3.276,6.831-4.911,10.248
		c-0.166,0.945-0.501,1.829-0.93,2.685c-1.623,3.24-2.967,6.614-4.674,9.814c-0.323,0.605-0.471,1.479-1.483,1.373
		c-0.36-1.559,0.988-2.487,1.408-3.761c0.167-0.504,0.758-0.858,0.553-1.511C89.699,96.473,93.095,89.872,96.218,83.134z"/>
	<path id="XMLID_681_" class="st32" d="M92.748,175.137c0.599-0.732,1.121-1.592,2.289-1.377c-2.499,4.409-4.971,8.833-7.793,13.049
		c0.037-0.393-0.06-0.871,0.13-1.165C89.516,182.319,90.69,178.501,92.748,175.137z"/>
	<path id="XMLID_680_" class="st33" d="M119.846,0.431c-0.454,3.071-0.908,6.142-1.362,9.213c-0.284,2.528-1.483,4.85-1.674,7.402
		c-0.034,0.449-0.153,0.952-0.757,0.953c-0.311,0.001-0.519-0.199-0.359-0.565c0.749-3.38,1.458-6.769,2.26-10.135
		C118.505,4.99,118.737,2.587,119.846,0.431z"/>
	<path id="XMLID_679_" class="st34" d="M46.77,240.041c-0.975,1.025-1.968,2.033-2.913,3.085c-0.254,0.283-0.865,0.433-0.565,1.038
		c-1.671,1.839-4.047,2.4-6.178,3.405c-0.022-0.484,0.078-0.887,0.581-1.115c2.598-1.177,4.361-3.378,6.408-5.233
		c0.37-0.335,0.835-0.566,1.256-0.844C45.729,239.843,46.157,239.552,46.77,240.041z"/>
	<path id="XMLID_678_" class="st35" d="M17.193,253.36c0.096-0.205,0.32-0.45,0.269-0.609c-0.651-2.056,0.687-3.35,1.758-4.76
		c0.437-0.575,0.349-1.291,0.445-1.962c0.07-0.491,0.208-1.135,0.851-1.08c0.614,0.052,0.457,0.682,0.471,1.109
		c0.019,0.624-0.004,1.249-0.008,1.874c-0.653,1.678-1.36,3.339-1.7,5.121C18.583,253.156,17.888,253.258,17.193,253.36z"/>
	<path id="XMLID_677_" class="st36" d="M64.896,140.413c0.583,0.461,0.603-0.155,0.777-0.422c0.692-1.06,1.369-2.13,2.071-3.228
		c0.779,0.577,0.067,1.152,0.276,1.637c-1.342,1.41-1.455,3.387-2.316,5.019c-0.263,0.498-0.111,1.478-0.982,1.293
		c-0.686-0.146-1.321-0.699-1.197-1.625C63.765,142.084,64.304,141.235,64.896,140.413z"/>
	<path id="XMLID_676_" class="st37" d="M150.775,49.13c-0.326,2.321-1.311,4.444-2.052,6.636c-0.437,1.292-0.37,2.686-0.989,3.936
		c-0.297,0.599,0.234,1.052,0.644,1.456c-0.281,1.314-0.682,2.587-1.306,3.783c-1.191-0.698-0.342-1.712-0.274-2.519
		c0.064-0.76,0.184-1.529,0.203-2.303c-0.156-0.172-0.306-0.381-0.248-0.605c0.889-3.441,1.492-6.972,3.124-10.185
		c0.079-0.155,0.233-0.241,0.381-0.326C150.451,48.956,150.624,48.998,150.775,49.13z"/>
	<path id="XMLID_675_" class="st38" d="M79.701,116.782c-0.809,2.103-2.234,3.843-3.394,5.738c-0.343,0.56-0.686,1.125-1.415,0.439
		c1.598-2.949,3.236-5.875,5.078-8.681c0.518,0.033,0.976-0.609,1.533-0.134C81.54,115.459,80.789,116.236,79.701,116.782z"/>
	<path id="XMLID_674_" class="st39" d="M115.694,17.434c0.715,0.042,0.891-0.147,1.049-1.155c0.357-2.271,1.032-4.457,1.741-6.635
		c0.056,0.859-0.02,1.694-0.291,2.524c-1.359,4.171-1.507,8.576-2.448,12.828c-0.219,0.991-0.441,1.982-1.028,2.841
		c-0.691-0.807-0.121-1.628-0.025-2.443c0.131-1.103,0.804-2.168,0.232-3.32c-0.231-1.226,0.73-2.279,0.511-3.504
		C115.408,18.164,115.319,17.746,115.694,17.434z"/>
	<path id="XMLID_673_" class="st40" d="M19.278,253.055c-0.536-2.073,0.572-3.6,1.7-5.121c0.001,0.231,0.002,0.461,0.004,0.692
		c0.326,0.635-0.523,1.101-0.27,1.731c0.07-0.006,0.137,0.01,0.167-0.016c0.57-0.491,0.409-1.99,1.643-1.486
		c1.159,0.473,0.701,1.589,0.509,2.508c-0.434,0.361-0.394,0.711,0.023,1.054C21.827,252.815,20.592,253.165,19.278,253.055z"/>
	<path id="XMLID_672_" class="st41" d="M23.719,252.332c-0.048-1.281,0.524-2.085,1.745-2.547c0.724-0.274,1.36-0.778,2.036-1.179
		c0.556,0.11,0.861,0.538,1.191,0.936c0.216,0.371,0.506,0.708,0.563,1.157C27.491,251.52,25.587,251.866,23.719,252.332z"/>
	<path id="XMLID_671_" class="st42" d="M81.385,114.008c-0.472,0.087-0.752,1.182-1.415,0.27c2.09-3.745,4.18-7.49,6.27-11.235
		c0.597,0.47,0.153,0.852-0.077,1.29c-0.677,1.282-1.319,2.583-1.974,3.876c0.445,1.306-0.718,2.058-1.059,3.094
		c-0.599,0.808-1.074,1.692-1.55,2.576C81.515,113.922,81.45,113.965,81.385,114.008z"/>
	<path id="XMLID_670_" class="st43" d="M43.007,178.603c-2.222,3.783-4.977,7.161-7.939,10.376c-0.256,0.278-0.432,0.86-1.038,0.606
		c2.862-3.784,5.724-7.567,8.585-11.351C42.937,178.156,43.077,178.268,43.007,178.603z"/>
	<path id="XMLID_669_" class="st44" d="M28.545,249.641c-0.485-0.208-0.824-0.562-1.046-1.035c0.148-1.036,0.113-2.226,1.715-2.039
		c0.947-0.554,1.705-0.523,2.089,0.673c0.109,0.121,0.217,0.242,0.326,0.364c0.115,0.227,0.23,0.454,0.345,0.68
		c0.273,0.955-0.65,1.269-1.01,1.885c-0.357,0.132-0.715,0.263-1.072,0.395c-0.625-0.639,0.334-1.362-0.105-2.085
		C29.027,248.521,29.101,249.44,28.545,249.641z"/>
	<path id="XMLID_668_" class="st45" d="M12.725,213.915c0.184,0.832-1.309,4.272-2.072,4.621c-0.822,0.376-1.425,0.106-1.683-0.798
		C10.12,216.364,11.378,215.096,12.725,213.915z"/>
	<path id="XMLID_667_" class="st46" d="M156.881,33.632c-0.702-0.845-1.033-0.571-1.324,0.355c-0.405,1.287-0.444,2.708-1.338,3.825
		c0.015-1.566,0.907-2.934,1.013-4.479c0.569-1.498,0.892-3.172,2.695-3.794C157.579,30.903,157.23,32.268,156.881,33.632z"/>
	<path id="XMLID_666_" class="st47" d="M43.007,178.603c-0.13-0.123-0.26-0.246-0.391-0.369c2.166-3.13,4.332-6.26,6.498-9.39
		c0.063,0.669-0.282,1.217-0.619,1.719C46.687,173.258,44.84,175.926,43.007,178.603z"/>
	<path id="XMLID_665_" class="st8" d="M115.435,18.569c0.853,1.256-0.619,2.281-0.344,3.48c0.052,2.512-0.872,4.823-1.501,7.193
		c-0.06,0.226-0.289,0.326-0.536,0.322c-0.111-0.002-0.221-0.004-0.332-0.005C113.627,25.895,114.531,22.232,115.435,18.569z"/>
	<path id="XMLID_664_" class="st9" d="M28.545,249.641c0.429-0.626-0.059-2.208,1.319-1.769c1.273,0.405,0.49,1.424,0.083,2.196
		c-0.072,0.137-0.04,0.329-0.056,0.495c-0.213,0.045-0.426,0.09-0.638,0.135C28.785,250.502,28.537,250.157,28.545,249.641z"/>
	<path id="XMLID_663_" class="st4" d="M116.796,133.604c-0.91-1.149-0.337-2.342,1.324-2.756
		C117.937,131.891,117.394,132.761,116.796,133.604z"/>
	<path id="XMLID_662_" class="st47" d="M53.58,161.587c-0.218,1.979-1.406,3.367-2.82,4.617
		C51.7,164.665,52.64,163.126,53.58,161.587z"/>
	<path id="XMLID_661_" class="st9" d="M30.964,250.168c0.111-0.749,0.638-1.276,1.01-1.885c0.464,0.218,0.805,0.56,1.024,1.024
		C32.427,249.847,31.659,249.922,30.964,250.168z"/>
	<path id="XMLID_660_" class="st13" d="M14.395,212.195c0.25,0.012,0.5,0.024,0.75,0.035c-0.113,0.232-0.226,0.465-0.338,0.697
		c0.082,0.542-0.134,0.781-0.688,0.677c-0.474,0.103-0.947,0.207-1.421,0.31C13.263,213.341,13.829,212.768,14.395,212.195z"/>
	<path id="XMLID_659_" class="st5" d="M114.769,137.51c-0.338-1.043-0.517-2.012,1.017-2.182
		C115.229,135.954,115.515,136.973,114.769,137.51z"/>
	<path id="XMLID_658_" class="st45" d="M4.232,222.605c1.701,0.469,3.33-0.346,5.03-0.305c0.884,0.021,1.59-0.029,2.013,0.776
		c0.539,1.026,1.085,0.814,1.667,0.105c0.696-0.848,1.383-1.271,2.388-0.37c0.299,0.268,0.856,0.328,1.298,0.34
		c0.806,0.021,1.015-0.678,1.17-1.263c0.173-0.656-0.361-0.735-0.844-0.731c-1.164,0.011-2.093-1.546-3.447-0.477
		c-0.255,0.202-0.567-0.243-0.756-0.538c-0.85-1.329,0.418-4.035,1.981-4.254c0.448-0.063,0.592,0.178,0.739,0.513
		c0.576,1.315,1.282,0.979,2.041,0.159c0.92-0.994,1.856-1.973,2.786-2.959c0.039-0.19,0.153-0.305,0.342-0.345
		c1.03-1.373,2.059-2.746,3.089-4.12c0.874-1.375,1.781-2.714,3.493-3.167c2.441,0.041,4.464-0.704,6.145-2.629
		c2.348-2.689,4.395-5.621,6.886-8.203c1.253-1.299,2.231-2.836,3.778-3.89c0.684-0.466,1.039-1.319,0.862-2.286
		c-0.179-0.98,0.307-1.63,1.304-1.522c1.263,0.136,1.961-0.702,2.169-1.546c0.342-1.391,1.242-2.313,2.188-3.108
		c1.588-1.335,2.614-3.103,3.437-4.832c0.934-1.962,2.543-3.314,3.599-5.119c1.433-2.449,3.023-4.805,4.306-7.345
		c0.444-0.88,1.141-1.544,2.009-2.02c1.002,0.175,1.382,0.757,0.66,1.529c-1.492,1.597-2.192,3.702-3.592,5.342
		c-0.407,0.477-0.76,0.974-0.147,1.462c0.699,0.557,1.217,0.015,1.53-0.53c0.487-0.849,0.949-1.699,1.738-2.308
		c0.46-0.355,0.983-0.58,1.147,0.236c0.164,0.817,0.451,0.496,1.032,0.408c1.336-0.204,2.405-0.224,0.902-1.797
		c-0.351-0.367,0.169-0.708,0.42-0.994c0.284-0.324,0.567-0.703,0.098-1.003c-0.463-0.296-0.741,0.22-0.937,0.505
		c-0.406,0.587-0.259,1.578-1.543,1.73c0.715-1.413,0.409-3.04,1.574-4.195c0.591-0.586,1.034-1.226,2.169-0.867
		c1.109,0.35,3.434-2.626,3.054-3.75c-0.197-0.584-0.597-0.573-1.075-0.226c-0.727,0.528-1.383,2.013-2.245,1.282
		c-1.016-0.861,0.684-1.512,0.945-2.385c0.419-1.404,0.922-2.809,1.88-3.985c0.438-0.538,0.105-1.073-0.332-1.307
		c-1.413-0.756-0.623-1.473,0.138-1.799c1.132-0.485,1.642-1.188,1.946-2.359c0.198-0.76,0.826-1.541,1.476-2.023
		c1.421-1.054,2.302-2.445,3.168-3.936c1.184-2.039,2.316-4.118,3.739-6.017c0.395-0.528,0.605-1.226,0.782-1.878
		c0.244-0.9,0.735-1.544,1.676-1.261c1.134,0.342,0.752,1.217,0.396,1.965c-1.429,3.001-3.725,5.422-5.509,8.19
		c-1.62,2.515-3.522,4.847-5.297,7.263c-0.166,0.226-0.499,0.551-0.437,0.69c0.537,1.218,0.431,2.167-0.893,2.783
		c-0.115,0.053-0.089,0.408-0.128,0.623c2.309,0.151-0.065,2.497,1.327,2.906c0.924,0.272,2.212,0.499,2.916,0.064
		c1.298-0.801-0.504-0.973-0.685-1.558c2.186-0.285,2.129-0.325,3.626-2.455c0.472-0.671,1.197-2.469,2.122-0.075
		c0.292,0.755,1.39-0.221,2.188-0.141c0.504,0.05,0.357-0.706-0.031-1.044c-0.637-0.556-0.546-1.038,0.037-1.561
		c0.251-0.225,0.523-0.576,0.066-0.82c-0.331-0.177-0.693,0.031-0.855,0.368c-0.286,0.595-0.363,1.348-1.357,1.477
		c0.044-1.802,0.529-3.336,1.893-4.534c0.501-0.44,0.802-0.952,1.712-0.438c0.992,0.561,1.366-0.71,1.954-1.213
		c0.625-0.533,0.948-1.314,0.719-2.169c-0.147-0.549-0.585-0.49-0.95-0.227c-0.415,0.299-0.754,0.706-1.178,0.988
		c-0.346,0.23-0.804,0.269-1.09-0.099c-0.244-0.314-0.064-0.673,0.196-0.92c0.556-0.529,0.855-1.208,1.173-1.88
		c0.235-0.495,0.37-1.084-0.095-1.428c-1.417-1.049,0.023-1.65,0.453-2.097c0.609-0.633,1.22,0.015,1.638,0.596
		c0.228,0.317,0.335,0.757,0.811,0.812c1.041,0.12,0.829,0.707,0.509,1.337c-0.644,1.27,0.325,1.478,1.105,1.372
		c1.898-0.259,3.82-0.556,5.016-2.411c0.316-0.49,0.844-1.383,1.613-0.686c0.737,0.668,0.507,1.323-0.369,1.927
		c-0.892,0.615-0.597,1.178,0.361,1.577c1.434,0.596,1.561,1.383,0.369,2.446c-0.733,0.654-0.629,1.546-0.887,2.331
		c-0.375,1.143-0.339,2.333-2.266,2.239c-1.185-0.058-2.144,1.396-3.023,2.314c-1.102,1.15-1.823,2.411-2.298,4.191
		c-0.976,3.652-2.196,7.438-5.066,10.321c-1.554,1.56-1.84,4.009-3.629,5.518c-0.418,0.352,0.386,1.507-0.225,2.228
		c-1.846,0.47-1.996,2.277-2.667,3.588c-0.568,1.111-1.144,2.181-1.857,3.211c-0.953,1.376-1.505,3.029-2.144,4.529
		c-1.049,2.462-3.343,3.71-4.581,5.823c-0.9,1.537-2.982,2.112-3.17,4.138c-0.212,2.148-1.716,3.295-3.478,3.969
		c-0.863,0.33-1.185,0.819-1.648,1.477c-1.647,2.343-2.578,5.102-4.665,7.232c-1.061,1.083-1.189,3.041-2.652,4.058
		c0.43-0.075,0.57-0.437,0.79-0.698c0.422-0.5,0.922-0.704,1.506-0.386c0.576,0.314,0.472,0.848,0.282,1.353
		c-0.184,0.488-0.437,0.985,0.166,1.356c0.415,0.255,0.881,0.281,1.306,0.041c0.605-0.342,0.301-0.749,0.027-1.135
		c-0.25-0.352-0.392-0.715-0.019-1.067c0.277-0.261,0.604-0.249,0.956-0.139c1.845,0.579,3.288-0.196,4.603-1.386
		c0.887-0.803,1.649-1.729,2.498-2.57c1.059-0.914,1.631-2.184,2.411-3.303c0.318-0.662,0.848-1.132,1.412-1.572
		c0.808-1.196,1.969-2.104,2.708-3.357c0.973-1.089,1.796-2.291,2.656-3.467c0.355-0.485,0.776-0.974,1.441-1.093
		c0.533-0.352,0.608-1.254,1.48-1.233c0.296,0.573-0.2,0.934-0.361,1.373c-0.327,0.89-1.406,1.775,0.139,2.618
		c0.274,0.15,0.148,0.736-0.219,1.025c-0.497-0.218-0.775-0.985-1.531-0.621c0.057,0.765,0.84,0.599,1.186,0.969
		c-0.139,0.301-0.212,0.666-0.429,0.892c-1.079,1.124-2.723,1.646-3.322,3.31c-0.224,0.623-0.871,0.573-1.455,0.247
		c-0.513-0.286-1.13-0.03-0.814,0.483c0.793,1.284,0.011,1.251-0.783,2.024c-1.145,1.113-2.672,1.959-3.486,3.281
		c-0.975,1.584-2.413,2.698-3.456,4.172c-0.646,1.491-1.496,2.799-3.084,3.448c-0.469,0.412-1.024,0.759-1.386,1.25
		c-0.583,0.789-0.915,1.615-2.258,0.992c-0.627-0.291-1.349,0.577-1.877,1.196c-0.757,0.889-1.446,1.916-2.941,1.49
		c-0.563-0.16-1.073,0.308-1.482,0.716c-2.572,2.561-5.144,5.122-7.697,7.702c-0.519,0.524-0.931,1.064-0.683,1.96
		c0.288,1.038-0.648,1.728-1.342,1.882c-0.66,0.146-1.835,0.365-2.226-0.691c-0.36-0.972-0.871-0.654-1.457-0.367
		c-0.145,0.11-0.287,0.107-0.427-0.008c-0.29-0.683,0.119-1.116,0.604-1.433c2.436-1.593,4.485-3.637,6.514-5.504
		c-1.385,0.862-2.663,2.103-4.238,2.906c-0.856,0.436-1.301,1.269-1.975,1.876c-0.822,0.74-1.647,1.192-2.287-0.197
		c-0.243-0.527-0.666-0.726-1.204-0.837c-0.809-0.166-1.377-0.639-1.339-1.52c0.034-0.779,0.57-1.312,1.294-1.393
		c0.867-0.098,0.981-0.583,1.231-1.288c0.368-1.042,1.541-1.657,1.889-3.071c-1.383,0.603-2.239,1.504-2.995,2.516
		c-0.307,0.41-0.532,0.882-0.852,1.285c-1.171,1.473-1.978,1.596-3.453,0.439c-0.645-0.506-1.227-0.858-2.136-0.834
		c-1.29,0.033-1.984-1.518-1.432-3.19c-1.326,1.619-2.746,1.926-4.445,0.856c-0.552-0.348-1.231-0.688-1.919-0.178
		c-0.692,0.72-1.525,1.342-1.75,2.444c0.776,0.272,1.227-0.438,1.845-0.371c1.629,0.323,3.228,1.221,4.923,0.174
		c0.354-0.219,0.782-0.102,1.074,0.259c0.301,0.372,0.171,0.748,0.008,1.124c-0.181,0.418-0.551,0.726-0.757,1.316
		c1.702,0.276,2.793,1.255,2.684,2.996c-0.057,0.919-0.454,1.964-1.829,1.71c0.202-1.659-0.619-2.584-2.103-3.185
		c-1.409-0.571-2.399-1.889-3.986-2.231c-1.037-0.223-1.882-0.2-2.643,0.613c-1.114,1.189-2.835,1.457-3.927,2.845
		c-1.033,1.314-2.132,2.642-3.392,3.789c-0.237,0.216-0.345,0.612-0.787,0.494c-0.003-0.456,0.005-0.912-0.011-1.368
		c-0.02-0.565,0.022-1.331-0.779-1.215c-0.632,0.092-1.097,0.676-0.802,1.427c0.547,1.394-0.388,2.383-0.934,3.453
		c-0.195,0.382-0.603,0.953-1.23,0.546c-0.446-0.291-0.514-0.867-0.261-1.225c0.65-0.92,0.322-2.148,1.056-3.02
		c0.236-0.281,0.261-0.635,0.014-0.943c-0.335-0.418-0.589-0.089-0.845,0.119c-0.844,0.688-0.941,0.039-1.002-0.58
		c-0.039-0.394-0.028-0.801,0.027-1.193c0.267-1.902,0.186-1.981-1.768-1.66c-0.637-2.215,0.134-4.002,1.727-5.525
		C4.237,223.65,4.107,223.091,4.232,222.605z"/>
	<path id="XMLID_657_" class="st48" d="M63.904,163.471c-1.239,1.311-1.791,3.057-2.868,4.481c-1.43,1.891-2.247,4.17-3.732,6.049
		c-0.493,0.624-1.067,1.191-1.512,1.814c-1.085,1.52-2.056,3.143-2.887,4.817c-0.762,1.538-2.183,2.383-3.307,3.531
		c-0.254,0.259-0.494,0.443-0.446,0.765c0.204,1.387-1.122,1.902-1.622,2.887c-0.285,0.561-0.791,0.155-1.209,0.013
		c-0.839-0.285-1.394,0.27-1.112,0.893c0.786,1.735-0.442,2.558-1.441,3.288c-1.043,0.762-1.705,1.816-2.587,2.631
		c-1.897,1.752-3.025,4.098-4.866,5.822c-1.664,1.558-2.731,3.638-4.599,4.993c-0.56,0.406-0.886,1.235-1.83,0.487
		c-0.636-0.503-0.979,0.313-1.374,0.651c-0.844,0.723-1.195,0.358-1.352-0.548c0.674-1.466,1.796-2.531,3.089-3.441
		c1.565-1.41,3.29-2.659,4.47-4.455c2.365-1.982,4.033-4.598,6.189-6.783c2.132-2.161,3.978-4.604,5.932-6.939
		c0.251-0.3,0.39-0.692,0.581-1.042c0.031-0.425,0.273-0.756,0.527-1.059c1.981-2.349,3.251-5.181,4.996-7.627
		c1.412-1.979,2.334-4.182,3.718-6.128c0.794-0.841,1.442-1.774,1.793-2.891c0.059-0.144,0.135-0.278,0.222-0.407
		c0.857-0.846,1.123-1.989,1.528-3.063c1.551-1.884,2.541-4.108,3.75-6.199c1.43-1.89,2.431-4.013,3.383-6.165
		c0.433-0.979,0.862-1.96,1.332-2.921c0.061-0.145,0.137-0.282,0.223-0.414c0.51-0.731,1.425-1.193,1.476-2.231
		c0.442-1.426,0.888-2.849,2.455-3.479c0.271-0.079,0.538-0.188,0.815-0.23c0.574-0.086,0.981-1.157,1.602-0.48
		c0.563,0.613,0.115,1.503-0.247,2.04c-1.844,2.732-2.701,5.996-4.865,8.59c-0.671,0.804-1.158,2.127-1.412,3.325
		c-0.214,1.014-0.382,2.08-1.137,2.811C65.676,158.704,65.064,161.234,63.904,163.471z"/>
	<path id="XMLID_656_" class="st49" d="M72.827,140.805c-0.835,1.179-1.982,2.187-2.061,3.778c-0.464,0.776-1.258,1.279-1.713,2.062
		l0,0c-1.238,2.339-2.201,4.833-3.752,6.992c-0.588,0.818-0.768,1.723-1.059,2.619c-1.096,2.16-2.089,4.383-3.775,6.184
		c-0.799,0.905-0.946,2.17-1.71,3.094l-0.001,0c-0.303,1.179-1.394,1.921-1.715,3.091c-0.68,1.037-1.482,2.022-1.389,3.38
		c0.029,0.428-0.139,0.845-0.492,1.029c-2.132,1.111-2.908,3.04-3.39,5.234c-0.117,0.533-0.696,1.037-1.176,1.405
		c-1.329,1.018-1.794,2.753-3.17,3.715c-0.804-0.045-0.916,0.762-1.392,1.116c-0.489,0.363-1.143,0.479-1.539-0.032
		c-0.353-0.455,0.108-0.803,0.506-1.08c0.725-0.505,1.192-1.206,1.385-2.066c0.077-0.345,0.119-0.756,0.468-0.855
		c1.814-0.512,1.915-2.58,3.247-3.534c0.227-0.163,0.442-0.769,0.331-0.911c-1.1-1.406-0.355-1.829,0.979-2.087
		c0.271-0.052,0.63-0.429,0.684-0.707c0.378-1.963,1.951-3.162,2.905-4.748c1.066-1.773,1.747-3.776,2.787-5.568
		c0.927-1.6,1.911-3.186,2.899-4.733c1.505-2.353,2.448-5,4.039-7.258c1.717-2.436,2.726-5.173,3.902-7.851
		c0.135-0.307,0.323-0.624,0.57-0.842c1.572-1.388,2.644-3.111,3.552-4.979c0.465-0.956,1.486-2.392,2.182-1.962
		c1.003,0.62-0.515,1.561-0.753,2.437C73.881,138.809,72.726,139.533,72.827,140.805z"/>
	<path id="XMLID_655_" class="st50" d="M115.065,70.076c-2.756,5.119-5.241,10.373-7.806,15.585
		c-2.876,5.843-5.558,11.791-8.64,17.528c-2.312,4.303-4.464,8.691-6.95,12.911c-1.393,2.364-3.104,4.579-4.079,7.189
		c-0.748,1.03-1.495,2.059-2.243,3.089c-0.128-0.079-0.256-0.158-0.383-0.237c0.465-1.834,1.635-3.362,2.58-4.95
		c2.02-3.394,4.104-6.719,5.741-10.352c1.282-2.845,3.071-5.488,4.354-8.36c1.781-3.986,3.713-7.901,5.491-11.89
		c0.832-1.868,1.908-3.723,2.797-5.58c2.149-4.488,5.255-8.444,7.096-13.063c0.495-1.243,1.036-2.488,1.472-3.764
		c0.185-0.542,0.557-1.225,1.188-0.912c0.555,0.275,0.019,0.912-0.096,1.37C115.464,69.133,115.243,69.599,115.065,70.076z"/>
	<path id="XMLID_654_" class="st51" d="M82.783,111.275c0.257-1.119,1.263-1.895,1.406-3.067c1.559-0.968,1.942-2.752,2.598-4.216
		c1.445-3.226,2.951-6.415,4.58-9.549c0.057,0.364-0.105,0.866,0.448,0.956c0.572,0.093,0.536-0.449,0.691-0.778
		c0.646-1.373,1.225-2.796,2.648-3.597c-1.051,2.367-2.369,4.599-3.525,6.915c-2.825,5.66-5.873,11.209-8.856,16.789
		c-0.505,0.945-1.131,1.826-1.702,2.736c-0.484,0.264-0.497,1.041-1.219,1.097c-0.321-0.571-0.071-1.193-0.151-1.779
		c0.513-0.954,1.568-1.579,1.684-2.774c0,0,0.008-0.006,0.008-0.006C81.738,113.033,82.436,112.243,82.783,111.275z"/>
	<path id="XMLID_653_" class="st5" d="M114.377,129.822c-0.114,0.343-0.229,0.685-0.343,1.028c-0.052-0.022-0.11-0.036-0.155-0.069
		c-0.803-0.577-2.021,0.485-2.637-0.584c-0.646-1.119,0.764-1.442,1.012-2.219c0.338-1.062-0.384-1.53-1.221-1.904
		c-0.42-0.187-0.916-0.471-0.549-1.006c0.327-0.476,0.834-0.735,1.477-0.384c0.475,0.259,0.591,1.336,1.436,0.732
		c0.679-0.484,0.988-1.221,0.984-2.069c-0.001-0.299,0.089-0.555,0.34-0.736c0.056,0.388-0.031,0.946,0.192,1.134
		c0.939,0.79,0.901,1.169-0.347,1.417c-0.469,0.093-0.718,0.649-0.711,1.083c0.011,0.714,0.658,0.422,1.054,0.483
		c0.894,0.138,1.769,0.459,1.806,1.447c0.035,0.953-0.728,1.333-1.651,1.302c-0.314-0.474,0.439-0.919,0.002-1.457
		C113.944,128.279,114.212,129.072,114.377,129.822z"/>
	<path id="XMLID_652_" class="st45" d="M83.757,171.222c-0.484,0.105-0.926-0.096-0.826-0.551c0.164-0.745,0.334-1.737,1.204-1.872
		c0.733-0.114,0.909,0.767,1.007,1.356C85.328,171.281,84.232,170.88,83.757,171.222z"/>
	<path id="XMLID_651_" class="st5" d="M114.378,131.538c0.102,0.191,0.338,0.492,0.286,0.555c-0.841,1.022-2.111,1.798-1.323,3.547
		c0.115,0.256-1.671,0.406-2.054,1.391c-0.069-0.618,0.195-1.08,0.629-1.505c0.274-0.268,0.722-0.715,0.648-0.928
		c-0.515-1.479,0.453-1.876,1.491-2.322C114.235,132.2,114.274,131.793,114.378,131.538z"/>
	<path id="XMLID_650_" class="st51" d="M95.153,91.024c-0.054-1.664,0.347-3.079,2.061-3.778C97.435,89,96.005,89.854,95.153,91.024
		z"/>
	<path id="XMLID_649_" class="st45" d="M82.34,173.467c-0.445-0.151-1.115,0.201-1.073-0.537c0.026-0.448,0.523-0.517,0.932-0.523
		c0.461-0.007,1.046,0.01,1.082,0.542C83.333,173.688,82.604,173.247,82.34,173.467z"/>
	<path id="XMLID_648_" class="st52" d="M139.782,81.405c-0.069,1.97-1,3.508-2.406,4.809c-0.032,1.186-1.122,1.873-1.395,3.009
		c-0.148,0.617-0.984,0.34-1.251-0.317c-0.268-0.659-0.105-1.333,0.035-2.016c0.316-1.547,0.127-3.177,0.753-4.717
		c-0.632,1.375-1.478,2.633-1.782,4.088c-0.472,2.256-1.077,4.434-2.558,6.266c-0.385,0.477-0.507,1.005-0.399,1.603
		c0.072,0.395,0.189,1.042-0.081,1.14c-2.45,0.889-0.639,3.324-1.748,4.67c-0.091,0.111-0.055,0.218,0.041,0.26
		c0.409-0.338,0.485-0.878,0.761-1.297c0.344-0.523,0.689-1.227,1.412-0.997c0.902,0.287,0.658,1.041,0.388,1.706l0.002-0.004
		c-0.804,1.279-1.081,2.777-1.714,4.128c0,0,0.004-0.002,0.004-0.002c-1.147,0.858-1.017,2.34-1.663,3.453
		c-0.307,0.528-0.435,1.175-0.867,1.646c-0.361,0.394-0.517,1.483-1.309,0.712c-0.49-0.477-1.482-1.178-0.411-2.113
		c0.352-0.307,0.659-0.727,0.598-1.187c-0.166-1.245-0.631-2.436,1.507-2.447c0.835-0.004,0.902-1.132,0.104-1.669
		c-0.503-0.338-1.075-0.763-1.596-0.905c-1.394-0.38-1.016-0.969-0.44-1.737c1.312-1.748,1.436-3.967,2.292-5.906
		c0.425-0.964,0.616-1.87,1.754-2.291c0.901-0.333,1.558-1.088,0.536-1.917c-1.292-1.047-0.956-2.133-0.437-3.342
		c0.562-1.306,1.057-2.642,1.644-3.937c0.296-0.653-0.048-0.955-0.49-1.258c-0.483-0.332-0.992-0.414-1.313,0.173
		c-0.838,1.537-2.333,2.685-2.669,4.516c-0.251,0.741-0.73,1.367-1.053,2.073c-0.331,0.724-0.872,0.977-1.624,0.571
		c-0.59-0.374-0.825-0.906-0.712-1.594c1.36-1.576,1.979-3.42,2.58-5.426c0.632-2.109,2.234-3.932,3.432-5.867
		c0.765-1.236,1.515-2.33,1.132-3.944c-0.28-1.18,0.812-1.597,1.736-1.952c0.501-0.622,1.042-1.005,1.935-1.116
		c1.051-0.13,1.894-0.731,0.736-1.908c-0.855-0.868-0.839-1.752-0.358-2.873c0.357-0.832,0.24-1.865,0.782-2.688
		c0.103,0.907-0.445,2.207,1.467,1.835c0.833-0.162,0.734,0.935,0.483,1.267c-0.837,1.109-0.26,1.734,0.409,2.634
		c0.646,0.87,0.911,2.073-0.69,2.507c-0.489,0.132-0.821,0.576-0.6,0.831c0.779,0.9-0.261,2.629,1.454,3.062
		c0.426,0.107,0.42,0.483,0.229,0.834c-0.245,0.452-0.634,0.518-0.997,0.224c-0.693-0.562-1.028-0.124-1.306,0.424
		c-0.156,0.309-0.182,0.684,0.093,0.957c0.232,0.23,0.534,0.182,0.779-0.001c0.348-0.259,0.647-0.427,1.032-0.024
		c0.417,0.437,0.27,0.772-0.026,1.196c-0.497,0.711-0.132,0.963,0.599,1.118c0.916,0.194,1.211,0.676,0.617,1.585
		c-0.295,0.451-0.344,1.074-0.458,1.628c-0.063,0.307-0.364,0.695,0.009,0.937C139.222,82.114,139.398,81.448,139.782,81.405z"/>
	<path id="XMLID_647_" class="st4" d="M123.993,86.558c-0.034,0.588,0.062,1.112,0.684,1.372c0.37,0.468,0.138,0.896-0.181,1.215
		c-1.096,1.101-1.454,2.7-2.594,3.767c-0.249,0.233-0.475,0.56-0.444,0.896c0.225,2.409-1.742,3.992-2.277,6.11
		c-0.036,0.143-0.225,0.248-0.341,0.373c-0.902,1.464-1.253,3.275-2.767,4.36c-0.14,0.101-0.26,0.486-0.184,0.594
		c1.297,1.834-0.528,2.728-1.169,3.973c-0.582,0.569-0.022,1.519-0.687,2.061c-0.795,0.461-1.019,1.208-1.03,2.061
		c-0.927,2.109-2.641,3.512-4.395,4.874c-0.294,0.229-0.656,0.611-1.044,0.26c-0.366-0.33-0.407-0.795-0.104-1.245
		c0.675-1,1.129-2.106,1.468-3.254c0.395-1.34,0.042-1.736-1.242-1.445c-0.8,0.181-0.993-0.216-0.696-0.826
		c0.412-0.848,0.835-1.726,1.66-2.304c0.092,0.121,0.138,0.159,0.155,0.208c0.223,0.635-0.924,1.621,0.214,1.882
		c0.865,0.198,1.551-0.779,1.82-1.55c0.794-2.281,1.416-4.621,2.135-6.928c0.249-0.801,0.219-1.314-0.809-1.382
		c-0.592-0.039-0.962-0.393-0.657-1.064c0.274-0.602,0.561-1.098,1.416-0.812c1.697,0.568,3.103-0.11,3.77-1.728
		c0.26-0.632,0.512-1.268,0.793-1.891c1.159-2.566,0.623-3.912-1.996-4.91c-0.776-0.296-1.118-0.676-0.653-1.53
		c0.459-0.843,0.179-1.798,0.215-2.703c0.027-0.677-0.324-1.069-1.018-1.122c-0.161-0.104-0.166-0.371-0.409-0.388
		c0.064,0.205,0.299,0.23,0.408,0.388c-0.457,0.801-0.915,1.603-1.372,2.404c-0.642,0.138-1.377,0.568-1.851-0.185
		c-0.473-0.75,0.085-1.357,0.478-1.995c1.01-1.636,1.955-3.318,3.656-4.363c0.788-0.484,0.377-1.817,1.495-2.041
		c0.319,0.876,0.363,2.214,1.48,2.2c0.935-0.012,1.413-1.288,1.468-2.109c0.126-1.898,1.186-3.425,2.127-4.782
		c1.725-2.488,2.493-5.379,3.995-7.927c0.24-0.408,0.292-1.042,1.2-0.917c-0.076,2.156-3.237,5.379,1.745,5.98
		c0.234,1.385-0.275,2.518-1.193,3.511c-0.66-0.411-1.274-0.418-1.808,0.219c-0.944,1.127-1.723,2.181-1.733,3.885
		c-0.01,1.697-0.689,3.443-1.951,4.788c-0.587,0.626-1.174,0.636-1.726-0.069c-0.816-1.043-1.258-0.32-1.271,0.424
		c-0.021,1.189-0.369,2.108-1.298,2.831c-0.365,0.284-0.477,0.682-0.183,1.054c0.454,0.575,0.366,1.311,0.647,1.959
		c0.553-0.228,0.102-1.113,0.808-1.204c0.775,0.191,1.914,0,1.645,1.374c-0.147,0.748-0.924,1.279-0.888,2.196
		c0.723-0.265,1.035-0.843,1.244-1.395c0.69-1.82,2.371-3.079,2.807-5.037C123.586,86.524,123.816,86.488,123.993,86.558z"/>
	<path id="XMLID_646_" class="st53" d="M116.438,79.69c-0.343,1.622-1.36,2.683-2.7,3.608c-1.319,0.911-1.467,2.735-2.65,3.843
		c-0.337,0.316-0.366,1.207,0.678,0.892c0.357-0.108,0.664-0.093,0.895,0.24c-1.262,2.516-2.523,5.032-3.785,7.548
		c-1.257,0.196-0.897-0.645-0.688-1.2c0.539-1.433,1.244-2.798,1.973-4.547c-0.824,1.715-1.333,3.179-2.158,4.492
		c-0.32,0.51-0.679,1.002-1.357,0.666c-0.581-0.287-0.442-0.856-0.342-1.364c0.044-0.223,0.122-0.439,0.203-0.652
		c0.693-1.818,1.563-3.594,1.345-5.63c1.422-2.754,2.81-5.527,4.214-8.288c1.74-3.424,3.241-6.976,5.143-10.319
		c0.744-1.308,0.939-3.16,2.937-3.444c0.348-0.05,0.425-0.395,0.293-0.675c-1.163-2.468,1.21-3.798,1.829-5.689
		c0.109-0.334,0.454-0.373,0.658-0.063c0.324,0.492,0.752,0.851,0.587,1.655c-0.389,1.892-1.225,3.583-1.98,5.32
		c-0.223,0.513-0.622,1.275,0.115,1.455c1.308,0.32,0.802,1.108,0.504,1.644c-1.383,2.488-2.011,5.466-4.568,7.21
		c-0.248,0.169-0.506,0.459-0.326,0.705C118.189,78.368,116.831,78.869,116.438,79.69z"/>
	<path id="XMLID_645_" class="st54" d="M123.993,86.558c-0.743,2.561-2.544,4.519-3.867,6.749c-0.199,0.335-0.586,0.905-1.075,0.57
		c-0.419-0.287-0.158-0.831,0.01-1.261c0.083-0.211,0.066-0.512,0.212-0.64c1.178-1.038,0.879-1.77-0.434-2.329
		c-0.439-0.784,0.199-1.089,0.694-1.233c1.564-0.454,2.297-1.734,2.776-3.027c1.125-3.034,2.885-5.78,3.884-8.861
		c0.141-0.435,0.392-0.824,0.888-0.958c0.457-1.145,0.914-2.289,1.371-3.434c1.847-3.252,2.899-6.852,4.276-10.294
		c0.7-1.75,0.957-3.78,1.51-5.668c0.255-0.87,0.688-1.25,1.417-1.483c0.394-0.126,0.806-0.084,1.11,0.249
		c0.357,0.39,0.138,0.817-0.109,1.086c-0.961,1.046-1.79,2.096-1.038,3.62c-1.56,1.04-0.252,3.522-2.199,4.383
		c-0.174,0.077-0.413,0.401-0.37,0.517c0.638,1.701-0.907,3.177-0.476,4.844c-0.833,0.892-1.9,1.648-1.1,3.186
		c0.183,0.353-0.148,1.173-0.489,1.564c-1.61,1.854-2.228,4.331-3.927,6.122c-0.578,0.609-0.638,1.4-0.685,2.222
		C126.275,84.219,125.33,85.516,123.993,86.558z"/>
	<path id="XMLID_644_" class="st4" d="M107.853,87.587c0.021,0.505-0.046,1.003,0.384,1.434c0.494,0.496,0.315,1.03-0.091,1.528
		c-0.851,1.044-0.943,2.409-1.495,3.581c-0.15,0.318-0.252,0.703,0.15,0.888c0.408,0.188,0.546-0.142,0.736-0.466
		c0.806-1.372,1.527-2.782,2.028-4.293c0.167-0.504,0.405-1.23,0.885-1.02c0.721,0.316,0.112,0.98-0.079,1.44
		c-0.586,1.411-1.227,2.799-1.865,4.187c-0.218,0.474-0.39,0.882,0.37,0.956c-1.123,2.519-2.254,5.034-3.358,7.561
		c-0.167,0.381,0.002,0.781,0.151,1.162c0.135,0.345,0.072,0.891-0.288,0.798c-1.26-0.324-1.605,0.8-2.475,1.46
		c-0.208-1.373-1.142-1.453-2.169-1.362c-0.851,0.075-1.102-0.201-0.828-1.09c0.655-2.127,1.84-4.012,2.654-6.064
		c0.225-0.568,0.866-0.627,1.421-0.812c0.777-0.26,1.303-0.605,0.76-1.75c-0.687-1.449,0.376-2.806,0.959-4.104
		C106.325,90.232,107.129,88.927,107.853,87.587z"/>
	<path id="XMLID_643_" class="st4" d="M101.941,114.908c1.082-3.56,2.959-6.567,5.021-9.463c0.161,0.087,0.321,0.173,0.482,0.26
		c-0.703,1.571-1.359,3.167-2.132,4.703c-0.357,0.708-0.471,1.433-0.673,2.147C104.315,113.705,102.935,114.21,101.941,114.908z"/>
	<path id="XMLID_642_" class="st4" d="M112.011,98.007c-0.175,0.392-0.276,0.796-0.506,1.104c-1.186,1.59-2.126,3.311-2.9,5.133
		c-0.147,0.347-0.321,0.857-0.822,0.645c-0.44-0.186-0.373-0.76-0.216-1.057c1.077-2.041,2.203-4.055,3.346-6.06
		c0.155-0.271,0.471-0.571,0.845-0.363C111.905,97.49,111.928,97.795,112.011,98.007z"/>
	<path id="XMLID_641_" class="st5" d="M138.496,36.133c0.494,0.034,0.602,0.335,0.577,0.701c-0.04,0.583-0.327,0.962-0.956,0.9
		c-0.358-0.035-0.672-0.275-0.605-0.66C137.606,36.535,138.005,36.232,138.496,36.133z"/>
	<path id="XMLID_640_" class="st55" d="M75.921,194.718c-1.261,1.601-2.522,3.203-3.783,4.804c-0.874,0.557-1.263,1.665-2.481,1.892
		c-0.954,0.178,0.366,1.1-0.262,1.541c-0.585,0.332-1.043,0.791-1.374,1.376c-0.824,0.499-1.132,1.543-2.291,1.789
		c-0.885,0.188,0.598,1.111-0.113,1.641c-0.62,0.654-1.351,1.235-1.838,1.976c-1.028,1.566-2.827,1.737-4.25,2.582
		c-0.995,0.591-1.404-1.215-2.027-0.558c-0.831,0.878,1.227,0.829,0.838,1.768c-0.252,0.608-0.859,0.763-1.372,0.912
		c-0.685,0.199-1.328-0.127-1.872-0.567c-0.496-0.401-0.193-0.817,0.027-1.214c0.249-0.45,0.947-0.949,0.102-1.367
		c-0.7-0.346-0.955,0.348-1.246,0.839c-0.172,0.29-0.388,0.559-0.615,0.809c-0.212,0.233-0.501,0.296-0.763,0.091
		c-0.319-0.249-0.395-0.599-0.082-0.878c1.334-1.188,2.512-2.39,2.64-4.386c0.033-0.511,1.201-0.66,1.678-1.568
		c1.201-2.282,2.86-4.322,3.752-6.795c0.066-0.182,0.329-0.441,0.473-0.425c2.705,0.303,3.347-1.997,4.557-3.576
		c0.479-0.173,0.599-0.659,0.887-1c0.358-0.425,0.678-1.023,1.319-0.978c0.784,0.055,0.437,0.788,0.581,1.223
		c0.116,0.35,0.299,0.628,0.68,0.677c0.583,0.075,0.582-0.374,0.676-0.767c0.079-0.328,0.207-0.655,0.377-0.945
		c0.099-0.169,0.334-0.382,0.491-0.369c0.344,0.027,0.463,0.355,0.352,0.639c-0.267,0.687-0.279,1.26,0.567,1.468
		c0.854,0.21,1.003-0.532,1.323-1.049c0.297-0.479,0.679-0.908,0.952-1.399c0.236-0.425,0.204-1.166,0.846-1.103
		c0.596,0.058,0.909,0.688,1.058,1.237C75.878,193.574,75.865,194.155,75.921,194.718z"/>
	<path id="XMLID_639_" class="st56" d="M59.786,216.704c1.028-1.149,2.056-2.299,3.084-3.448c1.206-0.283,2.257-0.749,2.749-2.029
		c0.449-1.166,1.713-1.447,2.55-2.198c0.499-0.448,0.881-0.077,0.853,0.503c-0.027,0.558-0.206,1.109-0.318,1.663
		c-1.497,1.163-2.414,2.821-3.621,4.206c-2.077,2.385-3.837,5.054-6.177,7.199c-0.798,0.732-1.16,1.859-2.211,2.335
		c-2.012,1.393-2.971,3.792-4.966,5.202c0.495,1.885-2.206,2.133-2.004,3.942c0.062,0.56-0.671,0.496-1.107,0.413
		c-0.561-0.107-0.509-0.523-0.345-0.931c0.084-0.211,0.188-0.418,0.311-0.61c0.297-0.464,0.915-1.002,0.27-1.465
		c-0.666-0.479-1.108,0.177-1.461,0.707c-0.263,0.394-0.624,0.869-1.068,0.455c-0.427-0.398,0.039-0.855,0.366-1.12
		c0.775-0.626,1.204-1.7,2.372-1.829c0.363-0.04,0.655-0.303,0.697-0.667c0.238-2.066,2.018-2.903,3.273-4.157
		c0.16-0.16,0.38-0.263,0.529-0.431c1.916-2.155,3.838-4.304,5.717-6.49C59.558,217.631,59.623,217.125,59.786,216.704z"/>
	<path id="XMLID_638_" class="st5" d="M118.841,100.292c0.226-1.347,0.648-2.595,1.484-3.722c0.491-0.663,0.901-1.428,0.606-2.385
		c-0.231-0.748,0.379-1.218,0.784-1.781c1.044-1.45,1.982-2.976,2.963-4.472c0.635,0.333,0.896,0.046,1.055-0.57
		c0.201-0.777,0.581-1.458,1.35-1.834c1.494,0.952,1.368,2.14,0.667,3.562c-0.388,0.787-0.492,1.728-0.648,2.612
		c-0.246,1.396-0.828,2.562-2.114,3.248c-1.176,0.628-1.782,1.555-1.678,2.892c0.078,1.007-0.559,1.69-1.036,2.45
		C121.129,101.306,119.985,100.375,118.841,100.292z"/>
	<path id="XMLID_637_" class="st5" d="M117.466,112.653c0.037,1.354,0.7,1.157,1.562,0.672c0.574-0.323,0.727-1.503,1.699-0.961
		c0.486,0.271,0.944,0.937,0.705,1.429c-0.385,0.79-0.977,1.535-2.03,1.609c-1.205,0.085-0.966,0.51-0.218,1.028
		c-0.558,0.97-0.94,0.609-1.452-0.101c-0.586-0.814-0.682-2.126-2.537-1.951C116.233,113.59,116.85,113.122,117.466,112.653z"/>
	<path id="XMLID_636_" class="st4" d="M114.377,129.822c-0.917-0.854-0.819-1.914,0.228-2.302c0.451-0.167,0.917-0.16,1.246,0.256
		c0.349,0.441-0.033,0.719-0.279,1.022c-0.178,0.219-0.339,0.452-0.508,0.679C114.835,129.592,114.606,129.707,114.377,129.822z"/>
	<path id="XMLID_635_" class="st57" d="M76.615,198.848c-0.155,0.066-0.306,0.175-0.467,0.191c-0.837,0.084-1.18-0.563-1.462-1.144
		c-0.164-0.336,0.213-0.718,0.542-0.69c0.809,0.068,1.774,0.045,1.732,1.296C76.845,198.616,76.73,198.732,76.615,198.848z"/>
	<path id="XMLID_634_" class="st5" d="M118.657,123.495c-0.222,0.73-0.546,1.322-1.307,1.466c-0.363,0.069-0.755-0.146-0.697-0.534
		c0.097-0.644,0.151-1.415,1.099-1.456C118.181,122.952,118.515,123.078,118.657,123.495z"/>
	<path id="XMLID_633_" class="st5" d="M114.033,111.279c0.065-0.742-0.263-1.614,0.687-2.061c-0.008,0.522,0.01,1.063,0.588,1.28
		c0.537,0.201,1.019,0.432,0.58,1.058c-0.467,0.665-0.944,0.332-1.382-0.128C114.406,111.323,114.193,111.326,114.033,111.279z"/>
	<path id="XMLID_632_" class="st4" d="M118.497,104.412c-0.082-0.828,0.331-1.358,1.03-1.717c0.582-0.125,0.782,0.134,0.688,0.687
		c-0.344,0.456-0.688,0.913-1.032,1.369C118.817,104.915,118.627,104.725,118.497,104.412z"/>
	<path id="XMLID_631_" class="st5" d="M118.497,104.412c0.228,0.113,0.457,0.226,0.685,0.339c-0.022,0.052-0.039,0.108-0.067,0.157
		c-0.336,0.568-0.273,1.388-1.032,1.679c-0.095,0.036-0.388-0.133-0.385-0.196C117.736,105.645,117.895,104.935,118.497,104.412z"/>
	<path id="XMLID_630_" class="st5" d="M121.928,104.413c-0.394,0.978-0.654,2.09-2.057,2.059
		C120.181,105.411,121.098,104.955,121.928,104.413z"/>
	<path id="XMLID_629_" class="st5" d="M120.215,103.382c-0.131-0.327-0.36-0.556-0.688-0.687c0.443-0.333,0.886-0.667,1.479-1.113
		C121.18,102.543,120.832,103.022,120.215,103.382z"/>
	<path id="XMLID_628_" class="st5" d="M118.497,118.49c0.114,0.343,0.229,0.687,0.343,1.03c-0.443,0.213-0.886,0.426-1.497,0.719
		C117.414,119.308,117.867,118.843,118.497,118.49z"/>
	<path id="XMLID_627_" class="st56" d="M72.486,206.047c-0.414-0.239-0.836-0.487-0.427-1.047c0.193-0.264,0.497-0.34,0.737-0.102
		C73.332,205.43,72.51,205.639,72.486,206.047C72.486,206.047,72.486,206.047,72.486,206.047z"/>
	<path id="XMLID_626_" class="st58" d="M104.416,69.729c-0.466,0.181-1.043,0.597-0.944-0.435c0.01-0.108,0.063-0.226,0.131-0.313
		c1.862-2.376,1.478-5.468,2.563-8.065c1.25-2.994,2.021-6.132,3.133-9.163c1.053-2.872,2.011-5.771,1.309-8.911
		c-0.075-0.337,0.009-0.684,0.287-0.944c0.462,0.232,0.57,0.832,1.067,1.027c0.075,0.828-0.184,1.708,0.477,2.441
		c0.298,0.33,0.074,0.704-0.029,1.102c-0.642,2.481-1.214,4.979-1.809,7.472c0.239,2.977-1.018,5.581-2.061,8.237
		c0.029,0.787-0.31,1.426-0.786,2.022C106.4,65.896,105.544,67.895,104.416,69.729z"/>
	<path id="XMLID_625_" class="st59" d="M8.625,235.235c1.05-1.58,2.611-2.771,3.624-4.318c1.177-1.798,3.292-2.109,4.655-3.601
		c1.031-1.129,2.74-0.417,3.818,0.199c1.497,0.855,2.962,1.828,4.412,2.793c1.026,0.683,1.258,1.55,0.304,2.516
		c-0.626,1.203-1.872,1.336-2.974,1.678c-0.749,0.232-1.539,0.334-2.313,0.486c-0.546,0.107-0.813,0.364-0.543,0.938
		c0.203,0.963,0.975,0.989,1.721,1.02c0.625,0.026,1.253,0.001,1.879,0.01c0.399,0.006,0.908,0,0.956,0.485
		c0.047,0.476-0.489,0.579-0.842,0.714c-0.309,0.118-0.661,0.138-0.997,0.167c-0.508,0.044-1.181-0.012-1.173,0.669
		c0.01,0.802,0.756,0.69,1.305,0.702c1.078,0.024,2.145,0.024,3.209-0.286c0.51-0.149,1.238-0.282,1.628,0.171
		c0.506,0.589-0.239,1.008-0.472,1.478c-0.439,0.886-1.095,1.781,0.562,2.098c0.423,0.081,0.784,0.324,0.684,0.812
		c-0.125,0.607-0.573,1.114-1.153,1.115c-1.519,0.004-1.956,1.124-2.502,2.174c-1.043-0.703-1.651-1.79-2.415-2.74
		c-1.197-0.862-0.699-2.106-0.544-3.146c0.122-0.816,0.179-1.405-0.7-1.554c-0.859-0.145-1.573,0.196-1.803,1.15
		c-0.053,0.219-0.002,0.466-0.066,0.68c-0.215,0.718-0.471,1.607-1.271,1.655c-0.687,0.041-1.445-0.48-1.702-1.21
		c-0.286-0.809-0.064-1.812,0.66-2.141c1.706-0.775,0.668-1.38-0.08-1.76c-0.883-0.448-1.616-1.834-3.007-0.418
		c-0.635,0.646-0.871-0.536-0.694-0.953c0.587-1.383-0.49-1.781-1.289-2.124c-0.912-0.391-1.237,0.435-1.535,1.155
		c-0.261,0.631-0.768,1.49-1.39,1.2C7.88,236.725,8.34,235.854,8.625,235.235z"/>
	<path id="XMLID_624_" class="st60" d="M19.608,235.925c-0.362-0.059-0.899,0.099-0.935-0.457c-0.043-0.67,0.583-0.801,1.045-0.867
		c2.007-0.285,3.963-0.702,5.721-1.778c1.323-0.19,1.817-1.344,1.463-2.2c-0.26-0.628-0.389-2.446-2.11-1.649
		c-0.333,0.154-0.677-0.024-0.871-0.353c-0.226-0.382,0.056-0.63,0.275-0.888c0.293-0.345,0.607-0.675,0.868-1.043
		c0.157-0.222,0.299-0.507,0.076-0.779c-0.217-0.265-0.53-0.273-0.761-0.084c-1.773,1.45-3.426,0.291-5.11-0.209
		c-0.076-0.175-0.01-0.308,0.11-0.441c0.397-0.439,1.486,0.198,1.431-0.763c-0.042-0.734-0.862-0.957-1.48-1.23
		c-0.155-0.069-0.284-0.18-0.397-0.308c0.911-0.81,1.785-0.246,2.492,0.24c1.532,1.052,2.684,0.45,3.854-0.583
		c0.352-0.311,0.557-0.896,1.199-0.8c0.398,0.53-0.106,0.78-0.365,0.96c-1.148,0.801-0.115,1.503,0.077,2.216
		c0.217,0.809,0.787,0.674,1.346,0.356c0.734-0.418,1.017,0.238,1.407,0.594c1.844,1.682,2.516,1.679,3.735-0.512
		c0.787-1.414,2.061-2.238,3.128-3.313c0.247-0.249,0.66-0.551,1.06-0.186c0.36,0.328,0.262,0.743,0.034,1.096
		c-0.432,0.667-0.788,1.449-1.382,1.929c-0.779,0.629-0.901,1.202-0.17,2.126c-0.69,0-1.141-0.023-1.589,0.005
		c-0.773,0.048-1.409,0.439-1.359,1.228c0.047,0.734,0.52,1.168,1.44,0.975c0.771-0.162,1.081,0.489,1.209,1.14
		c0.213,1.08,0.853,0.883,1.286,0.308c1.827-2.426,4.808-3.367,6.883-5.459c0.221-0.222,0.463-0.623,0.836-0.279
		c0.431,0.399,0.095,0.76-0.218,0.996c-2.39,1.8-4.234,4.263-6.933,5.69c-0.469,0.248-0.801,0.645-0.809,1.226
		c-0.078,1.15-1.836,3.627-2.794,3.938c-0.914,0.296-2.336-0.735-2.839-2.197c-0.307-0.891-0.663-1.328-1.576-0.708
		c-2.787,0.248-5.238,2.077-8.163,1.731C20.367,235.554,19.98,235.808,19.608,235.925z"/>
	<path id="XMLID_623_" class="st61" d="M31.303,247.239c-0.559-0.652-1.317-0.682-2.089-0.673c-0.786-0.899-1.38-1.748-0.36-2.951
		c0.616-0.726,0.081-1.515-0.481-2.085c-0.987-1.003-0.425-1.495,0.564-1.776c1.545-0.438,4.518,0.586,4.376,1.796
		c-0.2,1.706,0.553,3.181,0.389,4.711C33.575,247.455,32.275,247.291,31.303,247.239z"/>
	<path id="XMLID_622_" class="st62" d="M28.883,233.865c0.785-1.061,1.388-0.944,1.694,0.32c0.115,0.475,0.337,0.822,0.647,1.167
		c1.502,1.668,1.87,1.674,3.181-0.225c0.541-0.784,1.582-1.199,1.687-2.295c0.115,0,0.23,0.001,0.345,0.001
		c-0.831,1.654-0.017,3.428-0.362,5.102c-0.296,1.43-1.013,1.743-2.074,0.817c-0.983-0.857-1.343,0.111-1.952,0.536
		c-0.545-0.904,1.344-1.6,0.032-2.381c-0.772-0.459-1.434-1.152-2.586-0.988C30.318,234.84,30.787,233.903,28.883,233.865z"/>
	<path id="XMLID_621_" class="st63" d="M21.996,244.514c1.071,0.679,2.079,1.413,2.415,2.74c-0.46,1.37-0.92,2.739-1.381,4.108
		c0.002-0.285,0.015-0.569,0.004-0.854c-0.023-0.616,0.086-1.399-0.785-1.449c-0.802-0.046-0.465,0.736-0.619,1.161
		c-0.223,0.616-0.593,1.292-1.306,1.013c-0.724-0.284-0.311-0.974-0.076-1.466c0.193-0.405,0.485-0.763,0.733-1.142
		C21.746,247.36,22.029,245.976,21.996,244.514z"/>
	<path id="XMLID_620_" class="st64" d="M46.77,240.041c-0.51-0.055-0.97,0.101-1.411,0.336c0.153-1.44,1.471-1.886,2.348-2.687
		c0.694-0.633,1.594-1.058,1.774-2.112c0.328-0.582,0.793-1.031,1.352-1.388c0.006,0.494-0.052,1.053,0.75,0.734
		C50.358,236.986,48.492,238.446,46.77,240.041z"/>
	<path id="XMLID_619_" class="st65" d="M150.423,49.105c-1.689,3.501-2.341,7.324-3.422,11.014
		c-1.069,0.481-1.164,0.301-0.988-0.912c0.601-4.144,2.198-8.046,2.804-12.184c0.088-0.603-0.057-1.109-0.091-1.66
		c-0.032-0.531-0.008-1.066,0.591-1.286c0.53-0.195,1.666,0.521,1.263-0.995c-0.172-0.648,0.459-1.406-0.185-2.09
		c-0.42-0.445-0.416-1.079,0.168-1.279c0.71-0.243,1.527-0.629,2.265-0.246c0.558,0.29,0.074,0.796-0.05,1.206
		c-0.328,1.085-0.641,2.175-0.606,3.327c0,0-0.004-0.008-0.004-0.008C151.572,45.692,151.223,47.475,150.423,49.105z"/>
	<path id="XMLID_618_" class="st13" d="M30.251,202.607c-0.802,1.352-1.939,2.402-3.089,3.441c-1.145,1.03-2.289,2.06-3.434,3.09
		c-0.621,0.138-1.4,0.332-1.535-0.504c-0.134-0.829,0.541-1.494,1.15-1.953c1.379-1.041,2.64-2.248,4.19-3.065
		c0.605-0.319,1.179-0.764,1.309-1.497c0.141-0.795,0.469-1.698,1.302-1.425C31.203,201.041,30.181,201.949,30.251,202.607z"/>
	<path id="XMLID_617_" class="st13" d="M20.639,213.258c-0.114,0.115-0.228,0.23-0.342,0.345c-0.774-0.067-1.481,0.052-1.919,0.785
		c-0.308,0.515-0.722,0.698-1.282,0.481c-0.277-0.107-0.516-0.321-0.456-0.635c0.096-0.504,0.282-1.028,0.806-1.215
		c0.56-0.199,1.04-0.386,1.169-1.061c0.09-0.469,0.423-0.923,0.868-0.939c0.645-0.024,0.667,0.646,0.825,1.106
		C20.435,212.497,20.529,212.88,20.639,213.258z"/>
	<path id="XMLID_616_" class="st13" d="M18.563,208.788c1.594-1.845,3.32-3.558,5.158-5.159
		C22.697,206.043,20.976,207.762,18.563,208.788z"/>
	<path id="XMLID_615_" class="st45" d="M14.119,213.604c0.229-0.226,0.459-0.451,0.688-0.677c0.493,0.094,1.191-0.748,1.441,0.092
		c0.22,0.74-0.46,1.52-1.037,1.742C14.566,215.009,14.209,214.271,14.119,213.604z"/>
	<path id="XMLID_614_" class="st45" d="M11.137,220.157c0.468,0.061,0.83,0.23,0.786,0.72c-0.033,0.375-0.349,0.577-0.711,0.572
		c-0.432-0.006-0.786-0.214-0.748-0.702C10.495,220.366,10.828,220.226,11.137,220.157z"/>
	<path id="XMLID_613_" class="st13" d="M15.146,212.229c0.995-0.61,1.548-1.659,2.398-2.413
		C17.227,211.1,16.697,212.172,15.146,212.229z"/>
	<path id="XMLID_612_" class="st66" d="M111.962,42.926c-1.201,0.536-0.918-0.47-1.067-1.027c0.716-2.893,1.433-5.786,2.155-8.701
		c0.77,0.248,0.592,0.785,0.689,1.195c0.038,1.043,0.247,2.108-0.406,3.059c-0.442,1.369-0.883,2.739-1.325,4.108
		C111.992,42.015,111.977,42.47,111.962,42.926z"/>
	<path id="XMLID_611_" class="st67" d="M113.056,29.563c0.679-2.505,1.357-5.011,2.036-7.515c0.945,0.129,0.605,0.759,0.502,1.293
		c-0.29,1.499-0.584,2.997-0.876,4.495c-0.325,1.016-0.386,2.061-0.332,3.117C112.886,31.501,113.144,30.366,113.056,29.563z"/>
	<path id="XMLID_610_" class="st8" d="M113.333,37.452c-0.098-1.051,0.205-2.049,0.405-3.06
		C113.971,35.461,114.988,36.633,113.333,37.452z"/>
	<path id="XMLID_609_" class="st4" d="M131.552,99.612c-0.079-0.533,0.226-1.35-0.493-1.468c-0.61-0.1-0.831,0.671-1.077,1.177
		c-0.348,0.714-0.453,2.003-1.415,1.699c-0.675-0.213,0.085-1.29,0.233-1.965c0.223-1.013,0.522-1.987-0.182-2.944
		c-0.212-0.287-0.199-0.661,0.066-0.951c0.265-0.29,0.493-0.107,0.727,0.082c1.136,0.917,1.251-0.091,1.017-0.705
		c-0.454-1.192,0.029-1.876,0.762-2.717c0.903-1.036,1.431-2.364,1.619-3.719c0.27-1.946,1.484-3.6,1.585-5.577
		c0.027-0.53,0.394-0.81,0.814-1.006c0.317-0.148,0.702-0.183,0.948,0.116c0.343,0.415,0.21,0.901-0.063,1.273
		c-1.187,1.621-0.456,3.622-1.092,5.354c-0.122,0.331-0.094,0.876,0.448,0.953c0.454,0.065,0.431-0.385,0.582-0.683
		c0.403-0.795,0.891-1.547,1.345-2.317c-0.458,2.337-1.564,4.443-2.678,6.477c-0.739,1.35-1.092,2.812-1.79,4.145
		C132.192,97.633,132.413,98.886,131.552,99.612z"/>
	<path id="XMLID_608_" class="st11" d="M150.423,49.105c0.504-1.731,0.769-3.543,1.745-5.113c0.077,1.859-1.056,3.39-1.393,5.138
		C150.658,49.122,150.54,49.113,150.423,49.105z"/>
	<path id="XMLID_607_" class="st4" d="M129.84,103.736c0.336-1.474,0.559-2.994,1.714-4.128
		C131.075,101.023,130.834,102.536,129.84,103.736z"/>
	<path id="XMLID_606_" class="st38" d="M82.783,111.275c-0.026,1.132-0.772,1.897-1.39,2.728
		C81.406,112.864,82.117,112.081,82.783,111.275z"/>
	<path id="XMLID_605_" class="st59" d="M13.066,225.334c-0.144,0.309-0.208,0.59,0.095,0.786c0.287,0.186,0.531,0.039,0.765-0.154
		c0.658-0.543,1.325-1.075,1.983-1.617c0.222-0.183,0.487-0.451,0.73-0.235c0.162,0.144,0.221,0.539,0.158,0.777
		c-0.193,0.731-0.524,1.427-1.298,1.698c-1.349,0.472-2.491,1.336-3.198,2.469c-1.053,1.686-2.529,2.448-4.34,2.873
		c-0.389,0.091-0.715,0.13-0.879-0.218c-0.43-0.918-0.898-0.845-1.511-0.179c-0.241,0.261-0.628,0.375-0.898,0.038
		c-0.278-0.348-0.048-0.611,0.266-0.831c1.563-1.098,2.406-2.842,3.713-4.173c0.276-0.281,0.501-0.848,0.867-0.726
		c1.185,0.395,1.812-0.318,2.496-1.026c0.266-0.275,0.542-0.67,1.007-0.364C13.427,224.718,13.133,225.057,13.066,225.334z"/>
	<path id="XMLID_604_" class="st48" d="M44.275,194.735c-0.292,0.759-0.631,1.446-1.511,1.719c-0.771,0.239-1.312,0.697-1.06,1.642
		c0.118,0.442-0.074,0.911-0.437,1.014c-2.336,0.661-2.845,3.056-4.357,4.462c-2.641,2.457-4.598,5.617-7.759,7.534
		c-0.336,0.204-0.667,0.628-1.033,0.274c-0.44-0.425,0.117-0.687,0.344-0.956c2.628-3.119,5.813-5.705,8.339-8.945
		c1.561-2.002,3.042-4.123,5.013-5.789c0.563-0.475,1.144-0.931,1.74-1.364C44.04,193.973,44.279,194.158,44.275,194.735z"/>
	<path id="XMLID_603_" class="st4" d="M80.721,162.649c0.047-1.168,0.578-2.159,1.306-3.022c0.513-0.608,1.086-1.153,1.417-1.899
		c0.186-0.42,0.444-0.901,1.011-0.567c0.501,0.296,0.962,0.756,0.57,1.4c-1.05,1.721-2.336,3.306-2.946,5.276
		c-0.079,0.253-0.285,0.57-0.623,0.41C80.791,163.934,80.666,163.329,80.721,162.649z"/>
	<path id="XMLID_602_" class="st68" d="M18.93,222.877c0.394,0.038,0.88-0.057,1.164,0.14c0.624,0.433,1.57,0.842,1.394,1.742
		c-0.195,0.998-1.097,0.701-1.825,0.582c-0.114-0.019-0.263,0.18-0.396,0.279c-0.796-0.006-1.418,1.585-2.12,0.59
		c-0.582-0.826,0.332-1.739,1.029-2.424C18.455,223.511,18.68,223.182,18.93,222.877z"/>
	<path id="XMLID_601_" class="st4" d="M72.813,161.446c0.039-1.423,0.945-1.904,2.094-2.061c0.481-0.066,0.903,0.166,0.891,0.762
		c-0.007,0.335-2.082,2.905-2.266,2.819C72.855,162.65,72.87,162,72.813,161.446z"/>
	<path id="XMLID_600_" class="st4" d="M80.038,160.475c-0.27,0.85-0.412,1.774-1.053,2.479c-0.305,0.336-0.711,0.748-1.15,0.299
		c-0.292-0.299-0.56-0.838-0.213-1.238c0.476-0.549,0.721-1.118,0.754-1.844c0.023-0.515,0.391-0.837,0.944-0.744
		C79.873,159.52,80.005,159.959,80.038,160.475z"/>
	<path id="XMLID_599_" class="st4" d="M87.248,148.436c0.705,0.316,1.151,0.778,0.987,1.472c-0.203,0.861-0.537,1.938-1.482,1.993
		c-0.716,0.042-0.521-0.972-0.52-1.558C86.235,149.533,86.46,148.809,87.248,148.436z"/>
	<path id="XMLID_598_" class="st4" d="M82.433,156.648c-0.108,0.607-0.613,1.313-0.858,1.057c-0.547-0.573-1.885,0.294-1.804-0.982
		c0.04-0.633,0.533-1.53,1.078-1.546C81.618,155.154,82.062,156.012,82.433,156.648z"/>
	<path id="XMLID_597_" class="st7" d="M65.617,207.761c-0.101-0.253-0.151-0.548-0.315-0.751c-0.264-0.326-0.848-0.469-0.623-1.052
		c0.256-0.663,0.756-0.473,1.266-0.327c0.493,0.142,0.709-0.251,0.867-0.613c0.239-0.545,0.644-0.743,1.209-0.687
		C67.344,205.561,66.741,206.844,65.617,207.761z"/>
	<path id="XMLID_596_" class="st7" d="M69.395,202.955c0.007-0.473-0.389-0.637-0.665-0.911c-0.45-0.444-0.206-1.078,0.236-1.004
		c1.483,0.25,2.059-1.157,3.173-1.519C71.224,200.666,70.31,201.811,69.395,202.955z"/>
	<path id="XMLID_595_" class="st4" d="M64.241,156.256c-0.346-0.905-0.157-1.578,0.437-2.44c1.586-2.301,2.932-4.769,4.373-7.17
		C67.863,150.056,66.471,153.366,64.241,156.256z"/>
	<path id="XMLID_594_" class="st4" d="M57.04,168.625c-0.42-1.581,1.216-2.02,1.715-3.091
		C58.697,166.849,57.96,167.787,57.04,168.625z"/>
	<path id="XMLID_593_" class="st4" d="M58.756,165.534c0.319-1.17,0.486-2.425,1.71-3.094
		C60.14,163.605,59.977,164.862,58.756,165.534z"/>
	<path id="XMLID_592_" class="st4" d="M69.052,146.645c0.162-1.027,0.988-1.503,1.713-2.062
		C70.613,145.618,69.783,146.091,69.052,146.645z"/>
	<path id="XMLID_591_" class="st54" d="M132.329,73.909c0.487,0.026,0.598,0.344,0.565,0.71c-0.05,0.546-0.294,1.048-0.895,1.04
		c-0.376-0.005-0.448-0.455-0.435-0.813C131.582,74.329,131.817,73.987,132.329,73.909z"/>
	<path id="XMLID_590_" class="st5" d="M127.082,75.569c-1.06,3.45-3.052,6.497-4.272,9.898c-0.459,1.278-1.056,3.121-3.092,3.273
		c-0.437,0.033-0.859,0.34-0.878,0.907c-0.256,0.186-0.343,0.429-0.278,0.743c0.092,0.444,0.632,1.069-0.214,1.231
		c-0.708,0.135-1.045-0.599-1.057-1.106c-0.017-0.7,0-1.221-0.623-1.759c-0.54-0.466-0.132-0.988,0.442-1.346
		c0.849-0.53,1.497-1.139,1.106-2.352c-0.274-0.848,0.437-1.432,1.085-1.748c1.062-0.518,0.774,0.593,1.052,1.024
		c0.257,0.4,0.654,0.607,0.963,0.169c1.127-1.6,2.164-3.198,1.795-5.372c-0.193-1.139,0.935-1.958,1.378-2.967
		c0.227-0.518,0.886-0.859,1.378-1.246C126.734,74.235,127.079,74.597,127.082,75.569z"/>
	<path id="XMLID_589_" class="st5" d="M117.172,84.118c0.151,0.647-0.162,1.122-0.375,0.919c-0.593-0.566-1.859,0.111-1.941-0.899
		c-0.046-0.563,0.235-1.665,1.175-1.597C116.984,82.611,117.165,83.525,117.172,84.118z"/>
	<path id="XMLID_588_" class="st5" d="M124.018,73.376c0.026-0.292,0.108-0.709,0.611-0.722c0.39-0.01,0.365,0.358,0.362,0.628
		c-0.004,0.366-0.175,0.7-0.535,0.765C124.105,74.11,124.01,73.803,124.018,73.376z"/>
	<path id="XMLID_587_" class="st53" d="M114.033,85.87c-0.261-0.062-0.745-0.117-0.747-0.186c-0.015-0.528,0.166-0.977,0.798-1.062
		C114.513,85.068,113.931,85.455,114.033,85.87C114.034,85.87,114.033,85.87,114.033,85.87z"/>
	<path id="XMLID_586_" class="st45" d="M57.721,208.921c-0.021,0.527-0.058,1.038-0.639,1.104c-0.496,0.057-0.711-0.334-0.676-0.777
		c0.04-0.497,0.373-0.882,0.835-0.972C57.748,208.178,57.663,208.666,57.721,208.921z"/>
	<path id="XMLID_585_" class="st9" d="M24.128,242.212c0.523,0.16,0.902,0.571,1.144,1.07c0.171,0.352-0.151,0.551-0.436,0.47
		c-0.565-0.161-1.266-0.253-1.322-1.035C23.494,242.448,23.751,242.233,24.128,242.212z"/>
	<path id="XMLID_584_" class="st9" d="M22.929,243.543c-0.116,0.352-0.337,0.583-0.723,0.474c-0.278-0.079-0.48-0.313-0.415-0.618
		c0.076-0.355,0.326-0.585,0.711-0.477C22.781,242.999,22.941,243.229,22.929,243.543z"/>
</g>
</svg>
